<svg width="406" height="303" viewBox="0 0 406 303" fill="none" xmlns="http://www.w3.org/2000/svg">
<path d="M333.954 39.8827C369.038 60.0463 382.185 117.069 374.361 166.268C366.619 215.548 337.906 257.004 302.821 279.587C267.736 302.17 226.28 305.88 189.663 301.041C153.046 296.202 121.349 282.733 86.7483 260.149C52.2283 237.566 14.8854 205.869 3.67445 162.88C-7.53649 119.892 7.38455 65.6921 41.9046 45.5285C76.4246 25.365 130.624 39.2375 186.276 37.8664C241.846 36.4146 298.869 19.7192 333.954 39.8827Z" fill="#5F6EF0"/>
<mask id="mask0_741_5259" style="mask-type:luminance" maskUnits="userSpaceOnUse" x="30" y="0" width="389" height="265">
<path d="M418.253 0H30V264.566H418.253V0Z" fill="white"/>
</mask>
<g mask="url(#mask0_741_5259)">
<path d="M82.5655 247.251C73.1323 238.128 60.7201 232.046 47.7494 230.184C44.5222 229.687 40.9847 229.563 38.3782 231.549C36.206 233.225 35.2131 236.204 35.3992 238.934C35.5854 241.727 36.7025 244.334 38.0679 246.754C41.6674 253.208 47.0046 258.732 53.8934 262.704C69.1604 262.766 84.3653 262.828 99.6323 262.89C92.1229 257.18 87.7166 253.705 82.5655 247.251Z" fill="#55D087" stroke="#212529" stroke-width="1.5" stroke-linecap="round" stroke-linejoin="round"/>
<path d="M135.38 263.387C135.628 263.635 108.259 215.848 87.7788 199.898C83.8069 196.795 79.2765 194.189 74.2495 193.692C69.2226 193.196 63.7612 195.368 61.4029 199.836C59.0446 204.305 60.3479 209.828 62.0856 214.607C69.0364 233.039 82.3175 248.182 96.157 263.014C110.245 263.573 135.193 263.2 135.38 263.387Z" fill="#55D087" stroke="#212529" stroke-width="1.5" stroke-linecap="round" stroke-linejoin="round"/>
<path d="M71.2705 198.036C82.8759 220.75 99.1979 240.672 112.975 262.207" stroke="#212529" stroke-width="1.5" stroke-linecap="round" stroke-linejoin="round"/>
<path d="M88.7097 226.708C90.6336 221.371 92.7437 216.034 95.0399 210.821" stroke="#212529" stroke-width="1.5" stroke-linecap="round" stroke-linejoin="round"/>
<path d="M78.1594 236.638C82.2554 237.011 86.3515 237.445 90.5095 237.817C92.8058 238.066 95.102 238.252 97.3362 238.748" stroke="#212529" stroke-width="1.5" stroke-linecap="round" stroke-linejoin="round"/>
<path d="M44.0259 236.7C55.8795 244.644 67.1746 253.333 77.8491 262.766" stroke="#212529" stroke-width="1.5" stroke-linecap="round" stroke-linejoin="round"/>
<path d="M62.4578 249.981C62.3337 246.754 62.1475 243.527 61.7751 240.3" stroke="#212529" stroke-width="1.5" stroke-linecap="round" stroke-linejoin="round"/>
<path d="M70.0293 256.808C66.3677 256.808 62.7681 256.684 59.1065 256.994C57.3068 257.118 55.5691 257.304 53.7693 257.18C53.1487 257.118 52.5281 256.994 51.9075 256.994C52.0316 256.994 52.1557 256.994 52.2798 256.994" stroke="#212529" stroke-width="1.5" stroke-linecap="round" stroke-linejoin="round"/>
<path d="M120.05 253.643C117.258 212.31 116.513 86.3266 116.513 16.8805C116.513 7.38514 122.223 0.434324 131.097 0.434324C152.632 0.434324 221.706 0.682568 236.353 0.434324C242.559 0.372263 247.834 1.36524 252.054 5.64744C255.281 8.87461 256.088 14.2739 256.15 17.5011C257.515 94.8289 263.101 176.687 263.411 255.629C263.411 259.414 260.308 262.58 256.336 262.642C241.504 262.89 211.032 264.131 136.869 264.131C132.214 264.131 120.299 264.379 120.05 253.643Z" fill="#212529" stroke="#212529" stroke-width="1.5" stroke-linecap="round" stroke-linejoin="round"/>
<path d="M123.836 230.991C121.292 191.458 124.457 85.3958 121.912 19.1148C121.54 9.30915 126.629 6.26817 133.083 6.26817C148.04 6.26817 216.555 5.95786 232.877 6.01993C238.587 6.01993 245.289 6.01993 248.641 10.6745C250.44 13.219 250.999 16.5082 251.061 19.6113C252.364 93.5258 256.46 158.69 256.709 234.156C256.709 237.817 253.792 240.796 250.192 240.858C236.477 241.107 181.118 241.107 139.413 241.107C135.131 240.982 123.836 243.775 123.836 230.991Z" fill="white" stroke="#212529" stroke-width="1.5" stroke-linecap="round" stroke-linejoin="round"/>
<path d="M88.7097 167.564C88.7097 153.415 89.6406 130.824 89.6406 109.724C69.657 110.282 50.9146 109.848 30.5586 110.158C30.1862 129.087 30.931 150.684 30.931 167.378C52.0317 167.13 68.8502 167.068 88.7097 167.564Z" fill="#E3E3FF" stroke="#212529" stroke-width="1.5" stroke-linecap="round" stroke-linejoin="round"/>
<path d="M225.058 219.633C225.058 203.622 224.685 178.797 224.685 154.904C185.897 155.586 148.536 155.09 109.004 155.4V219.509C150.026 219.137 186.518 219.075 225.058 219.633Z" fill="#E3E3FF" stroke="#212529" stroke-width="1.5" stroke-linecap="round" stroke-linejoin="round"/>
<path d="M36.4545 204.118C35.958 204.056 35.3995 204.305 35.0892 204.739C34.7789 205.173 34.7789 205.794 35.0892 206.228C35.5857 207.035 36.8889 207.035 37.4475 206.29C38.006 205.546 37.5716 204.305 36.4545 204.118Z" fill="#212529"/>
<path d="M92.061 20.3556C91.5645 20.2936 91.0059 20.5418 90.6956 20.9762C90.3853 21.4107 90.3853 22.0313 90.6956 22.4657C91.1921 23.2725 92.4954 23.2725 93.0539 22.5278C93.6125 21.783 93.2401 20.4798 92.061 20.3556Z" fill="#212529"/>
<path d="M224.251 140.506C224.251 109.662 226.113 60.3231 226.113 14.2739C186.021 15.5151 148.412 14.5842 107.638 15.2048C106.956 56.4753 108.383 103.766 108.383 140.195C150.709 139.575 184.408 139.389 224.251 140.506Z" fill="#E3E3FF" stroke="#212529" stroke-width="1.5" stroke-linecap="round" stroke-linejoin="round"/>
<path d="M123.092 132.314C118.499 129.707 114.217 125.363 115.955 122.074C116.513 121.081 117.32 120.088 118.437 119.715C119.926 119.281 121.106 120.212 122.285 122.012C122.967 120.274 123.588 119.777 124.581 119.281C125.636 118.785 126.877 118.909 127.808 119.591C129.049 120.522 129.484 122.26 129.049 123.749C128.056 127.535 125.512 130.328 123.092 132.314Z" fill="#FF8B37" stroke="#212529" stroke-width="1.5" stroke-linecap="round" stroke-linejoin="round"/>
<path d="M141.337 120.708C162.873 120.398 184.408 120.088 205.943 119.777L141.337 120.708Z" fill="white"/>
<path d="M141.337 120.708C162.873 120.398 184.408 120.088 205.943 119.777" stroke="#212529" stroke-width="1.5" stroke-linecap="round" stroke-linejoin="round"/>
<path d="M142.889 128.28C149.405 128.218 155.922 128.218 162.5 128.156L142.889 128.28Z" fill="white"/>
<path d="M142.889 128.28C149.405 128.218 155.922 128.218 162.5 128.156" stroke="#212529" stroke-width="1.5" stroke-linecap="round" stroke-linejoin="round"/>
<path d="M212.211 22.7763C215.128 22.6522 218.045 22.466 220.962 22.2178C220.713 22.2178 220.527 22.2178 212.211 22.7763Z" fill="white" stroke="#212529" stroke-width="1.5" stroke-linecap="round" stroke-linejoin="round"/>
<path d="M212.459 25.8792C215.19 25.631 218.231 25.7551 220.899 25.5068L212.459 25.8792Z" fill="white"/>
<path d="M212.459 25.8792C215.19 25.631 218.231 25.7551 220.899 25.5068" stroke="#212529" stroke-width="1.5" stroke-linecap="round" stroke-linejoin="round"/>
<path d="M212.459 29.3546C215.376 29.2926 218.355 29.2305 221.272 29.1685L212.459 29.3546Z" fill="white"/>
<path d="M212.459 29.3546C215.376 29.2926 218.355 29.2305 221.272 29.1685" stroke="#212529" stroke-width="1.5" stroke-linecap="round" stroke-linejoin="round"/>
<path d="M254.288 117.481C255.095 118.164 255.964 118.784 256.833 119.343" stroke="#212529" stroke-width="1.5" stroke-linecap="round" stroke-linejoin="round"/>
<path d="M193.034 245.078C191.358 245.264 189.745 246.257 188.752 247.623C187.697 248.988 187.2 250.726 187.138 252.401C187.138 253.27 187.2 254.139 187.573 254.946C187.945 255.815 188.628 256.559 189.372 257.18C190.552 258.111 191.979 258.794 193.53 258.98C195.02 259.166 196.634 258.856 197.937 258.049C199.426 257.118 200.481 255.629 200.854 253.953C201.288 252.277 201.04 250.477 200.295 248.926C199.923 248.057 199.364 247.312 198.619 246.754C196.944 245.388 195.454 244.892 193.034 245.078Z" fill="white" stroke="#212529" stroke-width="1.5" stroke-linecap="round" stroke-linejoin="round"/>
<path d="M232.257 53.8687L234.863 55.7925C234.429 56.7235 234.305 57.4061 234.243 58.4612C234.118 60.1368 234.925 61.8745 236.291 62.8675" fill="white"/>
<path d="M232.257 53.8687L234.863 55.7925C234.429 56.7235 234.305 57.4061 234.243 58.4612C234.118 60.1368 234.925 61.8745 236.291 62.8675" stroke="#212529" stroke-width="1.5" stroke-linecap="round" stroke-linejoin="round"/>
<path d="M241.172 262.704L249.426 181.342L361.819 180.845L352.137 262.021L241.172 262.704Z" fill="white" stroke="#212529" stroke-width="1.5" stroke-linecap="round" stroke-linejoin="round"/>
<path d="M261.218 193.382C260.039 193.506 258.673 193.816 258.363 194.995C258.115 196.112 259.232 197.105 260.349 197.478C261.714 197.912 263.142 197.85 264.507 197.788C269.472 197.54 274.809 197.912 279.712 197.229C280.953 197.043 282.443 196.609 282.567 195.368C282.691 194.188 281.388 193.382 280.209 193.133C278.285 192.513 266.679 192.823 261.218 193.382Z" fill="white" stroke="#212529" stroke-width="1.5" stroke-linecap="round" stroke-linejoin="round"/>
<path d="M256.812 207.47C283.56 207.221 322.286 207.904 340.842 207.718C342.89 207.718 345.062 207.408 346.8 208.463C348.538 209.518 349.344 212.248 347.793 213.614C346.924 214.358 345.745 214.358 344.628 214.42C317.88 214.731 287.408 214.42 260.721 214.793C259.294 214.793 257.805 214.793 256.439 214.296C255.074 213.738 253.957 212.497 253.957 211.069C253.957 209.456 255.074 207.532 256.812 207.47Z" fill="#212529" stroke="#212529" stroke-width="1.5" stroke-linecap="round" stroke-linejoin="round"/>
<path d="M331.098 223.915C327.871 223.419 324.396 224.598 322.162 227.019C320.858 228.446 319.989 230.184 319.369 232.045C318.81 233.659 318.438 235.397 318.562 237.134C318.81 239.989 320.486 242.534 322.782 244.271C325.078 245.947 327.871 247.002 330.664 247.188C341.028 247.809 342.393 234.9 340.035 229.811C338.235 226.088 334.201 224.412 331.098 223.915Z" fill="white" stroke="#212529" stroke-width="1.5" stroke-linecap="round" stroke-linejoin="round"/>
<path d="M260.845 234.094C267.238 233.783 273.63 233.473 279.96 233.101" stroke="#212529" stroke-width="1.5" stroke-linecap="round" stroke-linejoin="round"/>
<path d="M261.59 238.81C264.631 238.624 267.672 238.5 270.713 238.313" stroke="#212529" stroke-width="1.5" stroke-linecap="round" stroke-linejoin="round"/>
<path d="M316.39 224.474C313.163 223.978 309.687 225.157 307.453 227.577C306.15 229.005 305.281 230.742 304.661 232.604C304.102 234.218 303.73 235.955 303.854 237.693C304.102 240.548 305.778 243.092 308.074 244.83C310.37 246.568 313.163 247.561 315.956 247.747C326.32 248.368 327.685 235.459 325.327 230.37C323.589 226.584 319.493 224.971 316.39 224.474Z" fill="#FF8B37" stroke="#212529" stroke-width="1.5" stroke-linecap="round" stroke-linejoin="round"/>
<path d="M50.7285 57.7787C63.6992 57.6546 76.67 57.7167 89.6407 57.7167C87.5927 64.9158 85.7929 72.1148 83.6208 79.5621C74.8081 79.1277 64.3198 79.5001 56.8725 79.1277C54.4522 71.9907 52.6524 64.6675 50.7285 57.7787Z" stroke="#F8F9FA" stroke-width="1.5" stroke-linecap="round" stroke-linejoin="round"/>
<path d="M50.7904 57.965C49.9836 55.3584 49.301 53.4346 48.6183 51.2624C48.2459 50.0833 47.315 49.2144 46.1359 48.842C44.212 48.2835 41.7916 47.5388 40.4263 47.2905" stroke="#F8F9FA" stroke-width="1.5" stroke-linecap="round" stroke-linejoin="round"/>
<path d="M60.3479 57.7788C61.6512 65.102 63.3268 74.4732 63.7612 79.0036L60.3479 57.7788Z" fill="white"/>
<path d="M60.3479 57.7788C61.6512 65.102 63.3268 74.4732 63.7612 79.0036" stroke="#F8F9FA" stroke-width="1.5" stroke-linecap="round" stroke-linejoin="round"/>
<path d="M79.959 57.7788C79.2143 64.3573 77.6628 73.6664 76.7939 79.0036L79.959 57.7788Z" fill="white"/>
<path d="M79.959 57.7788C79.2143 64.3573 77.6628 73.6664 76.7939 79.0036" stroke="#F8F9FA" stroke-width="1.5" stroke-linecap="round" stroke-linejoin="round"/>
<path d="M70.2776 57.7788C70.0294 66.2811 69.9053 71.246 69.9053 79.3139L70.2776 57.7788Z" fill="white"/>
<path d="M70.2776 57.7788C70.0294 66.2811 69.9053 71.246 69.9053 79.3139" stroke="#F8F9FA" stroke-width="1.5" stroke-linecap="round" stroke-linejoin="round"/>
<path d="M56.7483 78.8794C57.5551 81.8583 58.5481 85.2096 59.1066 87.3197C59.479 88.5609 60.5961 89.4297 61.8993 89.4297C66.7401 89.3677 75.1183 89.3056 81.3865 89.4297" stroke="#F8F9FA" stroke-width="1.5" stroke-linecap="round" stroke-linejoin="round"/>
<path d="M63.637 90.3604C62.8302 91.2913 63.0164 92.7807 64.1335 93.6496C64.7541 94.1461 65.5609 94.3943 66.3056 94.2702C67.0503 94.1461 67.7951 93.5875 68.1054 92.9048C68.4157 92.2222 68.4777 90.981 67.671 90.1742C66.9883 89.5536 65.0023 88.7468 63.637 90.3604Z" stroke="#F8F9FA" stroke-width="1.5" stroke-linecap="round" stroke-linejoin="round"/>
<path d="M75.4287 90.3604C74.6219 91.2913 74.8081 92.7807 75.9252 93.6496C76.5458 94.1461 77.3526 94.3943 78.0974 94.2702C78.8421 94.1461 79.5868 93.5875 79.8971 92.9048C80.2074 92.2222 80.2695 90.981 79.4627 90.1742C78.78 89.5536 76.732 88.7468 75.4287 90.3604Z" stroke="#F8F9FA" stroke-width="1.5" stroke-linecap="round" stroke-linejoin="round"/>
<path d="M52.5903 64.7293C67.1126 64.7293 73.1325 64.3569 87.7789 64.3569L52.5903 64.7293Z" fill="white"/>
<path d="M52.5903 64.7293C67.1126 64.7293 73.1325 64.3569 87.7789 64.3569" stroke="#F8F9FA" stroke-width="1.5" stroke-linecap="round" stroke-linejoin="round"/>
<path d="M55.0105 72.3631C62.7681 71.9287 71.7049 72.177 85.5445 71.9287L55.0105 72.3631Z" fill="white"/>
<path d="M55.0105 72.3631C62.7681 71.9287 71.7049 72.177 85.5445 71.9287" stroke="#F8F9FA" stroke-width="1.5" stroke-linecap="round" stroke-linejoin="round"/>
<path d="M178.139 190.092C178.264 191.085 178.636 192.14 179.381 192.823C180.125 193.506 181.242 193.816 182.173 193.444C182.918 193.133 183.477 192.451 183.787 191.706C184.097 190.961 184.159 190.154 184.283 189.348" fill="white"/>
<path d="M91.9368 183.452C93.178 182.335 94.4192 181.156 95.6604 180.039" stroke="#212529" stroke-width="1.5" stroke-linecap="round" stroke-linejoin="round"/>
</g>
<path d="M131.594 96.8148C132.4 96.9389 133.269 96.9389 134.138 96.9389C135.007 96.9389 135.938 96.8768 136.869 96.7527C142.516 96.07 149.964 95.1391 157.287 93.7738C160.576 93.1532 163.865 92.4705 167.092 91.6637C168.706 91.2913 170.32 90.919 171.933 90.5466C173.174 90.2363 174.416 89.9881 175.657 89.6778C180.746 88.4365 186.642 86.885 191.296 83.2234C195.392 80.0583 199.799 73.9763 198.681 67.2117C198.247 64.481 196.758 61.8124 194.461 59.6403C192.289 57.5923 189.558 56.1028 186.269 55.1098C183.477 54.303 180.249 53.8686 176.277 53.8066C173.05 53.7445 169.761 53.9307 166.472 54.3651C160.08 55.234 153.687 56.9717 147.481 59.7023C141.275 62.371 135.566 65.7222 130.601 69.6321C127.746 71.8663 125.636 74.1005 124.084 76.5208C122.284 79.3136 121.292 82.3546 121.292 85.3956C121.229 88.6227 122.347 91.6016 124.332 93.6496C126.008 95.3874 128.366 96.4424 131.594 96.8148ZM139.724 70.8112C139.724 71.1215 139.662 71.3698 139.599 71.7422C139.599 71.8042 139.599 71.8663 139.537 71.9283C139.475 72.1766 139.475 72.4248 139.351 72.5489C139.351 72.4869 139.289 72.3628 139.227 72.1145V72.0525C139.165 71.7422 139.103 71.4939 138.979 71.1836C138.669 70.2527 138.048 69.3838 137.303 68.7632C136.807 68.3288 136.248 67.9564 135.69 67.7082C135.876 67.5841 136.062 67.46 136.186 67.3979C136.745 67.0255 137.303 66.6532 137.862 66.3429C139.475 67.3979 139.848 69.3838 139.724 70.8112ZM138.607 72.1145C138.607 72.1766 138.607 72.3007 138.669 72.3628C138.669 72.5489 138.731 72.7351 138.793 72.9213C138.855 73.1075 139.041 73.2316 139.227 73.2316C139.413 73.2937 139.599 73.2316 139.786 73.1075C139.972 72.9834 140.034 72.7351 140.034 72.5489V72.4248C140.158 72.0525 140.22 71.6801 140.282 71.3077C140.468 70.0665 140.344 68.9494 139.972 68.0185C139.662 67.1496 139.165 66.467 138.482 65.9705C140.468 64.7913 142.516 63.6742 144.564 62.6192C145.247 62.3089 145.868 61.9986 146.55 61.6883C148.722 63.4881 149.964 66.4049 149.84 69.3218C149.84 69.3838 149.84 69.508 149.84 69.57C149.777 70.0044 149.715 70.6871 150.336 70.8112C150.522 70.8112 150.77 70.8112 151.019 70.5009C151.205 70.1906 151.391 69.8803 151.515 69.57L151.577 69.3838C152.198 67.8944 152.57 66.2187 152.632 64.6052C152.694 62.8674 152.384 61.1918 151.701 59.5782C154.804 58.3991 157.97 57.4682 161.135 56.7855C164.051 58.0888 165.913 61.1297 165.789 64.2948C165.789 64.7913 165.727 65.2258 165.603 65.6602V65.7223C165.541 65.9705 165.479 66.2808 165.727 66.529C165.913 66.7152 166.099 66.7773 166.286 66.7773C166.658 66.7152 166.906 66.3429 167.155 65.9084C167.961 64.481 168.334 62.6813 168.085 60.8815C167.899 59.2679 167.217 57.5923 166.162 55.8546C170.506 55.234 174.726 55.0478 178.76 55.3581C180.498 56.7234 181.242 58.9576 180.808 61.0677C180.808 61.1297 180.746 61.1918 180.746 61.2539C180.622 61.5642 180.498 62.0607 180.932 62.3089C181.429 62.6192 181.739 62.1227 181.987 61.8745L182.049 61.8124C182.732 60.9436 183.166 59.9506 183.477 58.8956C183.725 57.9026 183.787 56.9096 183.601 55.9166C187.945 56.7855 193.592 58.9576 196.323 64.2948C197.13 65.9084 197.502 67.6461 197.502 69.508C196.695 70.9354 195.765 72.1145 194.834 73.1075C193.717 74.2867 192.351 75.3417 190.614 76.2726C190.365 76.3967 190.303 76.645 190.427 76.8932C190.551 77.1415 190.8 77.2035 191.048 77.0794C192.786 76.0864 194.213 74.9693 195.454 73.7281C196.075 73.0454 196.695 72.3628 197.254 71.4939C197.254 71.618 197.192 71.6801 197.192 71.8042C195.889 73.4799 194.399 74.9693 192.662 76.2105C192.475 76.3347 192.475 76.5208 192.599 76.645C192.724 76.7691 192.91 76.8311 193.034 76.707C194.399 75.7141 195.703 74.5349 196.82 73.2937C196.82 73.3557 196.758 73.4799 196.758 73.5419C196.137 74.4728 195.392 75.2796 194.523 75.9623C194.461 76.0244 194.399 76.1485 194.399 76.2105C194.399 76.3347 194.523 76.3967 194.585 76.4588C194.647 76.5208 194.772 76.4588 194.834 76.4588C194.834 76.5208 194.834 76.5829 194.896 76.645C194.958 76.707 195.082 76.7691 195.144 76.7691C194.461 77.8862 193.592 78.9412 192.662 79.9342C188.628 84.0923 182.98 86.0162 178.512 87.2574C176.34 87.8159 174.167 88.3124 171.995 88.8089C171.437 88.933 170.878 89.0571 170.32 89.1813C169.14 89.4295 167.961 89.7398 166.844 89.9881C165.044 90.4225 163.183 90.8569 161.321 91.2293C155.611 92.4705 149.467 93.4635 142.144 94.3944C140.468 94.6426 138.731 94.8288 137.055 95.015C133.455 95.4494 130.477 95.1391 128.118 94.0841C125.822 93.029 124.146 91.0431 123.402 88.4986C123.34 88.3124 123.277 88.1262 123.277 87.94C125.636 89.0571 128.429 89.7398 131.966 90.1742C135.752 90.6087 139.786 90.6087 144.688 90.1742C149.157 89.8019 153.749 89.1192 158.776 88.0021C163.431 87.0091 168.21 85.7679 172.926 84.3405C177.457 82.9131 181.615 81.4237 185.525 79.748C185.959 79.5618 186.455 79.3756 186.89 79.1895C187.138 79.0653 187.2 78.8792 187.076 78.6309C186.952 78.3827 186.704 78.2586 186.455 78.3827C185.773 78.693 185.028 79.0033 184.283 79.3136L185.711 75.4037C185.773 75.2796 185.711 75.2176 185.649 75.0934C185.587 75.0314 185.462 74.9693 185.338 74.9693C185.214 74.9693 185.152 75.0934 185.09 75.1555L183.663 79.0653C183.601 79.1895 183.663 79.2515 183.725 79.3756C183.725 79.3756 183.787 79.4377 183.849 79.4377C183.414 79.6239 183.042 79.748 182.608 79.9342C182.67 79.8101 182.608 79.748 182.546 79.6239C182.484 79.5618 182.359 79.4998 182.235 79.4998C182.111 79.4998 182.049 79.6239 181.987 79.6859L181.801 80.1824C179.381 81.1133 176.898 81.9822 174.229 82.8511C171.002 83.9061 167.713 84.837 164.424 85.7059C165.355 84.0302 165.975 82.2925 166.348 80.4307C166.348 80.3066 166.348 80.1824 166.224 80.1204C166.162 80.0583 166.037 79.9963 165.913 80.0583C165.789 80.1204 165.727 80.1824 165.727 80.3066C165.355 82.2925 164.61 84.2164 163.617 85.9541C162.562 86.2023 161.507 86.4506 160.514 86.6988C155.487 87.8159 150.895 88.6227 146.426 89.0571C141.647 89.5536 137.489 89.6778 133.704 89.3674C129.546 89.0571 126.318 88.3124 123.588 87.0091C123.402 86.9471 123.277 86.823 123.091 86.7609C122.781 84.5888 123.153 82.2304 124.022 79.9342C125.015 77.4518 126.691 75.0934 129.173 72.6731C130.849 71.1215 132.773 69.57 135.317 67.8323C136.186 68.1426 136.931 68.6391 137.551 69.2597C137.986 69.7562 138.358 70.2527 138.607 70.8733C138.482 71.556 138.544 71.8663 138.607 72.1145ZM151.267 68.515C151.143 68.8874 151.019 69.1977 150.832 69.57C150.77 69.7562 150.646 69.8803 150.584 70.0665V70.1286L150.522 70.2527L150.46 70.3148C150.46 70.3148 150.46 70.3148 150.46 70.2527C150.46 70.0665 150.46 69.8803 150.522 69.6941C150.522 69.57 150.584 69.3838 150.584 69.2597C150.584 68.8874 150.584 68.515 150.522 68.2047C150.398 66.8393 150.026 65.5981 149.405 64.419C148.847 63.3639 148.102 62.371 147.233 61.5642C148.536 61.0056 149.84 60.4471 151.143 59.9506C152.26 62.5571 152.322 65.7223 151.267 68.515ZM166.844 65.2878C166.782 65.4119 166.72 65.5981 166.596 65.7223L166.534 65.8464C166.472 65.9084 166.348 66.2187 166.286 66.2187H166.224C166.224 66.1567 166.224 66.0326 166.224 65.8464C166.286 65.5981 166.286 65.4119 166.348 65.1637C166.472 64.3569 166.472 63.5501 166.348 62.7433C166.099 61.2539 165.479 59.8265 164.486 58.5852C163.803 57.7785 162.996 57.0958 162.128 56.5993C162.252 56.5993 162.376 56.5372 162.5 56.5372C163.493 56.3511 164.486 56.1649 165.479 56.0408C166.72 58.0267 168.52 61.8124 166.844 65.2878ZM181.801 61.1918C181.801 61.2539 181.739 61.3159 181.677 61.3159C181.553 61.5021 181.491 61.6262 181.366 61.7504H181.304C181.304 61.7504 181.304 61.7504 181.304 61.6883C181.304 61.6262 181.366 61.5021 181.366 61.44C181.366 61.378 181.429 61.3159 181.429 61.2539C181.553 60.6953 181.615 60.0747 181.553 59.5162C181.491 58.5232 181.18 57.5923 180.684 56.7234C180.436 56.289 180.125 55.9166 179.753 55.5443C180.311 55.6063 180.87 55.6684 181.429 55.7304C181.863 55.7925 182.359 55.8546 182.794 55.9166C183.228 57.7164 182.856 59.6403 181.801 61.1918Z" fill="#231F20"/>
<path d="M140.158 89.3677C140.22 89.4298 140.282 89.4298 140.344 89.4298C140.468 89.4298 140.53 89.3677 140.592 89.3057C141.71 87.568 142.516 85.582 143.013 83.534C143.075 83.3478 142.951 83.1617 142.765 83.1617C142.578 83.0996 142.454 83.2237 142.392 83.4099C141.958 85.3958 141.151 87.2577 140.034 88.9954C139.972 89.0574 139.972 89.2436 140.158 89.3677Z" fill="#231F20"/>
<path d="M142.082 88.8708C142.144 88.9329 142.268 88.9949 142.33 88.9949C142.33 88.9949 142.33 88.9949 142.392 88.9949C142.516 88.9949 142.578 88.9329 142.64 88.8088L144.068 85.3334C144.13 85.2092 144.068 85.1472 144.006 85.023C143.944 84.961 143.82 84.8989 143.695 84.8989C143.571 84.8989 143.509 84.961 143.447 85.0851L142.02 88.5605C142.02 88.6846 142.02 88.8088 142.082 88.8708Z" fill="#231F20"/>
<path d="M144.006 86.8229L143.447 88.1882C143.385 88.3124 143.385 88.4365 143.509 88.4985C143.571 88.5606 143.696 88.6227 143.758 88.6227C143.758 88.6227 143.758 88.6227 143.82 88.6227C143.944 88.6227 144.006 88.5606 144.068 88.4365L144.626 87.0711C144.688 86.885 144.626 86.6988 144.44 86.6367C144.192 86.6367 144.068 86.6988 144.006 86.8229Z" fill="#231F20"/>
<path d="M165.913 83.1612L165.107 85.1472C165.044 85.3334 165.107 85.4575 165.293 85.5196C165.355 85.5196 165.355 85.5196 165.417 85.5196C165.541 85.5196 165.665 85.4575 165.727 85.3334L166.472 83.5336L166.162 84.2783C166.099 84.4025 166.162 84.4645 166.224 84.5886C166.286 84.6507 166.41 84.7128 166.472 84.7128H166.534C166.658 84.7128 166.72 84.5886 166.782 84.5266L167.899 81.6097C167.961 81.4856 167.899 81.4235 167.837 81.2994C167.775 81.2374 167.651 81.1753 167.527 81.1753C167.403 81.1753 167.341 81.2994 167.279 81.3615L166.534 83.3474C166.596 83.2233 166.534 83.1612 166.472 83.0371C166.41 82.9751 166.286 82.913 166.162 82.913C166.037 82.9751 165.975 83.0371 165.913 83.1612Z" fill="#231F20"/>
<path d="M167.651 84.7127C167.713 84.7127 167.713 84.7127 167.775 84.7127C167.899 84.7127 168.023 84.6507 168.086 84.5266L168.768 82.6027C168.83 82.4165 168.768 82.2924 168.582 82.2303C168.396 82.1682 168.21 82.2303 168.148 82.4165L167.465 84.3404C167.403 84.4645 167.465 84.6507 167.651 84.7127Z" fill="#231F20"/>
<path d="M169.078 84.0925C169.14 84.0925 169.14 84.0925 169.202 84.0925C169.327 84.0925 169.451 84.0304 169.513 83.9063L170.444 81.2376C170.506 81.1135 170.444 81.0515 170.382 80.9273C170.32 80.8653 170.195 80.8032 170.071 80.8032C169.947 80.8032 169.885 80.9273 169.823 80.9894L168.892 83.658C168.83 83.8442 168.892 84.0304 169.078 84.0925Z" fill="#231F20"/>
<path d="M184.966 78.6308C184.904 78.8169 185.028 78.9411 185.214 79.0031H185.276C185.401 79.0031 185.525 78.9411 185.587 78.7549L186.145 76.7069C186.207 76.5207 186.083 76.3966 185.897 76.3345C185.711 76.2724 185.587 76.3966 185.525 76.5827L184.966 78.6308Z" fill="#231F20"/>
<path d="M186.455 76.831C186.58 76.831 186.642 76.7689 186.704 76.6448L187.014 76.0242C187.076 75.9001 187.076 75.776 187.014 75.7139C186.952 75.5898 186.828 75.5277 186.704 75.5898C186.58 75.5898 186.518 75.6518 186.455 75.776L186.145 76.3966C186.083 76.5207 186.083 76.6448 186.145 76.7069C186.269 76.831 186.331 76.831 186.455 76.831Z" fill="#231F20"/>
<path d="M182.421 79.4377C182.483 79.4377 182.483 79.4377 182.545 79.4377C182.67 79.4377 182.794 79.3756 182.856 79.1894L183.911 75.9623C183.973 75.8381 183.911 75.7761 183.849 75.652C183.787 75.5899 183.663 75.5278 183.538 75.5278C183.414 75.5278 183.352 75.652 183.29 75.714L182.235 78.9412C182.173 79.2515 182.235 79.4377 182.421 79.4377Z" fill="#231F20"/>
<path d="M136.559 91.4778C132.649 91.8502 128.677 91.1675 125.015 89.6781C124.891 89.616 124.705 89.6781 124.643 89.8642C124.581 89.9884 124.643 90.2366 124.829 90.2987C127.87 91.6019 131.159 92.2226 134.449 92.2226C135.193 92.2226 135.876 92.2226 136.621 92.0984C136.745 92.0984 136.807 92.0364 136.869 91.9123C136.931 91.7881 136.931 91.664 136.869 91.6019C136.807 91.5399 136.683 91.4778 136.559 91.4778Z" fill="#231F20"/>
<path d="M133.517 93.4016C133.704 93.4016 133.828 93.2775 133.828 93.0913C133.828 92.9051 133.704 92.781 133.517 92.781C131.469 92.781 129.421 92.3466 127.622 91.4157C127.497 91.3536 127.373 91.3536 127.311 91.4157C127.187 91.4777 127.125 91.6019 127.187 91.726C127.187 91.8501 127.249 91.9122 127.373 91.9742C129.297 92.9051 131.407 93.4016 133.455 93.4016C133.455 93.4016 133.455 93.4016 133.517 93.4016Z" fill="#231F20"/>
<path d="M134.945 93.7737C134.883 93.5875 134.759 93.4634 134.573 93.5254C133.393 93.7737 132.276 93.7116 131.097 93.3393C130.911 93.2772 130.787 93.4013 130.725 93.5254C130.663 93.7116 130.787 93.8978 130.911 93.8978C131.656 94.1461 132.4 94.2081 133.145 94.2081C133.642 94.2081 134.138 94.1461 134.635 94.084C134.883 94.084 134.945 93.8978 134.945 93.7737Z" fill="#231F20"/>
<path d="M134.759 94.3946L133.518 94.3325C133.331 94.3325 133.207 94.4566 133.207 94.6428C133.207 94.829 133.331 94.9531 133.518 94.9531L134.759 95.0152C134.883 95.0152 134.945 94.9531 135.007 94.8911C135.069 94.7669 135.069 94.6428 135.007 94.5808C135.007 94.4566 134.883 94.3946 134.759 94.3946Z" fill="#231F20"/>
<path d="M134.2 64.1087C134.262 64.1087 134.324 64.1087 134.324 64.0466C139.041 61.4401 143.944 59.0197 148.847 56.9096C150.274 56.289 151.701 55.6684 153.191 55.1099C153.315 55.0478 153.377 54.9857 153.377 54.8616C153.377 54.7375 153.377 54.6134 153.253 54.5513C153.191 54.4893 153.067 54.4893 152.943 54.4893C147.854 56.5373 142.889 58.7715 138.048 61.2539C136.683 61.9366 135.317 62.6813 133.952 63.4881C133.828 63.5501 133.766 63.6122 133.766 63.7363C133.766 63.8604 133.828 63.9846 133.952 64.0466C134.138 64.0466 134.2 64.1087 134.2 64.1087Z" fill="#231F20"/>
<path d="M144.13 57.0336C144.192 57.0336 144.254 57.0336 144.254 56.9715C146.116 56.0406 148.04 55.1718 150.026 54.4891C150.212 54.427 150.274 54.2409 150.212 54.0547C150.15 53.8685 149.964 53.8064 149.839 53.8685C147.854 54.6132 145.868 55.4821 144.006 56.413C143.882 56.475 143.82 56.5371 143.82 56.6612C143.82 56.7854 143.882 56.9095 143.944 56.9715C144.006 56.9715 144.068 57.0336 144.13 57.0336Z" fill="#231F20"/>
<path d="M146.674 54.4273C146.737 54.4273 146.737 54.4273 146.799 54.3652L148.35 53.6205C148.536 53.5584 148.598 53.3722 148.474 53.2481C148.412 53.124 148.226 52.9999 148.04 53.0619L146.488 53.8066C146.302 53.8687 146.24 54.0549 146.364 54.179C146.426 54.3652 146.55 54.4273 146.674 54.4273Z" fill="#231F20"/>
<path d="M198.371 77.3276C198.185 77.2655 198.061 77.3276 197.937 77.4517C196.013 81.3615 193.034 84.6508 189.31 86.947C189.186 87.0091 189.186 87.1332 189.186 87.1953C189.186 87.3194 189.248 87.4435 189.372 87.5056C189.434 87.5056 189.434 87.5676 189.496 87.5676C189.558 87.5676 189.62 87.5676 189.683 87.5056C193.468 85.1472 196.509 81.796 198.495 77.762C198.619 77.5758 198.557 77.3896 198.371 77.3276Z" fill="#231F20"/>
<path d="M196.695 83.2856C196.757 83.2235 196.758 83.0994 196.758 82.9752C196.695 82.8511 196.633 82.7891 196.509 82.7891C196.385 82.7891 196.261 82.8511 196.199 82.9132C194.275 85.4577 191.793 87.5678 188.876 88.9952C188.752 89.0572 188.69 89.2434 188.752 89.4296C188.814 89.5537 188.938 89.6158 189.062 89.6158C189.124 89.6158 189.186 89.6158 189.186 89.5537C192.103 88.0642 194.709 85.8921 196.695 83.2856Z" fill="#231F20"/>
<path d="M187.697 89.7397L185.897 90.6085C185.711 90.6706 185.711 90.8568 185.773 90.9809C185.835 91.105 185.959 91.1671 186.083 91.1671C186.145 91.1671 186.145 91.1671 186.207 91.105L188.007 90.2362C188.193 90.1741 188.193 89.9879 188.131 89.8638C188.069 89.7397 187.883 89.6776 187.697 89.7397Z" fill="#231F20"/>
<path d="M194.461 87.0091C194.337 86.885 194.151 86.885 194.027 87.0091C193.034 87.94 191.917 88.6848 190.676 89.3674C190.552 89.4295 190.49 89.4915 190.49 89.6157C190.49 89.7398 190.552 89.8639 190.676 89.926C190.738 89.988 190.8 89.988 190.862 89.988C190.924 89.988 190.986 89.988 190.986 89.926C192.227 89.2433 193.406 88.4365 194.461 87.5056C194.586 87.3194 194.586 87.1332 194.461 87.0091Z" fill="#231F20"/>
<path d="M194.647 201.14C195.454 200.209 195.206 198.781 195.02 197.788C194.834 196.795 194.523 195.74 194.151 194.499C193.779 193.444 193.406 192.327 192.848 191.148C192.91 190.838 192.972 190.465 192.972 190.155C192.972 189.41 192.724 188.603 192.289 187.797C191.42 186.307 190.179 184.88 188.503 183.576C188.441 183.514 188.441 183.514 188.379 183.514C188.379 182.77 188.193 182.149 187.883 181.59C187.386 180.597 186.517 179.605 185.276 178.549C184.283 177.681 183.228 176.998 182.049 176.501C181.739 175.508 181.242 174.64 180.436 173.833C179.38 172.778 177.953 171.971 176.215 171.475C174.416 170.978 172.554 170.792 171.126 170.668C169.451 170.544 167.713 170.606 165.975 170.73C162.5 171.04 159.149 171.785 155.921 173.088C155.115 173.398 154.308 173.771 153.563 174.143C152.756 174.516 152.198 174.888 151.763 175.384C151.081 176.067 150.646 176.998 150.46 177.991C150.398 177.991 150.274 177.991 150.15 178.053C148.04 178.984 146.178 180.411 144.751 182.273C144.316 182.832 144.068 183.328 143.882 183.825C143.758 184.259 143.633 184.694 143.633 185.19C143.571 185.19 143.571 185.252 143.509 185.252C142.206 186.307 141.027 187.548 140.096 188.914C139.537 189.783 139.227 190.465 139.103 191.21C139.041 191.706 139.041 192.265 139.165 192.823C138.42 194.499 137.551 196.733 137.055 199.03V199.092C136.807 200.085 136.558 201.388 137.055 202.443C137.365 203.001 137.8 203.312 138.358 203.312C138.42 203.312 138.42 203.312 138.482 203.312C138.979 203.25 139.475 203.001 139.91 202.691C140.034 202.629 140.096 202.567 140.22 202.505L144.006 200.209C144.626 200.829 145.185 201.14 145.743 201.264C146.736 201.45 147.667 201.14 148.598 200.705C149.467 200.333 150.336 199.836 151.205 199.34C151.205 199.34 151.205 199.34 151.267 199.34C152.074 199.898 153.005 200.147 154.122 200.147C155.301 200.147 156.666 199.898 157.845 199.464C159.087 199.03 160.017 198.409 160.7 197.602C160.762 197.602 160.762 197.664 160.824 197.664C162.19 198.595 163.555 199.154 164.858 199.154C166.099 199.216 167.465 198.719 168.954 197.726C169.637 197.292 170.32 196.733 171.002 196.113C171.499 196.609 172.181 197.044 172.988 197.416C173.919 197.85 174.912 198.161 175.967 198.347C177.146 198.595 178.388 198.719 179.567 198.409C180.001 198.285 180.373 198.099 180.746 197.788C180.746 197.788 180.746 197.788 180.808 197.788C181.553 198.223 182.359 198.657 183.104 199.03C183.849 199.402 184.656 199.712 185.525 199.774C186.393 199.774 187.138 199.464 188.007 198.657L191.296 200.705C191.42 200.767 191.544 200.829 191.669 200.953C192.599 201.326 193.779 202.133 194.647 201.14ZM173.919 196.485C173.299 196.237 172.368 195.864 171.747 195.182C172.43 194.499 173.112 193.692 173.733 193.01C173.981 192.699 174.291 192.389 174.54 192.079C176.091 190.279 177.457 188.541 178.636 186.804L178.698 186.742C180.498 184.135 182.546 181.094 182.297 177.743C183.973 178.612 185.4 179.853 186.393 181.218C186.766 181.777 187.014 182.211 187.138 182.645C187.262 183.142 187.262 183.763 187.2 184.445C187.014 185.5 186.704 186.617 186.083 187.859C185.152 189.845 183.911 191.893 182.235 194.313L181.987 194.623C181.428 195.43 180.87 196.299 180.063 196.795C179.07 197.478 177.829 197.416 176.898 197.292C175.905 197.168 174.912 196.857 173.919 196.485ZM162.748 197.416C159.955 196.113 158.156 193.568 156.666 191.024C155.053 188.293 153.749 185.252 152.632 182.583C152.322 181.901 152.074 181.156 151.763 180.473C151.329 179.356 151.329 178.115 151.825 177.06C152.074 176.501 152.446 176.067 152.943 175.695C153.377 175.322 153.936 175.074 154.494 174.826L154.742 174.702C157.659 173.336 160.824 172.405 164.114 171.971C165.727 171.723 167.341 171.599 168.892 171.599C170.568 171.599 172.181 171.723 173.795 171.971C176.464 172.405 179.877 173.523 180.932 176.501C180.994 176.626 180.994 176.75 181.056 176.874C181.056 176.936 181.056 176.998 181.056 176.998C181.304 178.053 181.242 179.232 180.808 180.473C180.311 182.087 179.443 183.576 178.574 184.88C177.457 186.555 176.091 188.541 174.478 190.403C174.105 190.838 173.733 191.21 173.423 191.644C173.05 192.079 172.678 192.451 172.368 192.886C171.561 193.816 170.754 194.747 169.823 195.554C168.706 196.547 167.527 197.292 166.348 197.726C165.231 198.099 163.989 198.037 162.748 197.416ZM151.763 198.285C151.019 197.726 150.46 196.92 149.902 196.113L149.653 195.802C148.04 193.506 146.923 191.582 145.992 189.658C145.433 188.479 145.061 187.424 144.875 186.431C144.751 185.749 144.688 185.19 144.751 184.694C144.813 184.197 144.999 183.763 145.309 183.266C145.868 182.397 146.674 181.528 147.667 180.66C148.474 180.039 149.343 179.48 150.336 178.984C150.336 179.605 150.522 180.287 150.77 180.97C151.143 181.777 151.453 182.583 151.825 183.39C152.694 185.5 153.625 187.734 154.742 189.845C156.046 192.389 157.597 194.934 159.831 196.795C159.335 197.416 158.59 197.912 157.597 198.285C156.728 198.595 155.735 198.781 154.68 198.905C153.439 199.03 152.508 198.843 151.763 198.285ZM150.398 198.471C149.777 198.843 149.157 199.154 148.536 199.464L148.412 199.526C147.791 199.836 147.047 200.147 146.364 200.147C145.806 200.147 145.309 199.898 144.751 199.34C144.192 198.781 143.695 198.223 143.199 197.602C142.392 196.609 141.337 195.244 140.654 193.754C140.282 192.948 140.096 192.265 140.158 191.644C140.158 191.024 140.406 190.341 140.903 189.596C141.647 188.417 142.64 187.362 143.82 186.307C143.944 187.238 144.254 188.231 144.751 189.286C145.247 190.465 145.868 191.644 146.488 192.637C147.171 193.754 147.854 194.872 148.598 195.927L148.847 196.299C149.281 197.106 149.777 197.85 150.398 198.471ZM186.083 198.533C185.338 198.719 184.532 198.347 183.849 198.037L183.787 197.975C183.104 197.664 182.359 197.292 181.677 196.857C181.925 196.609 182.173 196.299 182.421 195.927C184.035 193.754 185.462 191.458 186.704 189.1C187.448 187.672 187.883 186.555 188.131 185.438C188.193 185.19 188.255 184.942 188.255 184.694C189.248 185.562 190.179 186.555 190.924 187.61C191.296 188.107 191.669 188.79 191.855 189.472C191.979 190.093 191.917 190.775 191.606 191.582C191.358 192.327 190.924 193.01 190.489 193.63C190.055 194.251 189.621 194.934 189.186 195.492C188.69 196.113 188.193 196.733 187.635 197.292C187.2 197.85 186.704 198.347 186.083 198.533ZM189.31 197.106L189.496 196.857C190.551 195.554 191.606 194.189 192.351 192.637C192.972 194.251 193.468 195.74 193.841 197.106C193.965 197.602 194.089 198.099 194.151 198.533C194.213 198.968 194.275 199.464 194.151 199.961C194.089 200.271 193.965 200.457 193.779 200.519C193.654 200.581 193.592 200.581 193.406 200.519C193.034 200.395 192.724 200.147 192.413 199.961C192.289 199.836 192.103 199.774 191.979 199.712L188.814 197.788C189 197.54 189.124 197.292 189.31 197.106ZM138.11 201.822C137.862 201.388 137.924 200.891 137.924 200.457C137.986 199.96 138.048 199.526 138.172 199.092C138.358 198.223 138.669 197.23 139.041 196.175C139.227 195.554 139.475 194.934 139.724 194.251C140.344 195.616 141.275 196.857 142.144 197.975C142.516 198.471 142.889 198.905 143.261 199.278L140.034 201.264C139.662 201.45 139.351 201.698 138.979 201.884H138.917C138.731 202.008 138.544 202.071 138.42 202.071C138.296 202.133 138.172 202.009 138.11 201.822Z" fill="#231F20"/>
<path d="M142.454 188.231L142.206 188.479C142.144 188.541 142.082 188.666 142.082 188.728C142.082 188.79 142.144 188.914 142.206 188.976C142.268 189.038 142.33 189.038 142.454 189.038C142.516 189.038 142.64 188.976 142.702 188.914L142.951 188.666C143.013 188.603 143.075 188.479 143.075 188.417C143.075 188.355 143.013 188.231 142.951 188.169C142.764 188.045 142.578 188.045 142.454 188.231Z" fill="#231F20"/>
<path d="M141.461 189.658C141.337 189.658 141.275 189.72 141.213 189.844C140.779 190.775 140.344 192.017 141.151 192.947C141.213 193.009 141.275 193.072 141.399 193.072C141.461 193.072 141.523 193.072 141.647 193.009C141.772 192.885 141.834 192.699 141.647 192.513C141.089 191.892 141.399 191.024 141.772 190.217C141.834 190.093 141.834 189.969 141.772 189.906C141.709 189.72 141.585 189.658 141.461 189.658Z" fill="#231F20"/>
<path d="M158.28 173.708C156.108 174.329 153.749 175.26 152.508 177.37C152.384 177.556 152.446 177.742 152.632 177.804C152.694 177.866 152.756 177.866 152.818 177.866C152.943 177.866 153.005 177.804 153.067 177.68C154.184 175.756 156.294 174.95 158.466 174.329C158.652 174.267 158.714 174.081 158.714 173.895C158.652 173.77 158.466 173.646 158.28 173.708Z" fill="#231F20"/>
<path d="M162.314 172.902C161.755 173.026 161.197 173.15 160.638 173.212C160.452 173.212 160.328 173.399 160.39 173.523C160.39 173.709 160.576 173.833 160.762 173.833H160.824C161.383 173.771 162.004 173.647 162.562 173.461C162.686 173.461 162.748 173.337 162.81 173.212C162.872 173.088 162.81 172.964 162.748 172.902C162.562 172.902 162.438 172.84 162.314 172.902Z" fill="#231F20"/>
<path d="M166.72 173.15C168.644 173.212 170.63 173.336 172.492 173.584L172.864 173.646C173.671 173.708 174.54 173.833 175.346 174.019C176.215 174.205 176.898 174.577 177.394 175.136C177.953 175.757 178.387 176.563 178.76 177.37C178.822 177.494 178.946 177.556 179.008 177.556C179.07 177.556 179.132 177.556 179.132 177.494C179.318 177.432 179.38 177.246 179.318 177.06C178.636 175.57 177.767 174.081 176.091 173.522C175.346 173.274 174.478 173.15 173.671 173.026L173.298 172.964C172.305 172.84 171.25 172.716 170.257 172.653C169.14 172.591 167.899 172.467 166.72 172.467C166.534 172.467 166.41 172.591 166.41 172.778C166.41 172.964 166.534 173.15 166.72 173.15Z" fill="#231F20"/>
<path d="M179.07 178.612L178.698 179.356C178.574 179.542 178.698 179.729 178.822 179.791C178.884 179.791 178.946 179.853 179.008 179.853C179.132 179.853 179.194 179.791 179.256 179.667L179.629 178.922C179.753 178.736 179.629 178.549 179.505 178.487C179.318 178.363 179.132 178.425 179.07 178.612Z" fill="#231F20"/>
<path d="M167.03 196.175C166.348 196.795 165.293 196.795 164.61 196.175C164.424 196.051 164.238 196.051 164.114 196.175C163.989 196.299 163.989 196.485 164.114 196.609C164.61 197.043 165.231 197.292 165.789 197.292C166.41 197.292 166.968 197.043 167.465 196.609C167.589 196.485 167.589 196.299 167.465 196.175C167.403 196.051 167.217 196.051 167.03 196.175Z" fill="#231F20"/>
<path d="M170.754 193.879C170.754 193.817 170.692 193.692 170.63 193.692C170.568 193.63 170.506 193.568 170.444 193.568C170.382 193.568 170.258 193.568 170.196 193.692C169.761 194.127 169.265 194.561 168.768 194.996C168.644 195.12 168.644 195.306 168.768 195.43C168.83 195.492 168.954 195.554 169.016 195.554C169.078 195.554 169.14 195.554 169.265 195.492C169.761 195.058 170.196 194.623 170.692 194.189C170.692 194.065 170.754 194.003 170.754 193.879Z" fill="#231F20"/>
<path d="M171.251 191.706C171.126 191.706 171.002 191.706 170.94 191.768C170.506 192.203 170.071 192.637 169.699 193.071C169.575 193.258 169.637 193.444 169.761 193.568C169.823 193.63 169.885 193.63 169.947 193.63C170.009 193.63 170.133 193.568 170.195 193.506C170.568 193.071 171.002 192.637 171.437 192.203C171.499 192.14 171.561 192.016 171.499 191.892C171.499 191.83 171.375 191.768 171.251 191.706Z" fill="#231F20"/>
<path d="M150.646 173.585C150.522 173.647 150.46 173.709 150.46 173.833C150.46 173.957 150.522 174.081 150.646 174.143C150.708 174.205 150.771 174.205 150.833 174.205C150.895 174.205 150.957 174.205 150.957 174.143C154.929 172.157 159.149 170.668 163.555 169.737C164.796 169.489 166.037 169.24 167.279 169.054C167.403 169.054 167.465 168.992 167.527 168.868C167.589 168.744 167.527 168.62 167.465 168.496C167.403 168.372 167.279 168.372 167.155 168.372C162.686 168.992 158.28 170.171 154.122 171.909C152.943 172.468 151.763 172.964 150.646 173.585Z" fill="#231F20"/>
<path d="M160.39 168.806C160.39 168.93 160.39 169.054 160.514 169.116C160.576 169.178 160.638 169.178 160.7 169.178C160.7 169.178 160.762 169.178 160.824 169.178C163.183 168.496 165.603 168.061 168.023 167.751C168.272 167.751 168.334 167.503 168.334 167.379C168.334 167.192 168.147 167.068 168.023 167.13C165.541 167.441 163.059 167.875 160.7 168.558C160.514 168.62 160.452 168.682 160.39 168.806Z" fill="#231F20"/>
<path d="M165.789 166.944H165.851L166.844 166.758C167.03 166.696 167.154 166.572 167.092 166.385C167.03 166.199 166.906 166.075 166.658 166.137L165.665 166.323C165.479 166.385 165.355 166.51 165.417 166.696C165.541 166.82 165.665 166.944 165.789 166.944Z" fill="#231F20"/>
<path d="M185.773 177.184C185.649 177.06 185.463 177.122 185.338 177.246C185.214 177.37 185.214 177.618 185.401 177.742C186.207 178.301 187.014 178.86 187.573 179.666C188.131 180.473 188.379 181.466 188.628 182.459C188.628 182.583 188.752 182.645 188.876 182.707H188.938C189 182.707 189.124 182.645 189.186 182.583C189.248 182.521 189.31 182.397 189.248 182.273C189 181.28 188.69 180.101 188.007 179.232C187.449 178.363 186.518 177.68 185.773 177.184Z" fill="#231F20"/>
<path d="M189.807 181.156H189.869C190.055 181.094 190.179 180.97 190.117 180.784C190.055 180.411 189.931 180.101 189.683 179.791C189.558 179.604 189.31 179.604 189.186 179.729C189.062 179.853 189 180.039 189.124 180.163C189.31 180.411 189.372 180.66 189.434 180.908C189.558 181.094 189.683 181.156 189.807 181.156Z" fill="#231F20"/>
<path d="M180.249 199.588C180.311 199.464 180.311 199.34 180.249 199.216C180.187 199.154 180.063 199.092 180.001 199.092C177.953 199.34 175.905 199.092 173.981 198.409C173.795 198.347 173.671 198.409 173.609 198.595C173.547 198.781 173.609 198.968 173.795 199.03C175.284 199.526 176.898 199.774 178.449 199.774C179.008 199.774 179.505 199.774 180.063 199.712C180.063 199.774 180.187 199.712 180.249 199.588Z" fill="#231F20"/>
<path d="M178.139 200.022C178.015 200.022 177.953 200.022 177.891 200.147C177.829 200.271 177.829 200.395 177.891 200.519C177.953 200.643 178.015 200.705 178.139 200.705C178.574 200.767 179.008 200.767 179.38 200.829C179.567 200.829 179.691 200.705 179.691 200.519C179.691 200.333 179.567 200.147 179.38 200.147C178.946 200.085 178.512 200.085 178.139 200.022Z" fill="#231F20"/>
<path d="M68.5397 128.032C66.6779 127.101 64.4437 126.666 62.0233 126.79C59.8512 126.914 57.617 127.535 55.569 128.466C53.4589 129.459 51.6592 130.886 50.2938 132.562C48.8044 134.424 47.8735 136.534 47.5632 138.768C47.3149 140.568 47.377 143.05 48.9285 144.788C49.1767 145.098 49.4871 145.347 49.8594 145.595C49.5491 145.595 49.1767 145.595 49.0526 145.967C48.9285 146.215 48.9906 146.526 49.2388 146.774C49.3009 146.836 49.425 146.96 49.4871 147.022C49.6112 147.146 49.7974 147.27 49.8594 147.457C49.9215 147.643 49.8594 147.891 49.6112 148.077C49.5491 148.139 49.4871 148.139 49.4871 148.201C49.3629 148.325 49.1767 148.45 49.0526 148.574C48.9285 148.76 48.8664 149.008 48.9285 149.256C48.9906 149.567 49.2388 149.877 49.5491 150.001C49.9215 150.187 50.2938 150.187 50.6662 150.249C50.9765 150.311 51.2868 150.311 51.5351 150.435C51.7212 150.498 51.8454 150.56 51.9695 150.684C52.0315 150.746 52.0315 150.746 52.0936 150.808C52.1557 150.87 52.2177 150.932 52.2798 150.994C52.4039 151.118 52.5901 151.118 52.7142 151.118C52.9004 151.118 53.0866 151.056 53.2107 150.994C53.521 150.87 53.7693 150.622 54.0175 150.435C54.2037 150.311 54.3899 150.125 54.6381 150.001C54.8863 149.877 55.1346 149.753 55.3828 149.815C55.507 149.815 55.6311 149.877 55.7552 149.877C56.0034 149.939 56.1896 150.001 56.4379 149.939C57.1205 149.815 57.4308 148.946 57.617 148.512C57.7411 148.263 57.8032 148.015 57.8653 147.767C60.5339 148.139 62.8301 148.139 65.0023 147.643C67.3606 147.084 69.4086 146.029 70.8981 144.478C72.3875 142.926 73.4426 140.878 73.8149 138.768C74.1873 136.658 73.877 134.486 72.884 132.5C72.0152 130.638 70.4016 129.024 68.5397 128.032ZM73.4426 138.582C73.4426 138.52 73.4426 138.52 73.3805 138.458C73.3184 138.458 73.2564 138.458 73.2564 138.458C73.1943 138.458 73.1943 138.52 73.1943 138.582C73.1322 139.451 73.0081 140.32 72.7599 141.188C72.6358 141.499 72.5116 141.747 72.3255 142.057C72.4496 141.437 72.5737 140.816 72.5737 140.195C72.5737 140.133 72.5116 140.071 72.4496 140.071C72.3875 140.071 72.3875 140.071 72.3875 140.071C72.3875 140.071 72.3255 140.133 72.3255 140.195C72.3255 141.126 72.1393 142.057 71.829 142.926C71.7669 142.988 71.7048 143.112 71.6428 143.174C71.5807 143.236 71.5807 143.298 71.5187 143.361C71.5807 143.05 71.6428 142.74 71.7048 142.368C71.7048 142.306 71.7048 142.306 71.6428 142.243C71.5807 142.243 71.5807 142.181 71.5187 142.243C71.4566 142.243 71.4566 142.306 71.4566 142.368C71.3945 142.864 71.2704 143.298 71.1463 143.795V143.857C70.4016 144.726 69.4707 145.471 68.4777 146.029C68.6639 145.657 68.7259 145.347 68.788 144.974C68.788 144.912 68.7259 144.85 68.6639 144.788C68.6018 144.788 68.5397 144.788 68.5397 144.912C68.4777 145.409 68.2915 145.843 68.0433 146.277C67.795 146.402 67.6088 146.526 67.3606 146.588C67.795 145.781 68.1053 144.912 68.2294 144.043C68.2294 143.981 68.2294 143.919 68.1674 143.919C68.1053 143.919 68.1053 143.857 68.0433 143.919C67.9812 143.919 67.9812 143.981 67.9812 143.981C67.8571 144.974 67.4847 145.905 66.9882 146.774C66.8641 146.836 66.74 146.898 66.6159 146.898C66.4917 146.96 66.3676 146.96 66.2435 147.022C66.74 146.402 67.1123 145.657 67.2985 144.912C67.2985 144.85 67.2985 144.788 67.2365 144.726C67.1744 144.726 67.1123 144.726 67.0503 144.788C66.802 145.657 66.3676 146.464 65.747 147.146C65.3746 147.27 65.0023 147.332 64.6299 147.395C65.0023 146.96 65.3126 146.526 65.6229 146.091C65.9952 145.471 66.2435 144.726 66.3676 143.981C66.6779 142.554 66.6159 141.002 66.2435 139.078C66.0573 138.085 65.8091 137.092 65.4367 136.099C65.3746 135.975 65.2505 135.913 65.1885 135.975C65.1264 135.975 65.0023 136.099 65.0643 136.224C65.6849 138.023 65.9952 139.699 66.1194 141.313C66.1814 142.988 65.9332 144.416 65.3746 145.657C65.0023 146.339 64.5678 147.022 63.9472 147.581C63.3266 147.643 62.7681 147.705 62.0854 147.767C62.3337 147.581 62.5198 147.27 62.644 147.022C62.8301 146.588 63.0163 146.091 63.1404 145.657L63.2025 145.471C63.5749 144.105 63.7611 142.678 63.6369 141.25C63.5749 139.947 63.2646 138.706 62.8301 137.589C62.3337 136.41 61.5889 135.417 60.7201 134.734C59.8512 134.051 58.7341 133.617 57.4929 133.431C57.0585 133.369 56.562 133.307 56.1276 133.307C55.3828 133.307 54.6381 133.369 53.9554 133.555C52.9004 133.803 51.9074 134.424 51.0386 135.231C50.2318 135.975 49.6112 136.906 49.1767 137.961C48.7423 139.016 48.5561 140.133 48.5561 141.313C48.5561 142.492 48.8044 143.609 49.2388 144.602C48.9285 144.229 48.6803 143.857 48.4941 143.361C48.1217 142.554 47.9355 141.623 47.9976 140.444C47.9976 138.272 48.6803 136.161 49.8594 134.176C50.2938 133.431 50.8524 132.748 51.473 132.128C51.473 132.128 51.473 132.128 51.5351 132.128C53.0245 131.321 54.7002 130.886 56.3758 130.824C57.9894 130.824 59.603 131.197 61.0924 131.879C61.8992 132.314 62.644 132.81 63.3266 133.369C63.4508 133.431 63.5749 133.431 63.6369 133.369C63.699 133.307 63.699 133.183 63.6369 133.121C62.3957 132.003 60.8442 131.197 59.2306 130.762C57.555 130.328 55.7552 130.266 54.0796 130.7C53.521 130.824 52.9625 131.01 52.466 131.197C53.0866 130.638 53.7693 130.142 54.514 129.707C56.3137 128.59 58.4238 127.845 60.5959 127.535C62.8922 127.163 65.0643 127.349 66.9882 127.969C69.0362 128.652 70.7739 129.893 71.9531 131.631C73.1322 133.369 73.7529 135.417 73.7529 137.465C73.7529 138.147 73.6287 138.83 73.5046 139.513C73.3805 139.14 73.4426 138.83 73.4426 138.582ZM58.2997 146.526C58.4238 145.843 58.61 145.16 58.8582 144.478C58.9203 144.354 58.9824 144.229 58.9824 144.105C59.2306 143.609 59.4168 143.05 59.4789 142.43C59.5409 141.809 59.4168 141.188 59.1065 140.568C58.5479 139.451 57.4308 138.644 56.0655 138.458C54.7622 138.272 53.3969 138.83 52.466 139.761C52.2798 140.009 52.0936 140.258 51.9695 140.568C51.8454 140.94 51.5351 141.188 51.2248 141.437C50.9765 141.623 50.7903 141.809 50.6041 141.995C50.2318 142.492 50.1077 143.112 50.2318 143.733C50.2938 143.919 50.3559 144.043 50.418 144.229C50.48 144.354 50.5421 144.54 50.6041 144.726C50.6662 144.974 50.6662 145.284 50.418 145.409C50.418 145.347 50.3559 145.347 50.3559 145.347C50.1697 145.222 49.9215 145.098 49.7974 144.912C49.3009 144.043 48.9906 142.988 48.8664 141.933C48.7423 140.754 48.8044 139.575 49.1767 138.52C49.4871 137.527 49.9835 136.596 50.6662 135.727C51.4109 134.858 52.2798 134.176 53.2107 133.803C54.1416 133.431 55.3208 133.245 56.562 133.307C57.7411 133.369 58.9203 133.679 59.7892 134.176C60.7201 134.734 61.5269 135.541 62.1475 136.596C62.706 137.527 63.0784 138.644 63.2025 139.885C63.3887 141.25 63.3887 142.616 63.1404 143.981C63.0163 144.54 62.8922 145.16 62.644 145.843C62.5198 146.277 62.3337 146.774 62.0233 147.146C61.8992 147.27 61.7751 147.395 61.5889 147.519C61.0304 147.519 60.4098 147.519 59.8512 147.457C59.2927 147.395 58.6721 147.332 58.1135 147.27C58.1756 147.084 58.2376 146.836 58.2997 146.526ZM50.9765 146.526L51.2248 146.588C51.2248 146.588 51.2248 146.588 51.2248 146.65C51.2248 146.65 51.2248 146.65 51.1627 146.65L50.9765 146.526ZM50.0456 148.387C50.0456 148.45 50.0456 148.45 50.0456 148.387C49.7974 148.636 49.8594 148.946 49.9835 149.194C50.1077 149.38 50.418 149.505 50.7283 149.567C50.7283 149.567 50.7903 149.629 50.7283 149.629C50.418 149.629 50.0456 149.505 49.8594 149.194C49.7353 148.884 49.7974 148.574 50.0456 148.387ZM50.9145 143.919L51.1006 144.291C51.1006 144.291 51.1006 144.291 51.0386 144.291L50.9145 143.919ZM50.7903 143.547C50.6041 143.05 50.7283 142.554 51.1006 142.181C50.7903 142.554 50.6662 143.05 50.7903 143.547ZM51.473 149.691C51.473 149.753 51.473 149.753 51.473 149.691V149.691ZM51.9074 146.898C52.4039 147.146 52.9004 147.332 53.3969 147.457C53.3969 147.457 53.3969 147.519 53.3348 147.519C52.9004 147.395 52.4039 147.208 51.9074 146.898ZM55.1346 147.829C55.1967 147.829 55.1967 147.829 55.1346 147.829C55.569 147.953 56.0034 148.015 56.4379 147.953C56.4379 147.953 56.4379 147.953 56.4379 148.015C56.0034 148.015 55.569 147.953 55.1346 147.829Z" fill="#231F20"/>
<path d="M64.3195 134.051C64.2575 133.989 64.1954 133.927 64.1334 133.927C64.0713 133.927 64.0092 133.989 63.9472 134.051C63.8851 134.113 63.8851 134.175 63.9472 134.238L64.3816 134.982C64.4437 135.044 64.4437 135.044 64.5057 135.106C64.5057 135.106 64.5057 135.106 64.5678 135.106C64.6299 135.106 64.6299 135.106 64.6919 135.106C64.754 135.044 64.8781 134.92 64.754 134.796L64.3195 134.051Z" fill="#231F20"/>
<path d="M67.6087 141.995C67.5467 141.995 67.4846 141.995 67.4846 141.995C67.4226 141.995 67.4226 142.057 67.4226 142.119C67.4226 142.802 67.3605 143.485 67.1743 144.105C67.1743 144.167 67.1743 144.167 67.1743 144.229C67.1743 144.229 67.2364 144.291 67.2984 144.291C67.2984 144.291 67.2984 144.291 67.3605 144.291C67.4226 144.291 67.4226 144.229 67.4226 144.229C67.6087 143.547 67.7329 142.864 67.6708 142.181C67.6708 142.057 67.6708 141.995 67.6087 141.995Z" fill="#231F20"/>
<path d="M71.5187 140.94C71.4566 140.94 71.3945 141.002 71.3945 141.064V141.561C71.3945 141.623 71.3945 141.623 71.4566 141.685H71.5187H71.5807C71.6428 141.685 71.6428 141.623 71.6428 141.561V141.064C71.6428 140.94 71.5807 140.94 71.5187 140.94Z" fill="#231F20"/>
<path d="M72.4496 138.768C72.3875 138.768 72.3254 138.83 72.3254 138.892V139.14C72.3254 139.202 72.3875 139.265 72.4496 139.265C72.5116 139.265 72.5737 139.202 72.5737 139.14V138.892C72.5116 138.83 72.5116 138.768 72.4496 138.768Z" fill="#231F20"/>
<path d="M49.3628 132.5C49.3628 132.562 49.4249 132.562 49.487 132.562C49.549 132.562 49.549 132.562 49.6111 132.5C50.2938 131.507 51.1005 130.638 51.9694 129.831C52.8383 129.024 53.8312 128.342 54.9483 127.845C55.5689 127.535 56.1895 127.287 56.8101 127.039C56.8722 127.039 56.8722 126.976 56.8722 126.914C56.8722 126.852 56.8722 126.79 56.8101 126.79C56.7481 126.79 56.7481 126.728 56.686 126.79C55.5069 127.163 54.4518 127.721 53.3968 128.404C52.3418 129.087 51.4109 129.893 50.6041 130.762C50.1696 131.259 49.7352 131.817 49.3008 132.376C49.3628 132.438 49.3628 132.438 49.3628 132.5Z" fill="#231F20"/>
<path d="M51.7834 128.59C51.7213 128.652 51.7213 128.714 51.7834 128.776C51.7834 128.776 51.8454 128.838 51.9075 128.838C51.9075 128.838 51.9695 128.838 51.9695 128.776C53.0246 127.845 54.2658 127.1 55.507 126.542C55.8794 126.356 56.2517 126.232 56.6241 126.107C56.6862 126.107 56.7482 125.983 56.6862 125.921C56.6862 125.859 56.6241 125.797 56.5 125.859C55.1347 126.356 53.8314 127.038 52.6522 127.845C52.404 128.031 52.0937 128.342 51.7834 128.59Z" fill="#231F20"/>
<path d="M55.2587 125.611L54.1417 126.045C54.0796 126.045 54.0796 126.107 54.0796 126.17C54.0796 126.232 54.0796 126.294 54.1417 126.294H54.2037H54.2658L55.3829 125.859C55.4449 125.859 55.4449 125.797 55.4449 125.735C55.4449 125.673 55.4449 125.611 55.3829 125.611C55.3208 125.549 55.3208 125.549 55.2587 125.611Z" fill="#231F20"/>
<path d="M49.7352 130.7C49.7973 130.7 49.7973 130.7 49.8593 130.638L50.0455 130.39V130.328C50.0455 130.265 50.0455 130.265 49.9834 130.265C49.9214 130.203 49.8593 130.265 49.7973 130.328L49.6111 130.576V130.638C49.6111 130.7 49.6111 130.7 49.6731 130.7C49.6731 130.638 49.7352 130.7 49.7352 130.7Z" fill="#231F20"/>
<path d="M46.5703 139.45C46.5703 139.078 46.6323 138.706 46.6944 138.333C46.6944 138.271 46.6944 138.209 46.6323 138.209C46.5703 138.147 46.5703 138.147 46.5082 138.209C46.4462 138.209 46.4462 138.271 46.4462 138.271C46.1979 139.637 46.1979 141.002 46.5082 142.367C46.5703 142.74 46.6944 143.112 46.8185 143.484C46.8185 143.546 46.8806 143.546 46.9426 143.546H47.0047C47.0668 143.546 47.1288 143.484 47.0668 143.36C46.6323 142.119 46.4462 140.816 46.5703 139.45Z" fill="#231F20"/>
<path d="M45.8254 141.188C45.8254 141.126 45.7633 141.126 45.7633 141.126C45.7013 141.126 45.6392 141.126 45.6392 141.126C45.5771 141.126 45.5771 141.188 45.5771 141.25C45.7013 142.181 46.0116 143.05 46.3839 143.919C46.3839 143.981 46.446 143.981 46.5081 143.981H46.5701C46.6322 143.981 46.6942 143.857 46.6322 143.795C46.1978 142.988 45.9495 142.119 45.8254 141.188Z" fill="#231F20"/>
<path d="M45.8255 143.236C45.8255 143.174 45.7013 143.112 45.6393 143.174C45.5772 143.174 45.5152 143.236 45.5772 143.36L45.7634 143.919C45.7634 143.981 45.8255 143.981 45.8875 143.981C45.9496 143.981 45.9496 143.981 46.0116 143.919C46.0116 143.857 46.0737 143.857 46.0116 143.795L45.8255 143.236Z" fill="#231F20"/>
<path d="M71.3326 128.776C71.2705 128.714 71.2085 128.776 71.1464 128.776C71.0843 128.838 71.0843 128.9 71.1464 128.962C72.1394 129.645 72.8841 130.638 73.3806 131.755C73.5047 132.065 73.6288 132.376 73.6909 132.748C73.6909 132.81 73.753 132.872 73.815 132.872C73.815 132.872 73.815 132.872 73.8771 132.872C73.9391 132.872 74.0012 132.81 74.0012 132.686C73.6909 131.445 73.0703 130.328 72.1394 129.459C71.8911 129.211 71.6429 128.962 71.3326 128.776Z" fill="#231F20"/>
<path d="M74.4356 132.5C74.5598 132.438 74.5598 132.375 74.5598 132.313L73.9392 130.638C73.9392 130.576 73.8771 130.576 73.815 130.576C73.753 130.576 73.6909 130.576 73.6909 130.638C73.6909 130.7 73.6289 130.7 73.6909 130.762L74.3115 132.438C74.3115 132.438 74.3736 132.5 74.4356 132.5Z" fill="#231F20"/>
<path d="M74.8699 131.631C74.8078 131.631 74.8078 131.631 74.7457 131.631C74.6837 131.631 74.6216 131.693 74.6837 131.755L74.7457 132.003C74.7457 132.065 74.7457 132.065 74.8078 132.065H74.8699C74.8699 132.065 74.8698 132.065 74.9319 132.065C74.994 132.065 75.056 132.003 74.994 131.941L74.9319 131.693C74.9319 131.631 74.9319 131.631 74.8699 131.631Z" fill="#231F20"/>
</svg>
