<svg width="430" height="398" viewBox="0 0 430 398" fill="none" xmlns="http://www.w3.org/2000/svg">
<rect x="-5.96289" width="445.963" height="210" fill="#F0D060"/>
<g clip-path="url(#clip0_471_1695)">
<path d="M440 233L429.397 230.5C418.897 228 397.691 223 376.38 224C355.07 225 333.656 232 312.345 236.3C291.035 240.7 269.828 242.3 248.518 240C227.207 237.7 205.793 231.3 184.482 230.3C163.172 229.3 141.965 233.7 120.655 234.7C99.3444 235.7 77.93 233.3 56.6195 234C35.3091 234.7 14.1025 238.3 3.60324 240.2L-7.00003 242L-7.00002 144L3.60325 144C14.1025 144 35.3091 144 56.6195 144C77.93 144 99.3444 144 120.655 144C141.965 144 163.172 144 184.482 144C205.793 144 227.207 144 248.518 144C269.828 144 291.035 144 312.345 144C333.656 144 355.07 144 376.38 144C397.691 144 418.897 144 429.397 144L440 144L440 233Z" fill="#FCF6DF"/>
<path d="M440 204L429.397 206.8C418.897 209.7 397.691 215.3 376.38 217.7C355.07 220 333.656 219 312.345 219.3C291.035 219.7 269.828 221.3 248.518 221.5C227.207 221.7 205.793 220.3 184.482 218C163.172 215.7 141.965 212.3 120.655 209.5C99.3444 206.7 77.93 204.3 56.6195 204.5C35.3091 204.7 14.1025 207.3 3.60324 208.7L-7.00003 210L-7.00002 144L3.60325 144C14.1025 144 35.3091 144 56.6195 144C77.93 144 99.3444 144 120.655 144C141.965 144 163.172 144 184.482 144C205.793 144 227.207 144 248.518 144C269.828 144 291.035 144 312.345 144C333.656 144 355.07 144 376.38 144C397.691 144 418.897 144 429.397 144L440 144L440 204Z" fill="#F9ECBF"/>
<path d="M440 203L429.397 203.3C418.897 203.7 397.691 204.3 376.38 201.3C355.07 198.3 333.656 191.7 312.345 191.3C291.035 191 269.828 197 248.518 200C227.207 203 205.793 203 184.482 199.8C163.172 196.7 141.965 190.3 120.655 189.3C99.3444 188.3 77.93 192.7 56.6195 195C35.3091 197.3 14.1025 197.7 3.60324 197.8L-7.00003 198L-7.00003 144L3.60325 144C14.1025 144 35.3091 144 56.6195 144C77.93 144 99.3444 144 120.655 144C141.965 144 163.172 144 184.482 144C205.793 144 227.207 144 248.518 144C269.828 144 291.035 144 312.345 144C333.656 144 355.07 144 376.38 144C397.691 144 418.897 144 429.397 144L440 144L440 203Z" fill="#F6E3A0"/>
<path d="M440 186L429.397 186.3C418.897 186.7 397.691 187.3 376.38 186.2C355.07 185 333.656 182 312.345 179.5C291.035 177 269.828 175 248.518 177C227.207 179 205.793 185 184.482 187.8C163.172 190.7 141.965 190.3 120.655 190.5C99.3444 190.7 77.93 191.3 56.6195 188.5C35.3091 185.7 14.1025 179.3 3.60324 176.2L-7.00003 173L-7.00003 144L3.60325 144C14.1025 144 35.3091 144 56.6195 144C77.93 144 99.3444 144 120.655 144C141.965 144 163.172 144 184.482 144C205.793 144 227.207 144 248.518 144C269.828 144 291.035 144 312.345 144C333.656 144 355.07 144 376.38 144C397.691 144 418.897 144 429.397 144L440 144L440 186Z" fill="#F3D980"/>
<path d="M440 164L429.397 165C418.897 166 397.691 168 376.38 170.2C355.07 172.3 333.656 174.7 312.345 174.5C291.035 174.3 269.828 171.7 248.518 169.3C227.207 167 205.793 165 184.482 163C163.172 161 141.965 159 120.655 160.5C99.3444 162 77.93 167 56.6195 169.8C35.3091 172.7 14.1025 173.3 3.60324 173.7L-7.00003 174L-7.00003 144L3.60324 144C14.1025 144 35.3091 144 56.6195 144C77.93 144 99.3444 144 120.655 144C141.965 144 163.172 144 184.482 144C205.793 144 227.207 144 248.518 144C269.828 144 291.035 144 312.345 144C333.656 144 355.07 144 376.38 144C397.691 144 418.897 144 429.397 144L440 144L440 164Z" fill="#F0D060"/>
</g>
<defs>
<clipPath id="clip0_471_1695">
<rect width="447" height="253" fill="white" transform="translate(440 398) rotate(-180)"/>
</clipPath>
</defs>
</svg>
