<svg width="31" height="30" viewBox="0 0 31 30" fill="none" xmlns="http://www.w3.org/2000/svg">
<g clip-path="url(#clip0_682_1535)">
<path d="M5.89734 23.75C5.89734 24.413 6.16134 25.0489 6.63128 25.5178C7.10121 25.9866 7.73858 26.25 8.40317 26.25C9.06775 26.25 9.70512 25.9866 10.1751 25.5178C10.645 25.0489 10.909 24.413 10.909 23.75C10.909 23.087 10.645 22.4511 10.1751 21.9822C9.70512 21.5134 9.06775 21.25 8.40317 21.25C7.73858 21.25 7.10121 21.5134 6.63128 21.9822C6.16134 22.4511 5.89734 23.087 5.89734 23.75Z" stroke="#F8F9FA" stroke-linecap="round" stroke-linejoin="round"/>
<path d="M19.6794 23.75C19.6794 24.413 19.9434 25.0489 20.4134 25.5178C20.8833 25.9866 21.5207 26.25 22.1853 26.25C22.8499 26.25 23.4872 25.9866 23.9572 25.5178C24.4271 25.0489 24.6911 24.413 24.6911 23.75C24.6911 23.087 24.4271 22.4511 23.9572 21.9822C23.4872 21.5134 22.8499 21.25 22.1853 21.25C21.5207 21.25 20.8833 21.5134 20.4134 21.9822C19.9434 22.4511 19.6794 23.087 19.6794 23.75Z" stroke="#F8F9FA" stroke-linecap="round" stroke-linejoin="round"/>
<path d="M22.1852 21.25H8.40317V3.75H5.89734" stroke="#F8F9FA" stroke-linecap="round" stroke-linejoin="round"/>
<path d="M8.4032 6.25L25.944 7.5L24.6911 16.25H8.4032" stroke="#F8F9FA" stroke-linecap="round" stroke-linejoin="round"/>
</g>
<defs>
<clipPath id="clip0_682_1535">
<rect width="30.0699" height="30" fill="white" transform="translate(0.885742)"/>
</clipPath>
</defs>
</svg>
