<svg width="319" height="347" viewBox="0 0 319 347" fill="none" xmlns="http://www.w3.org/2000/svg">
<path d="M261.393 44.4199C281.758 69.9171 285.424 106.982 295.688 154.31C305.952 201.639 322.814 259.232 302.449 297.518C282.084 335.805 224.492 354.785 178.955 342.729C133.5 330.591 100.101 287.417 66.295 249.13C32.4888 210.844 -1.72466 177.445 0.067473 145.838C1.94107 114.313 39.7388 84.4985 73.545 59.0014C107.351 33.5042 137.166 12.1615 170.565 8.57723C203.963 4.9115 241.028 18.9227 261.393 44.4199Z" fill="#5F6EF0"/>
<mask id="mask0_741_5261" style="mask-type:luminance" maskUnits="userSpaceOnUse" x="1" y="0" width="318" height="336">
<path d="M318.456 0H1V335.156H318.456V0Z" fill="white"/>
</mask>
<g mask="url(#mask0_741_5261)">
<path d="M277.282 72.5074C287.462 71.0705 296.121 62.211 297.33 51.9961C296.467 60.7919 304.855 69.1028 313.031 72.4488C308.844 72.6855 302.201 76.3103 300.054 79.9146C297.908 83.519 297.108 87.7635 296.713 91.9394C296.489 81.5857 287.246 72.249 277.281 72.5074H277.282Z" stroke="#F8F9FA" stroke-width="1.5" stroke-linecap="round" stroke-linejoin="round"/>
<path d="M1.9541 186.704C8.2187 185.819 13.5484 180.367 14.2925 174.081C13.7608 179.494 18.9239 184.609 23.9559 186.668C21.3801 186.815 17.2906 189.045 15.9703 191.263C14.6499 193.481 14.1577 196.093 13.9147 198.664C13.7761 192.293 8.08641 186.546 1.9541 186.704Z" stroke="#F8F9FA" stroke-width="1.5" stroke-linecap="round" stroke-linejoin="round"/>
<path d="M163.184 7.9917C165.415 14.0486 167.936 19.9986 170.734 25.815" stroke="#F8F9FA" stroke-width="1.5" stroke-linecap="round" stroke-linejoin="round"/>
<path d="M208.283 20.0264C211.619 14.6377 216.892 6.34204 220.227 0.95459" stroke="#F8F9FA" stroke-width="1.5" stroke-linecap="round" stroke-linejoin="round"/>
<path d="M85.5448 116.025C82.5059 108.435 79.4302 100.047 82.02 92.2921C83.2259 88.6813 85.5791 85.5644 88.1587 82.7644C100.346 69.5357 152.466 49.8479 172.724 42.4292C183.369 38.5308 194.171 41.5993 202.029 54.3979C217.515 79.6195 255.259 174.34 275.168 233.228C276.602 237.466 278.037 242.025 276.832 246.333C275.688 250.422 272.361 253.512 268.915 255.989C263.416 259.941 257.279 262.901 251.122 265.722C226.213 277.133 212.651 281.885 186.272 289.281C181.412 290.644 176.257 291.94 171.381 290.639C163.681 288.585 159.115 280.876 155.407 273.819C132.805 230.79 84.8057 115.121 85.5448 116.025Z" fill="#212529" stroke="#212529" stroke-width="1.5" stroke-linecap="round" stroke-linejoin="round"/>
<path d="M95.9576 120.286C93.2495 113.522 89.567 104.635 91.8757 97.7265C92.9505 94.5091 95.0468 91.732 97.3453 89.2374C108.204 77.4494 153.312 60.4216 171.362 53.811C177.079 51.7174 184.793 48.6412 194.975 62.1118C209.518 81.3516 238.641 159.241 256.128 210.961C257.405 214.737 258.683 218.799 257.61 222.638C256.591 226.282 253.626 229.035 250.555 231.242C245.655 234.764 240.186 237.401 234.701 239.914C212.506 250.082 201.756 253.802 178.251 260.393C173.92 261.607 169.328 262.762 164.981 261.603C158.12 259.773 154.052 252.904 150.749 246.615C130.611 208.276 95.2987 119.48 95.9576 120.286Z" fill="#F8F9FA" stroke="#212529" stroke-width="1.5" stroke-linecap="round" stroke-linejoin="round"/>
<path d="M132.312 110.596C126.509 116.403 123.491 124.566 122.166 132.669C119.863 146.744 123.833 162.146 134.109 172.032C138.587 176.342 144.095 179.508 149.941 181.617C163.753 186.6 179.619 185.542 192.655 178.784C207.743 170.962 209.026 159.804 210.025 155.025C212.672 142.357 211.778 126.868 203.014 115.914C192.005 102.154 162.033 80.8579 132.311 110.595L132.312 110.596Z" fill="#55D087" stroke="#212529" stroke-width="1.5" stroke-linecap="round" stroke-linejoin="round"/>
<path d="M222.303 45.9721C230.014 45.2849 237.695 44.2769 245.322 42.9507" stroke="#F8F9FA" stroke-width="1.5" stroke-linecap="round" stroke-linejoin="round"/>
<path d="M182.244 112.057C180.712 131.092 178.258 150.052 174.894 168.849C164.382 166.65 153.872 164.45 144.123 162.019C144.629 157.9 146.264 155.243 147.419 150.788C152.999 151.803 157.937 152.363 164.535 154.043C167 139.847 169.465 125.653 171.93 111.457C175.386 111.734 178.844 112.011 182.244 112.057Z" fill="#F8F9FA" stroke="#212529" stroke-width="1.5" stroke-linecap="round" stroke-linejoin="round"/>
<path d="M38.804 302.671C60.5094 255.247 82.5061 207.336 114.587 166.222C117.392 162.628 121.827 158.699 125.897 160.752C129.994 162.819 129.43 168.794 128.035 173.167C124.116 185.452 124.505 187.312 119.352 198.19C124.488 208.858 128.521 220.579 134.844 230.169C136.875 234.767 138.905 239.367 140.312 243.784C137.347 254.997 134.134 266.153 130.277 277.09C123.373 296.669 114.437 315.457 105.519 334.202" fill="#F8F9FA"/>
<path d="M38.804 302.671C60.5094 255.247 82.5061 207.336 114.587 166.222C117.392 162.628 121.827 158.699 125.897 160.752C129.994 162.819 129.43 168.794 128.035 173.167C124.116 185.452 124.505 187.312 119.352 198.19C124.488 208.858 128.521 220.579 134.844 230.169C136.875 234.767 138.905 239.367 140.312 243.784C137.347 254.997 134.134 266.153 130.277 277.09C123.373 296.669 114.437 315.457 105.519 334.202" stroke="#212529" stroke-width="1.5" stroke-linecap="round" stroke-linejoin="round"/>
<path d="M119.458 198.805C117.327 202.579 115.195 206.352 113.064 210.126C115.312 210.84 116.994 212.736 118.198 214.764C120.834 219.198 121.69 224.51 121.508 229.668C121.326 234.823 120.166 239.889 119.011 244.917" stroke="#212529" stroke-width="1.5" stroke-linecap="round" stroke-linejoin="round"/>
<path d="M220.629 254.571C218.227 253.844 212.914 255.486 211.587 258.925C210.24 262.416 211.964 266.699 215.185 268.599C216.163 269.177 217.283 269.565 218.418 269.516C222.477 269.345 226.84 267.267 226.504 262.767C226.278 259.735 225.593 256.071 220.629 254.571Z" fill="#F8F9FA" stroke="#212529" stroke-width="1.5" stroke-linecap="round" stroke-linejoin="round"/>
<path d="M265.45 311.76C247.825 295.486 222.958 263.087 204.135 236.74C199.141 229.75 189.058 216.319 195.592 214.647C199.489 213.649 203.218 216.579 206.267 219.32C213.723 226.024 221.178 232.727 228.635 239.43C215.293 215.795 181.723 155.499 191.125 146.89C194.293 143.989 198.693 148.504 200.644 152.418C212.642 176.484 221.843 193.197 233.841 217.263C226.329 204.348 217.531 181.847 223.688 177.802C229.529 173.964 230.736 183.368 233.989 190.01C237.241 196.653 242.025 203.925 246.421 211.959C238.53 199.082 225.921 176.102 234.083 173.445C240.93 171.216 250.825 195.701 258.37 206.273C251.566 198.395 239.536 173.52 245.84 170.139C252.969 166.316 265.025 190.366 270.425 202.201C265.018 193.981 252.046 168.658 261.358 166.66C266.427 165.572 269.602 172.701 272.094 177.335C295.011 219.968 288.73 247.853 317.502 282.332" fill="#F8F9FA"/>
<path d="M265.45 311.76C247.825 295.486 222.958 263.087 204.135 236.74C199.141 229.75 189.058 216.319 195.592 214.647C199.489 213.649 203.218 216.579 206.267 219.32C213.723 226.024 221.178 232.727 228.635 239.43C215.293 215.795 181.723 155.499 191.125 146.89C194.293 143.989 198.693 148.504 200.644 152.418C212.642 176.484 221.843 193.197 233.841 217.263C226.329 204.348 217.531 181.847 223.688 177.802C229.529 173.964 230.736 183.368 233.989 190.01C237.241 196.653 242.025 203.925 246.421 211.959C238.53 199.082 225.921 176.102 234.083 173.445C240.93 171.216 250.825 195.701 258.37 206.273C251.566 198.395 239.536 173.52 245.84 170.139C252.969 166.316 265.025 190.366 270.425 202.201C265.018 193.981 252.046 168.658 261.358 166.66C266.427 165.572 269.602 172.701 272.094 177.335C295.011 219.968 288.73 247.853 317.502 282.332" stroke="#212529" stroke-width="1.5" stroke-linecap="round" stroke-linejoin="round"/>
<path d="M268.735 275.53C266.356 279.892 266.393 285.537 269.9 289.056C273.407 292.575 278.87 293.612 283.745 292.668C286.891 292.058 290.126 290.471 291.446 287.55C292.618 284.955 292.026 281.931 291.264 279.188C290.613 276.841 289.794 274.429 288.061 272.719C285.631 270.32 273.91 266.041 268.735 275.53Z" stroke="#212529" stroke-width="1.5" stroke-linecap="round" stroke-linejoin="round"/>
<path d="M284.528 270.732C288.804 267.997 298.184 262.644 302.459 259.909" stroke="#212529" stroke-width="1.5" stroke-linecap="round" stroke-linejoin="round"/>
<path d="M292.107 281.324C296.166 279.161 304.224 273.344 307.823 270.478" stroke="#212529" stroke-width="1.5" stroke-linecap="round" stroke-linejoin="round"/>
<path d="M250.402 296.055C256.855 290.743 258.661 288.327 267.087 281.973" stroke="#212529" stroke-width="1.5" stroke-linecap="round" stroke-linejoin="round"/>
<path d="M259.183 304.996C264.982 300.365 267.487 297.617 273.286 292.984" stroke="#212529" stroke-width="1.5" stroke-linecap="round" stroke-linejoin="round"/>
<path d="M276.571 274.144L278.867 281.897C280.894 280.612 282.92 279.327 284.946 278.041" stroke="#212529" stroke-width="1.5" stroke-linecap="round" stroke-linejoin="round"/>
</g>
</svg>
