<svg width="322" height="314" viewBox="0 0 322 314" fill="none" xmlns="http://www.w3.org/2000/svg">
<path d="M295.992 13.2662C315.365 34.9964 302.033 87.0753 291.941 128.989C281.776 170.902 274.704 202.724 255.331 236.609C235.958 270.493 204.136 306.44 166.495 312.333C128.78 318.3 85.2458 294.065 56.7387 260.181C28.2315 226.296 14.8988 182.762 23.6645 147.92C32.4303 113.078 63.3682 87.0753 91.8017 65.3451C120.309 43.6149 146.311 26.157 185.426 13.1925C224.467 0.154405 276.546 -8.46402 295.992 13.2662Z" fill="#5F6EF0"/>
<g clip-path="url(#clip0_741_5260)">
<mask id="mask0_741_5260" style="mask-type:luminance" maskUnits="userSpaceOnUse" x="0" y="24" width="322" height="235">
<path d="M321.965 24H0V258.317H321.965V24Z" fill="white"/>
</mask>
<g mask="url(#mask0_741_5260)">
<path d="M217.381 210.513C225.32 195.775 224.618 195.114 232.557 180.378C238.116 170.061 244.29 159.141 255.62 153.419C261.732 150.332 270.175 149.278 275.607 153.341C288.28 162.825 279.768 187.743 267.75 213.576C248.657 213.76 234.47 211.712 217.381 210.513Z" fill="#55D087" stroke="#212529" stroke-width="1.5" stroke-linecap="round" stroke-linejoin="round"/>
<path d="M267.13 158.147C260.61 180.698 255.123 190.556 245.604 212.252" stroke="#212529" stroke-width="1.5" stroke-linecap="round" stroke-linejoin="round"/>
<path d="M263.058 213.497C276.735 191.442 283.599 176.345 302.758 170.539C306.513 169.401 310.849 168.944 314.405 170.576C318.426 172.421 321.591 176.501 321.047 180.397C318.959 195.342 310.579 203.416 305.474 214.119C288.261 213.806 276.076 213.733 263.058 213.497Z" fill="#55D087" stroke="#212529" stroke-width="1.5" stroke-linecap="round" stroke-linejoin="round"/>
<path d="M309.79 172.942C300.348 190.506 298.121 196.22 285.911 212.422" stroke="#212529" stroke-width="1.5" stroke-linecap="round" stroke-linejoin="round"/>
<path d="M120.495 93.3329C119.482 86.4192 118.599 78.8351 122.282 72.9074C123.997 70.147 126.564 68.0251 129.256 66.2116C141.973 57.645 189.048 51.6645 207.298 49.5346C216.889 48.4147 225.228 53.1169 229.199 65.3198C237.024 89.3653 249.505 175.603 254.319 228.508C254.665 232.316 254.951 236.39 253.099 239.731C251.341 242.902 247.972 244.807 244.626 246.179C239.288 248.369 233.617 249.605 227.959 250.723C205.064 255.245 192.888 256.493 169.572 257.386C165.276 257.55 160.75 257.601 156.968 255.548C150.997 252.307 148.745 244.991 147.073 238.387C136.884 198.126 120.063 92.4353 120.495 93.3329Z" fill="#212529" stroke="#212529" stroke-width="1.5" stroke-linecap="round" stroke-linejoin="round"/>
<path d="M128.275 98.9491C127.373 92.7898 126.085 84.6703 129.368 79.3868C130.895 76.9267 133.184 75.0364 135.581 73.4212C146.913 65.7877 187.652 60.62 203.913 58.7217C209.064 58.121 216.063 57.1008 221.826 70.3238C230.056 89.2098 238.736 159.744 242.964 206.21C243.272 209.603 243.527 213.232 241.876 216.211C240.31 219.035 237.308 220.733 234.327 221.956C229.57 223.907 224.517 225.01 219.476 226.005C199.076 230.034 189.434 230.985 168.658 231.78C164.831 231.927 160.798 231.972 157.428 230.143C152.108 227.256 150.1 220.736 148.611 214.852C139.532 178.977 127.89 98.149 128.276 98.9491H128.275Z" fill="#F8F9FA" stroke="#212529" stroke-width="1.5" stroke-linecap="round" stroke-linejoin="round"/>
<path d="M204.912 235.383C203.065 234.304 198.341 234.607 196.559 237.201C194.752 239.834 195.33 243.736 197.621 245.957C198.318 246.632 199.168 247.178 200.118 247.363C203.044 247.936 207.043 246.959 207.975 243.54C208.631 241.142 208.764 237.634 204.912 235.383Z" fill="#F8F9FA" stroke="#212529" stroke-width="1.5" stroke-linecap="round" stroke-linejoin="round"/>
<path d="M206.906 30.3288C200.26 33.6612 195.331 39.8251 191.871 46.4246C185.861 57.8868 184.859 72.2975 190.849 83.7712C193.46 88.7727 197.282 93.0864 201.696 96.585C212.127 104.851 226.054 108.507 239.182 106.437C254.378 104.04 258.674 94.7967 260.902 90.9668C266.804 80.816 270.473 67.2158 266.086 55.2571C260.576 40.2355 240.943 13.2632 206.906 30.3288Z" fill="#3A459E" stroke="#212529" stroke-width="1.5" stroke-linecap="round" stroke-linejoin="round"/>
<path d="M211.66 38.3818C206.531 40.9531 202.726 45.7104 200.057 50.8036C195.42 59.6499 194.646 70.7717 199.268 79.626C201.283 83.4858 204.233 86.8147 207.64 89.5155C215.69 95.8949 226.438 98.7161 236.57 97.1181C248.296 95.269 251.613 88.1353 253.332 85.1789C257.887 77.3448 260.718 66.8489 257.333 57.6197C253.081 46.0268 237.928 25.2115 211.66 38.3818Z" fill="#3A459E" stroke="#212529" stroke-width="1.5" stroke-linecap="round" stroke-linejoin="round"/>
<path d="M232.927 84.7765C231.686 85.2694 230.412 85.6488 229.102 85.8735C228.894 88.1387 228.73 90.405 228.621 92.6748C226.894 92.5567 225.167 92.4398 223.44 92.3217C223.626 90.2503 223.821 88.196 224.032 86.1337C220.224 85.838 216.534 84.4567 213.589 81.9989C213.843 80.4983 214.301 78.3455 214.543 76.8404C217.648 78.1266 219.746 78.8579 223.139 79.6638C226.942 80.5774 232.598 79.8931 231.462 75.5771C230.873 73.289 226.988 72.2756 224.939 71.0983C213.48 64.5768 215.108 56.6166 218.534 52.7477C221.038 49.9254 223.507 48.9361 227.991 48.1463C228.415 45.4478 228.641 40.0176 228.641 40.0176L234.3 40.6607C234.3 40.6607 233.359 45.7367 233.237 48.3056C235.309 48.1211 238.836 48.8272 240.532 50.0297C240.402 51.5429 240.285 53.0607 239.866 54.7515C236.908 54.4947 232.583 53.4642 229.624 53.7267C226.661 54.0018 223.507 56.0583 223.419 59.0423C223.345 61.7706 225.808 63.9085 228.3 65.0032C230.79 66.1117 233.58 66.6574 235.698 68.362C238.355 70.4782 239.473 74.1969 238.838 77.5305C237.954 82.0917 234.416 84.1792 232.926 84.7753L232.927 84.7765Z" fill="#F8F9FA" stroke="#212529" stroke-width="1.5" stroke-linecap="round" stroke-linejoin="round"/>
<path d="M197.626 201.6C160.957 214.675 123.538 225.631 85.6167 234.391C82.4127 235.132 79.1264 233.422 77.9001 230.359C68.8658 207.806 61.55 185.037 55.4081 161.981C54.4957 158.558 56.4095 155.004 59.7539 153.872C98.1872 140.865 136.782 129.225 175.546 118.04C179.268 116.966 183.126 119.273 183.953 123.072C189.449 148.3 195.926 172.951 201.815 193.382C202.801 196.799 200.965 200.409 197.626 201.6Z" fill="#DFE2FC" stroke="#212529" stroke-width="1.5" stroke-linecap="round" stroke-linejoin="round"/>
<path d="M71.1768 99.0645C71.0809 106.523 70.9839 113.982 70.8879 121.44" stroke="#F8F9FA" stroke-width="1.5" stroke-linecap="round" stroke-linejoin="round"/>
<path d="M23.0813 116.747C27.7423 121.675 32.4033 126.604 37.0643 131.533" stroke="#F8F9FA" stroke-width="1.5" stroke-linecap="round" stroke-linejoin="round"/>
<path d="M0.856445 162.344C7.27361 162.662 13.6908 162.98 20.1079 163.299" stroke="#F8F9FA" stroke-width="1.5" stroke-linecap="round" stroke-linejoin="round"/>
<path d="M73.1421 160.808C71.845 161.361 70.3229 162.254 70.4006 163.668C70.4771 165.078 72.1487 165.824 73.5543 165.836C75.2545 165.849 76.8988 165.275 78.4962 164.689C84.1358 162.62 90.4867 161.181 95.9356 158.648C97.2956 158.015 98.8896 156.924 98.5938 155.449C98.3095 154.033 96.5077 153.592 95.0701 153.647C92.5912 153.742 79.2179 158.215 73.1421 160.808Z" fill="#F8F9FA" stroke="#212529" stroke-width="1.5" stroke-linecap="round" stroke-linejoin="round"/>
<path d="M72.9639 178.831C103.907 168.989 149.073 156.08 170.524 149.257C172.873 148.51 175.299 147.432 177.688 148.037C180.077 148.643 181.999 151.558 180.673 153.642C179.947 154.785 178.557 155.274 177.27 155.687C146.411 165.583 110.947 176.025 80.089 185.922C78.4173 186.458 76.6908 187 74.9427 186.843C73.1945 186.686 71.403 185.646 70.9085 183.957C70.3833 182.159 70.9976 179.457 72.9639 178.831Z" fill="#212529" stroke="#212529" stroke-width="1.5" stroke-linecap="round" stroke-linejoin="round"/>
<path d="M162.885 175.975C158.928 176.428 155.267 178.97 153.449 182.528C152.386 184.61 151.941 186.961 151.792 189.296C151.66 191.39 151.764 193.536 152.482 195.506C153.666 198.748 156.469 201.24 159.671 202.501C162.873 203.762 166.467 204.068 169.832 203.359C182.157 200.761 179.593 185.136 175.192 179.958C171.971 176.169 166.678 175.54 162.884 175.974L162.885 175.975Z" fill="#F8F9FA" stroke="#212529" stroke-width="1.5" stroke-linecap="round" stroke-linejoin="round"/>
<path d="M84.041 210.578C91.3933 208.14 98.7468 205.7 106.099 203.262" stroke="#212529" stroke-width="1.5" stroke-linecap="round" stroke-linejoin="round"/>
<path d="M86.4182 215.856C89.918 214.691 93.4177 213.526 96.9186 212.361" stroke="#212529" stroke-width="1.5" stroke-linecap="round" stroke-linejoin="round"/>
<path d="M145.905 181.338C141.947 181.79 138.286 184.333 136.469 187.891C135.406 189.973 134.96 192.324 134.812 194.659C134.679 196.752 134.783 198.898 135.501 200.869C136.686 204.111 139.489 206.603 142.69 207.864C145.892 209.125 149.487 209.431 152.852 208.721C165.177 206.124 162.612 190.499 158.212 185.321C154.99 181.531 149.698 180.903 145.904 181.336L145.905 181.338Z" fill="#FF8B37" stroke="#212529" stroke-width="1.5" stroke-linecap="round" stroke-linejoin="round"/>
</g>
</g>
<defs>
<clipPath id="clip0_741_5260">
<rect width="322" height="235" fill="white" transform="translate(0 24)"/>
</clipPath>
</defs>
</svg>
