<svg width="352" height="284" viewBox="0 0 352 284" fill="none" xmlns="http://www.w3.org/2000/svg">
<path d="M281.559 34.073C319.892 61.1363 354.622 103.073 351.709 142.096C348.795 181.12 308.315 217.306 269.982 243.45C231.649 269.67 195.462 285.923 162.495 282.78C129.529 279.636 99.7055 257.02 67.0455 230.8C34.3088 204.656 -1.34117 174.833 0.0388338 146.39C1.41883 117.87 39.7522 90.8063 72.4122 63.743C105.149 36.603 132.212 9.53966 166.789 2.10299C201.289 -5.25701 243.225 7.00966 281.559 34.073Z" fill="#5F6EF0"/>
<g clip-path="url(#clip0_741_5258)">
<mask id="mask0_741_5258" style="mask-type:luminance" maskUnits="userSpaceOnUse" x="20" y="54" width="330" height="152">
<path d="M349.205 54H20.9399V205.393H349.205V54Z" fill="white"/>
</mask>
<g mask="url(#mask0_741_5258)">
<path d="M261.582 202.605C280.681 202.605 321.159 202.127 321.159 202.127C321.159 202.127 302.576 102.099 289.723 54.75C280.744 99.384 270.99 145.842 261.582 202.605Z" fill="#4D59C7" stroke="#010101" stroke-width="1.5" stroke-linecap="round" stroke-linejoin="round"/>
<path d="M73.2126 204.643L98.0227 56.789L289.723 54.75L264.913 202.604L73.2126 204.643Z" fill="#DFE2FC" stroke="#010101" stroke-width="1.5" stroke-linecap="round" stroke-linejoin="round"/>
<path d="M246.917 181.17C254.263 146.478 257.969 110.281 265.758 75.686H116.049C109.974 109.824 103.77 144.91 97.4377 179.822C146.387 180.737 198.707 181.182 246.917 181.17Z" fill="#F8F9FA" stroke="#010101" stroke-width="1.5" stroke-linecap="round" stroke-linejoin="round"/>
<path d="M153.529 75.686L134.59 180.364" stroke="#010101" stroke-width="1.5" stroke-linecap="round" stroke-linejoin="round"/>
<path d="M228.346 75.686C222.033 110.579 215.72 145.471 209.407 180.364" stroke="#010101" stroke-width="1.5" stroke-linecap="round" stroke-linejoin="round"/>
<path d="M190.962 75.686C184.649 110.579 178.336 145.471 172.023 180.364" stroke="#010101" stroke-width="1.5" stroke-linecap="round" stroke-linejoin="round"/>
<path d="M111.58 100.828L260.01 100.548" stroke="#010101" stroke-width="1.5" stroke-linecap="round" stroke-linejoin="round"/>
<path d="M107.181 128.025L255.589 128.033" stroke="#010101" stroke-width="1.5" stroke-linecap="round" stroke-linejoin="round"/>
<path d="M101.829 155.487L250.32 155.518" stroke="#010101" stroke-width="1.5" stroke-linecap="round" stroke-linejoin="round"/>
<path d="M185.789 119.634C198.498 112.632 211.69 106.508 225.241 101.318C231.067 112.604 237.48 123.588 244.445 134.208C231.129 141.831 217.812 149.453 204.496 157.076C198.211 145.082 192.527 132.775 185.789 119.634Z" fill="#FF8B37" stroke="#010101" stroke-width="1.5" stroke-linecap="round" stroke-linejoin="round"/>
<path d="M60.8809 85.8999L149 84.1079C149 84.1079 151.847 109.874 153.528 122.997C149.732 119.04 145.683 115.325 141.826 111.804C126.392 111.804 109.386 112.419 93.0149 112.695C69.8059 113.086 63.6399 113.213 63.6399 113.213L60.8789 85.8999H60.8809Z" fill="#4D59C7" stroke="#010101" stroke-width="1.5" stroke-linecap="round" stroke-linejoin="round"/>
<path d="M74.3159 105.639C75.4539 101.156 76.7239 96.4348 80.0179 93.1878C80.7829 92.4338 81.6749 91.7618 82.7149 91.4968C85.3199 90.8338 87.8669 92.9098 89.2309 95.2258C90.5949 97.5418 91.3199 100.249 93.0559 102.301C93.9779 103.39 95.2839 104.293 96.7089 104.228C99.5749 104.098 100.855 100.522 103.294 99.0108C105.595 97.5848 108.602 98.2078 111.097 99.2558C113.592 100.304 116.02 101.756 118.723 101.896C122.834 102.11 126.611 99.2418 130.727 99.3338C133.459 99.3948 136.571 100.662 138.68 98.9258" stroke="#010101" stroke-width="1.5" stroke-linecap="round" stroke-linejoin="round"/>
<path d="M92.2039 204.255C83.2399 190.534 72.2959 176.974 56.7679 171.727C51.1449 169.827 44.7489 169.061 39.4179 171.671C38.1779 172.278 36.9809 173.101 36.3099 174.307C35.4769 175.804 35.5829 177.637 35.8619 179.328C37.0569 186.585 50.9899 201.942 52.9149 204.46C69.1309 204.46 72.1759 204.254 92.2039 204.254V204.255Z" fill="#55D087" stroke="#010101" stroke-width="1.5" stroke-linecap="round" stroke-linejoin="round"/>
<path d="M55.7708 204.275C52.5268 198.688 47.5028 194.153 41.6148 191.495C37.3688 189.579 32.5338 188.633 28.0108 189.747C25.6288 190.334 23.2308 191.644 22.2398 193.888C21.6938 195.125 21.6298 196.523 21.7308 197.871C21.8998 200.128 22.5378 202.408 23.9268 204.621C34.5238 204.659 45.1198 204.697 55.7708 204.275Z" fill="#55D087" stroke="#010101" stroke-width="1.5" stroke-linecap="round" stroke-linejoin="round"/>
<path d="M44.6926 173.172C55.3076 183.787 64.5926 193.575 73.5286 203.583L44.6926 173.172Z" fill="#F8F9FA"/>
<path d="M44.6926 173.172C55.3076 183.787 64.5926 193.575 73.5286 203.583" stroke="#010101" stroke-width="1.5" stroke-linecap="round" stroke-linejoin="round"/>
<path d="M30.1758 189.43C33.0268 194.562 36.2318 199.497 39.7598 204.189L30.1758 189.43Z" fill="#F8F9FA"/>
<path d="M30.1758 189.43C33.0268 194.562 36.2318 199.497 39.7598 204.189" stroke="#010101" stroke-width="1.5" stroke-linecap="round" stroke-linejoin="round"/>
<path d="M314.624 144.738C309.452 145.453 304.787 148.433 301.004 152.032C294.433 158.284 290.535 167.618 291.953 176.576C292.571 180.481 294.15 184.202 296.306 187.517C301.4 195.348 309.739 201.906 319.062 202.486C339.426 203.754 348.698 183.751 348.45 174.589C348.147 163.384 341.116 141.075 314.624 144.738Z" fill="#F8F9FA" stroke="#010101" stroke-width="1.5" stroke-linecap="round" stroke-linejoin="round"/>
<path d="M315.455 149.129C311.074 149.735 307.122 152.259 303.918 155.308C298.352 160.604 295.051 168.51 296.252 176.098C296.776 179.406 298.113 182.558 299.939 185.365C304.254 191.998 311.317 197.553 319.214 198.044C336.463 199.118 344.317 182.175 344.107 174.414C343.85 164.923 337.895 146.027 315.455 149.129Z" fill="#F8F9FA" stroke="#010101" stroke-width="1.5" stroke-linecap="round" stroke-linejoin="round"/>
<path d="M320.059 174.249C316.032 172.201 312.058 169.967 308.272 167.524L320.059 174.249Z" fill="#F8F9FA"/>
<path d="M320.059 174.249C316.032 172.201 312.058 169.967 308.272 167.524" stroke="#010101" stroke-width="1.5" stroke-linecap="round" stroke-linejoin="round"/>
<path d="M335.677 162.082C330.597 165.911 324.954 170.01 319.873 173.839L335.677 162.082Z" fill="#F8F9FA"/>
<path d="M335.677 162.082C330.597 165.911 324.954 170.01 319.873 173.839" stroke="#010101" stroke-width="1.5" stroke-linecap="round" stroke-linejoin="round"/>
<path d="M319.873 176.086C321.114 176.086 322.12 175.08 322.12 173.839C322.12 172.598 321.114 171.592 319.873 171.592C318.632 171.592 317.626 172.598 317.626 173.839C317.626 175.08 318.632 176.086 319.873 176.086Z" fill="#010101" stroke="#010101" stroke-width="1.5" stroke-linecap="round" stroke-linejoin="round"/>
<path d="M207.583 117.123C208.568 117.123 209.367 116.324 209.367 115.339C209.367 114.354 208.568 113.555 207.583 113.555C206.598 113.555 205.799 114.354 205.799 115.339C205.799 116.324 206.598 117.123 207.583 117.123Z" fill="#010101" stroke="#010101" stroke-width="1.5" stroke-linecap="round" stroke-linejoin="round"/>
<path d="M198.974 131.46C208.249 126.995 217.523 122.529 226.798 118.064L198.974 131.46Z" fill="#010101"/>
<path d="M198.974 131.46C208.249 126.995 217.523 122.529 226.798 118.064" stroke="#010101" stroke-width="1.5" stroke-linecap="round" stroke-linejoin="round"/>
<path d="M202.299 139.803C211.975 135.173 221.651 130.543 231.327 125.913L202.299 139.803Z" fill="#010101"/>
<path d="M202.299 139.803C211.975 135.173 221.651 130.543 231.327 125.913" stroke="#010101" stroke-width="1.5" stroke-linecap="round" stroke-linejoin="round"/>
<path d="M207.922 147.048L216.529 141.626" stroke="#010101" stroke-width="1.5" stroke-linecap="round" stroke-linejoin="round"/>
</g>
</g>
<defs>
<clipPath id="clip0_741_5258">
<rect width="329" height="152" fill="white" transform="translate(20.9399 54)"/>
</clipPath>
</defs>
</svg>
