<svg width="24" height="24" viewBox="0 0 24 24" fill="none" xmlns="http://www.w3.org/2000/svg">
<g clip-path="url(#clip0_1763_1318)">
<path d="M5.62797 11.2829L11.272 5.64594C13.937 2.98294 17.196 1.89894 19.935 4.44095L20.123 4.62195C20.4009 4.89938 20.6214 5.2289 20.7718 5.59165C20.9223 5.95439 20.9997 6.34324 20.9997 6.73594C20.9997 7.12865 20.9223 7.5175 20.7718 7.88024C20.6214 8.24299 20.4009 8.57251 20.123 8.84995L8.83597 20.1239C8.29799 20.6597 7.57689 20.9715 6.81806 20.9966C6.05923 21.0216 5.31912 20.758 4.74697 20.2589L4.60397 20.1239C1.87597 17.3999 2.89997 14.0069 5.62797 11.2829Z" stroke="#F8F9FA" stroke-width="2" stroke-linecap="round" stroke-linejoin="round"/>
<path d="M9.5 7.5L11 11" stroke="#F8F9FA" stroke-width="2" stroke-linecap="round" stroke-linejoin="round"/>
<path d="M6.5 10.5L8 14" stroke="#F8F9FA" stroke-width="2" stroke-linecap="round" stroke-linejoin="round"/>
<path d="M12.5 4.5L14 8" stroke="#F8F9FA" stroke-width="2" stroke-linecap="round" stroke-linejoin="round"/>
</g>
<defs>
<clipPath id="clip0_1763_1318">
<rect width="24" height="24" fill="white"/>
</clipPath>
</defs>
</svg>
