<svg width="24" height="25" viewBox="0 0 24 25" fill="none" xmlns="http://www.w3.org/2000/svg">
<g clip-path="url(#clip0_1315_755)">
<path d="M4 7.5C4 6.96957 4.21071 6.46086 4.58579 6.08579C4.96086 5.71071 5.46957 5.5 6 5.5H18C18.5304 5.5 19.0391 5.71071 19.4142 6.08579C19.7893 6.46086 20 6.96957 20 7.5V19.5C20 20.0304 19.7893 20.5391 19.4142 20.9142C19.0391 21.2893 18.5304 21.5 18 21.5H6C5.46957 21.5 4.96086 21.2893 4.58579 20.9142C4.21071 20.5391 4 20.0304 4 19.5V7.5Z" stroke="#212529" stroke-linecap="round" stroke-linejoin="round"/>
<path d="M16 3.5V7.5" stroke="#212529" stroke-linecap="round" stroke-linejoin="round"/>
<path d="M8 3.5V7.5" stroke="#212529" stroke-linecap="round" stroke-linejoin="round"/>
<path d="M4 11.5H20" stroke="#212529" stroke-linecap="round" stroke-linejoin="round"/>
<path d="M7 14.5H7.013" stroke="#212529" stroke-linecap="round" stroke-linejoin="round"/>
<path d="M10.01 14.5H10.015" stroke="#212529" stroke-linecap="round" stroke-linejoin="round"/>
<path d="M13.01 14.5H13.015" stroke="#212529" stroke-linecap="round" stroke-linejoin="round"/>
<path d="M16.0149 14.5H16.0199" stroke="#212529" stroke-linecap="round" stroke-linejoin="round"/>
<path d="M13.0149 17.5H13.0199" stroke="#212529" stroke-linecap="round" stroke-linejoin="round"/>
<path d="M7.01001 17.5H7.01501" stroke="#212529" stroke-linecap="round" stroke-linejoin="round"/>
<path d="M10.01 17.5H10.015" stroke="#212529" stroke-linecap="round" stroke-linejoin="round"/>
</g>
<defs>
<clipPath id="clip0_1315_755">
<rect width="24" height="24" fill="white" transform="translate(0 0.5)"/>
</clipPath>
</defs>
</svg>
