<svg width="24" height="24" viewBox="0 0 24 24" fill="none" xmlns="http://www.w3.org/2000/svg">
<g clip-path="url(#clip0_600_1422)">
<path d="M9 21V15C9 14.4696 9.21071 13.9609 9.58579 13.5858C9.96086 13.2107 10.4696 13 11 13H13C13.5304 13 14.0391 13.2107 14.4142 13.5858C14.7893 13.9609 15 14.4696 15 15V21" stroke="#212529" stroke-linecap="round" stroke-linejoin="round"/>
<path d="M13.2857 3.27006C12.2571 2.78096 11.1429 3.06627 10.7143 3.27006L4.28571 6.93832C3.25714 7.42742 3 8.36487 3 8.77245V9.99521V18.5545C3 19.2031 3.27092 19.8251 3.75315 20.2837C4.23539 20.7424 4.88944 21 5.57143 21H18.4286C19.1106 21 19.7646 20.7424 20.2468 20.2837C20.7291 19.8251 21 19.2031 21 18.5545V9.99521V8.77245C21 8.36487 20.7429 7.42743 19.7143 6.93832L13.2857 3.27006ZM13.2857 3.27006C14.3143 3.75916 13.7143 3.47385 13.2857 3.27006Z" stroke="#212529" stroke-linecap="round" stroke-linejoin="round"/>
</g>
<defs>
<clipPath id="clip0_600_1422">
<rect width="24" height="24" fill="white"/>
</clipPath>
</defs>
</svg>
