<svg width="291" height="269" viewBox="0 0 291 269" fill="none" xmlns="http://www.w3.org/2000/svg">
<path d="M198.172 22.0536C199.405 13.6283 198.779 10.2296 200.012 1.80333C129.674 -0.409555 19.0894 2.65115 19.0894 2.65115L16.5692 21.7917C16.5692 21.7917 124.67 22.0035 198.172 22.0536Z" fill="#212529" stroke="#212529" stroke-width="1.5" stroke-linecap="round" stroke-linejoin="round"/>
<path d="M16.4521 21.5391C11.3884 63.8569 1 241.087 1 241.087L183.319 240.436L198.173 22.0535C198.173 22.0535 44.8241 21.5391 16.4531 21.5391H16.4521Z" fill="white" stroke="#212529" stroke-width="1.5" stroke-linecap="round" stroke-linejoin="round"/>
<path d="M121.696 99.6931C121.215 100.297 120.696 100.862 120.139 101.391C115.367 105.964 108.313 107.775 101.608 108.001C94.8466 108.228 87.9331 107.068 81.9825 103.852C80.2469 102.919 78.5968 101.787 77.0878 100.495C73.4291 97.3837 70.581 93.3377 69.2605 88.7355C67.7701 83.539 68.2613 77.8995 70.0145 72.7884C74.4942 59.6606 88.6583 49.834 102.276 52.4564C106.425 53.2578 114.018 55.5116 119.043 60.7555C122.608 64.4801 125.786 70.1391 126.796 75.1935C128.502 83.7089 127.145 92.9319 121.694 99.6941L121.696 99.6931Z" fill="#FF8B37" stroke="#212529" stroke-width="1.5" stroke-linecap="round" stroke-linejoin="round"/>
<path d="M120.139 101.39C115.367 105.964 108.313 107.775 101.608 108.001C94.8466 108.228 87.9331 107.068 81.9825 103.852C80.247 102.919 78.5968 101.787 77.0878 100.495C77.4648 100.052 77.8613 99.5806 78.2857 99.0718C83.3504 93.0172 91.29 89.4625 99.1842 89.7169C107.087 89.9621 114.782 94.0173 119.45 100.392C119.686 100.722 119.923 101.052 120.139 101.39Z" fill="white" stroke="#212529" stroke-width="1.5" stroke-linecap="round" stroke-linejoin="round"/>
<path d="M92.8566 67.7079C90.7904 69.4417 89.4068 71.9424 88.9685 74.6029C88.6769 76.3728 88.7986 78.2737 89.6947 79.8273C90.8582 81.8451 93.124 82.9678 95.3685 83.5919C98.445 84.4462 101.856 84.5446 104.727 83.1471C108.801 81.1645 109.899 76.7888 108.665 72.4299C107.432 68.071 99.0235 62.5346 92.8575 67.7079H92.8566Z" fill="white" stroke="#212529" stroke-width="1.5" stroke-linecap="round" stroke-linejoin="round"/>
<path d="M33.6435 147.364C32.9321 142.919 33.5831 134.754 33.3955 130.256C32.9758 120.174 42.5219 122.595 51.0169 121.934C65.6676 120.795 137.167 121.262 155.058 122.135C160.707 122.411 162.048 126.097 162.048 128.89C162.048 132.704 162.911 141.197 162.048 146.663C161.154 152.327 158.275 153.523 153.576 153.71C137.175 154.359 116.259 154.057 46.4156 154.057C43.9827 154.057 41.5014 154.352 39.1631 153.68C36.8249 153.007 34.2907 151.413 33.6435 147.364Z" fill="white" stroke="#212529" stroke-width="1.5" stroke-linecap="round" stroke-linejoin="round"/>
<path d="M33.6435 194.029C32.9321 189.584 33.5831 181.419 33.3955 176.92C32.9758 166.839 42.5219 169.26 51.0169 168.599C65.6676 167.46 137.551 167.617 155.441 168.489C161.09 168.765 162.432 172.452 162.432 175.245C162.432 179.059 162.911 187.862 162.048 193.328C161.154 198.992 158.275 200.188 153.576 200.374C137.175 201.023 116.259 200.722 46.4156 200.722C43.9827 200.722 41.5014 201.017 39.1631 200.345C36.8249 199.671 34.2907 198.077 33.6435 194.028V194.029Z" fill="white" stroke="#212529" stroke-width="1.5" stroke-linecap="round" stroke-linejoin="round"/>
<path d="M46.7919 140.828C48.5219 140.828 49.925 139.425 49.925 137.695C49.925 135.965 48.5219 134.562 46.7919 134.562C45.0618 134.562 43.6587 135.965 43.6587 137.695C43.6587 139.425 45.0618 140.828 46.7919 140.828Z" fill="#212529" stroke="#212529" stroke-width="1.5" stroke-linecap="round" stroke-linejoin="round"/>
<path d="M64.2628 140.828C65.9928 140.828 67.3959 139.425 67.3959 137.695C67.3959 135.965 65.9928 134.562 64.2628 134.562C62.5328 134.562 61.1296 135.965 61.1296 137.695C61.1296 139.425 62.5328 140.828 64.2628 140.828Z" fill="#212529" stroke="#212529" stroke-width="1.5" stroke-linecap="round" stroke-linejoin="round"/>
<path d="M83.1777 140.828C84.9077 140.828 86.3108 139.425 86.3108 137.695C86.3108 135.965 84.9077 134.562 83.1777 134.562C81.4477 134.562 80.0446 135.965 80.0446 137.695C80.0446 139.425 81.4477 140.828 83.1777 140.828Z" fill="#212529" stroke="#212529" stroke-width="1.5" stroke-linecap="round" stroke-linejoin="round"/>
<path d="M100.304 140.828C102.034 140.828 103.437 139.425 103.437 137.695C103.437 135.965 102.034 134.562 100.304 134.562C98.5741 134.562 97.171 135.965 97.171 137.695C97.171 139.425 98.5741 140.828 100.304 140.828Z" fill="#212529" stroke="#212529" stroke-width="1.5" stroke-linecap="round" stroke-linejoin="round"/>
<path d="M117.775 140.828C119.505 140.828 120.908 139.425 120.908 137.695C120.908 135.965 119.505 134.562 117.775 134.562C116.045 134.562 114.642 135.965 114.642 137.695C114.642 139.425 116.045 140.828 117.775 140.828Z" fill="#212529" stroke="#212529" stroke-width="1.5" stroke-linecap="round" stroke-linejoin="round"/>
<path d="M136.909 140.828C138.639 140.828 140.042 139.425 140.042 137.695C140.042 135.965 138.639 134.562 136.909 134.562C135.179 134.562 133.776 135.965 133.776 137.695C133.776 139.425 135.179 140.828 136.909 140.828Z" fill="#212529" stroke="#212529" stroke-width="1.5" stroke-linecap="round" stroke-linejoin="round"/>
<path d="M49.2628 184.247C52.213 184.114 55.166 184.051 58.119 184.062" stroke="#212529" stroke-width="1.5" stroke-linecap="round" stroke-linejoin="round"/>
<path d="M50.7291 187.812C51.7719 186.601 52.8138 185.389 53.8566 184.178C54.8846 185.551 55.9989 186.65 56.9833 187.963" stroke="#212529" stroke-width="1.5" stroke-linecap="round" stroke-linejoin="round"/>
<path d="M51.2343 180.619C52.3504 181.946 52.6225 182.944 53.8557 184.178C54.2197 183.587 55.426 181.859 56.3955 180.668" stroke="#212529" stroke-width="1.5" stroke-linecap="round" stroke-linejoin="round"/>
<path d="M67.0513 184.247C70.0015 184.114 72.9545 184.051 75.9075 184.062" stroke="#212529" stroke-width="1.5" stroke-linecap="round" stroke-linejoin="round"/>
<path d="M68.5176 187.812C69.5604 186.601 70.6023 185.389 71.6451 184.178C72.6731 185.551 73.7874 186.65 74.7718 187.963" stroke="#212529" stroke-width="1.5" stroke-linecap="round" stroke-linejoin="round"/>
<path d="M69.0228 180.619C70.139 181.946 70.4111 182.944 71.6443 184.178C72.0083 183.587 73.2145 181.859 74.184 180.668" stroke="#212529" stroke-width="1.5" stroke-linecap="round" stroke-linejoin="round"/>
<path d="M84.8398 184.247C87.79 184.114 90.743 184.051 93.696 184.062" stroke="#212529" stroke-width="1.5" stroke-linecap="round" stroke-linejoin="round"/>
<path d="M86.3062 187.812C87.349 186.601 88.3909 185.389 89.4338 184.178C90.4617 185.551 91.5761 186.65 92.5604 187.963" stroke="#212529" stroke-width="1.5" stroke-linecap="round" stroke-linejoin="round"/>
<path d="M86.8113 180.619C87.9275 181.946 88.1996 182.944 89.4328 184.178C89.7968 183.587 91.0031 181.859 91.9726 180.668" stroke="#212529" stroke-width="1.5" stroke-linecap="round" stroke-linejoin="round"/>
<path d="M102.628 184.247C105.579 184.114 108.532 184.051 111.485 184.062" stroke="#212529" stroke-width="1.5" stroke-linecap="round" stroke-linejoin="round"/>
<path d="M104.095 187.812C105.137 186.601 106.179 185.389 107.222 184.178C108.25 185.551 109.365 186.65 110.349 187.963" stroke="#212529" stroke-width="1.5" stroke-linecap="round" stroke-linejoin="round"/>
<path d="M104.6 180.619C105.716 181.946 105.988 182.944 107.221 184.178C107.585 183.587 108.792 181.859 109.761 180.668" stroke="#212529" stroke-width="1.5" stroke-linecap="round" stroke-linejoin="round"/>
<path d="M120.572 184.247C123.522 184.114 126.475 184.051 129.428 184.062" stroke="#212529" stroke-width="1.5" stroke-linecap="round" stroke-linejoin="round"/>
<path d="M122.037 187.812C123.08 186.601 124.122 185.389 125.165 184.178C126.193 185.551 127.307 186.65 128.291 187.963" stroke="#212529" stroke-width="1.5" stroke-linecap="round" stroke-linejoin="round"/>
<path d="M122.543 180.619C123.66 181.946 123.932 182.944 125.165 184.178C125.529 183.587 126.735 181.859 127.705 180.668" stroke="#212529" stroke-width="1.5" stroke-linecap="round" stroke-linejoin="round"/>
<path d="M138.36 184.247C141.311 184.114 144.264 184.051 147.217 184.062" stroke="#212529" stroke-width="1.5" stroke-linecap="round" stroke-linejoin="round"/>
<path d="M139.826 187.812C140.869 186.601 141.91 185.389 142.953 184.178C143.981 185.551 145.096 186.65 146.08 187.963" stroke="#212529" stroke-width="1.5" stroke-linecap="round" stroke-linejoin="round"/>
<path d="M140.332 180.619C141.448 181.946 141.72 182.944 142.953 184.178C143.317 183.587 144.524 181.859 145.493 180.668" stroke="#212529" stroke-width="1.5" stroke-linecap="round" stroke-linejoin="round"/>
<path d="M201.087 219.465C206.014 206.703 212.759 196.294 219.478 184.378C222.195 179.561 224.934 174.711 228.491 170.476C242.637 153.642 256.367 160.342 245.205 192.336C241.218 203.761 239.405 211.016 236.27 220.004C243.125 197.605 250.505 174.297 266.845 157.514C269.826 154.452 273.139 151.607 277.06 149.907C278.574 149.251 280.226 148.768 281.862 148.99C285.28 149.454 288.089 152.604 288.817 155.976C291.857 170.057 289.271 176.798 281.325 196.401C278.446 203.504 274.654 211.575 271.308 219.827C242.271 219.827 221.365 219.464 201.087 219.464V219.465Z" fill="#55D087" stroke="#212529" stroke-width="1.5" stroke-linecap="round" stroke-linejoin="round"/>
<path d="M219.628 220.873C225.935 202.201 235.208 180.581 244.044 162.965" stroke="#212529" stroke-width="1.5" stroke-linecap="round" stroke-linejoin="round"/>
<path d="M253.454 220.762C263.034 197.123 272.977 174.114 283.204 150.748" stroke="#212529" stroke-width="1.5" stroke-linecap="round" stroke-linejoin="round"/>
<path d="M233.011 192.985C219.781 189.391 198.679 178.749 197.016 173.065C182.162 185.506 164.909 191.115 153.151 191.503C152.44 207.754 152.867 233.137 159.525 245.523C164.114 254.06 172.78 259.707 181.793 263.272C187.18 265.403 192.808 266.923 198.231 268.098C208.829 263.033 219.87 257.443 226.414 247.688C232.319 238.887 232.765 221.062 233.123 210.469C233.247 206.787 234.197 197.103 233.011 192.984V192.985Z" fill="#5F6EF0" stroke="#212529" stroke-width="1.5" stroke-linecap="round" stroke-linejoin="round"/>
<path d="M190.183 196.217C185.817 196.82 181.88 199.335 178.687 202.374C173.142 207.65 169.853 215.527 171.049 223.088C171.571 226.384 172.902 229.524 174.722 232.322C179.022 238.931 186.158 243.623 193.928 244.956C202.922 246.499 207.085 242.141 209.062 240.42C214.3 235.857 218.934 228.94 218.731 221.412C218.476 211.956 212.542 193.126 190.183 196.218V196.217Z" fill="white" stroke="#212529" stroke-width="1.5" stroke-linecap="round" stroke-linejoin="round"/>
<path d="M211.088 213.027C204.266 220.676 197.073 227.994 189.544 234.946C185.756 230.599 181.968 226.25 178.581 222.05C180.132 220.451 181.693 219.844 183.631 218.312C185.692 220.556 187.764 223.516 190.045 226.374C195.699 221.098 200.166 216.129 206.868 209.427C208.258 210.666 209.648 211.906 211.088 213.027Z" fill="#5F6EF0" stroke="#212529" stroke-width="1.5" stroke-linecap="round" stroke-linejoin="round"/>
</svg>
