<svg width="365" height="263" viewBox="0 0 365 263" fill="none" xmlns="http://www.w3.org/2000/svg">
<g clip-path="url(#clip0_591_1056)">
<mask id="mask0_591_1056" style="mask-type:luminance" maskUnits="userSpaceOnUse" x="0" y="0" width="365" height="263">
<path d="M364.513 0H0V262.692H364.513V0Z" fill="white"/>
</mask>
<g mask="url(#mask0_591_1056)">
<path d="M253.068 198.194C261.571 183.697 260.828 183.051 269.333 168.554C275.286 158.405 281.898 147.662 293.971 142C300.485 138.946 309.468 137.875 315.228 141.843C328.667 151.098 319.511 175.591 306.624 200.996C286.318 201.255 271.238 199.303 253.068 198.197V198.194Z" fill="#55D087" stroke="#010101" stroke-width="1.5" stroke-linecap="round" stroke-linejoin="round"/>
<path d="M306.191 146.591C299.164 168.751 293.289 178.452 283.077 199.784" stroke="#010101" stroke-width="1.5" stroke-linecap="round" stroke-linejoin="round"/>
<path d="M301.634 200.935C316.27 179.233 323.632 164.386 344.032 158.608C348.031 157.476 352.643 157.01 356.418 158.596C360.687 160.39 364.037 164.382 363.442 168.209C361.161 182.887 352.216 190.846 346.743 201.371C328.437 201.135 315.479 201.114 301.634 200.935Z" fill="#55D087" stroke="#010101" stroke-width="1.5" stroke-linecap="round" stroke-linejoin="round"/>
<path d="M351.5 160.938C341.386 178.217 338.994 183.833 325.942 199.785" stroke="#010101" stroke-width="1.5" stroke-linecap="round" stroke-linejoin="round"/>
<path d="M66.1813 79.7014C64.2601 73.2319 62.3696 66.1042 65.0957 59.931C66.3658 57.0567 68.5411 54.675 70.8795 52.571C81.9258 42.6318 182.402 8.67275 199.65 4.12566C208.713 1.73596 217.373 5.08287 222.864 16.2009C233.684 38.1101 268.133 149.924 280.021 199.834C280.876 203.426 281.709 207.282 280.387 210.73C279.133 214.002 276.157 216.288 273.13 218.059C268.299 220.887 263.019 222.85 257.734 224.696C236.352 232.168 168.766 256.803 146.48 260.863C142.374 261.611 138.03 262.282 134.114 260.84C127.932 258.564 124.762 251.88 122.248 245.797C106.932 208.713 65.6412 78.9018 66.18 79.7001L66.1813 79.7014Z" fill="#7B5FF1" stroke="#010101" stroke-width="1.5" stroke-linecap="round" stroke-linejoin="round"/>
<path d="M79.4214 84.6756C77.8117 79.09 75.6003 71.7392 77.912 66.4004C78.9896 63.9134 80.8306 61.852 82.8081 60.031C92.151 51.4228 181.738 19.8908 196.304 15.9298C200.918 14.6749 207.162 12.7819 214.104 24.255C224.018 40.6424 257.174 151.91 266.971 194.397C267.687 197.5 268.383 200.829 267.26 203.812C266.196 206.642 263.678 208.622 261.121 210.159C257.039 212.61 252.577 214.317 248.114 215.922C230.052 222.419 168.245 245.832 149.425 249.382C145.957 250.036 142.291 250.625 138.987 249.386C133.773 247.43 131.11 241.661 129 236.409C116.141 204.394 78.9682 83.9867 79.4214 84.6756Z" fill="white" stroke="#010101" stroke-width="1.5" stroke-linecap="round" stroke-linejoin="round"/>
<path d="M50.5117 1.00146C54.2299 9.80996 57.9481 18.6171 61.6663 27.4256" stroke="#010101" stroke-width="1.5" stroke-linecap="round" stroke-linejoin="round"/>
<path d="M1.00275 46.0732C12.7349 49.547 24.1288 54.1555 34.9758 59.8106" stroke="#010101" stroke-width="1.5" stroke-linecap="round" stroke-linejoin="round"/>
<path d="M9.15039 106.623C20.309 102.973 31.4675 99.3248 42.6248 95.6748C41.8667 96.1674 41.1073 96.6601 40.3492 97.154" stroke="#010101" stroke-width="1.5" stroke-linecap="round" stroke-linejoin="round"/>
<path d="M105.604 23.6446C103.1 24.8328 101.785 27.611 102.51 30.2824C104.278 36.7933 106.823 45.0197 108.564 50.2183C108.889 51.1902 109.254 52.2102 110.04 52.8683C111.396 54.0044 113.415 53.6493 115.133 53.2194C134.464 48.3893 153.456 42.2108 171.927 34.744C172.838 34.3755 173.811 33.9497 174.299 33.0993C174.756 32.3009 174.676 31.3157 174.561 30.4038C173.654 23.2254 171.4 16.2179 167.951 9.85511C167.059 8.20902 166.003 6.52422 164.337 5.6658C162.156 4.54304 159.524 5.11176 157.155 5.74857C140.089 10.3411 122.768 15.4996 105.603 23.6433L105.604 23.6446Z" fill="#7B5FF1" stroke="#010101" stroke-width="1.5" stroke-linecap="round" stroke-linejoin="round"/>
<path d="M143.814 83.0615C163.651 74.7643 183.488 66.4684 203.325 58.1712C203.621 58.0471 203.971 57.8321 203.924 57.5157C203.877 57.1993 203.227 57.4436 203.492 57.6239" stroke="#010101" stroke-width="1.5" stroke-linecap="round" stroke-linejoin="round"/>
<path d="M158.981 131.482C180.025 124.558 200.809 116.843 221.272 108.356" stroke="#010101" stroke-width="1.5" stroke-linecap="round" stroke-linejoin="round"/>
<path d="M216.137 122.334C218.706 123.794 221.227 125.334 223.698 126.953L237.33 117.719C228.943 113.723 224.422 109.692 216.465 104.611C216.548 109.24 216.35 116.432 216.137 122.334Z" fill="white" stroke="#010101" stroke-width="1.5" stroke-linecap="round" stroke-linejoin="round"/>
<path d="M275.258 53.2982C277.761 48.7872 280.208 44.2935 282.491 39.8532C278.986 37.0082 268.128 29.2744 263.665 27.4268C260.655 31.6842 257.693 36.0443 254.754 40.4446C257.937 42.4365 261.976 44.9757 266.019 47.5162L275.258 53.2982Z" fill="#010101" stroke="#010101" stroke-width="1.5" stroke-linecap="round" stroke-linejoin="round"/>
<path d="M254.745 40.458C240.941 61.1242 227.962 83.1401 216.465 104.614C222.547 108.166 237.33 117.721 237.33 117.721C249.235 97.0911 263.26 74.9177 275.25 53.313C272.466 51.5668 269.247 49.5442 266.019 47.5163L254.745 40.458Z" fill="#FF8B37" stroke="#010101" stroke-width="1.5" stroke-linecap="round" stroke-linejoin="round"/>
<path d="M237.33 117.72C237.33 117.72 222.547 108.165 216.465 104.613C224.422 109.694 228.943 113.724 237.33 117.72Z" fill="#FF8B37" stroke="#010101" stroke-width="1.5" stroke-linecap="round" stroke-linejoin="round"/>
<path d="M266.02 47.5151C269.246 49.543 272.466 51.5669 275.25 53.3118C275.253 53.3065 275.255 53.3025 275.258 53.2971L266.02 47.5151Z" fill="#FF8B37" stroke="#010101" stroke-width="1.5" stroke-linecap="round" stroke-linejoin="round"/>
<path d="M254.754 40.4434C254.754 40.4434 254.747 40.4527 254.745 40.458L266.019 47.515C261.976 44.9744 257.937 42.4352 254.754 40.4434Z" fill="#FF8B37" stroke="#010101" stroke-width="1.5" stroke-linecap="round" stroke-linejoin="round"/>
<path d="M215.723 132.357L223.698 126.955C221.229 125.334 218.706 123.795 216.137 122.335C215.937 127.924 215.723 132.357 215.723 132.357Z" fill="#010101" stroke="#010101" stroke-width="1.5" stroke-linecap="round" stroke-linejoin="round"/>
<path d="M181.599 180.877C200.707 173.071 220.127 166.025 239.796 159.76" stroke="#010101" stroke-width="1.5" stroke-linecap="round" stroke-linejoin="round"/>
<path d="M153.428 179.099C153.273 178.704 152.819 178.52 152.432 178.696C149.388 180.086 132.943 186.557 132.589 187.435C132.301 188.149 136.295 199.612 140.32 207.384C140.49 207.713 140.854 207.892 141.214 207.806C148.177 206.153 159.953 200.941 161.533 200.235C161.636 200.19 161.679 200.074 161.638 199.97L153.428 179.098V179.099Z" fill="#E3E3FF" stroke="#010101" stroke-width="1.5" stroke-linecap="round" stroke-linejoin="round"/>
<path d="M140.727 192.048L151.669 197.939C151.669 197.939 157.426 182.544 161.711 174.058" stroke="#010101" stroke-width="1.5" stroke-linecap="round" stroke-linejoin="round"/>
<path d="M132.574 130.835C132.419 130.44 131.964 130.256 131.578 130.432C128.533 131.822 112.088 138.293 111.734 139.171C111.447 139.885 115.44 151.348 119.466 159.12C119.636 159.449 119.999 159.628 120.359 159.542C127.322 157.89 139.098 152.678 140.679 151.971C140.782 151.926 140.824 151.81 140.783 151.706L132.574 130.835Z" fill="#E3E3FF" stroke="#010101" stroke-width="1.5" stroke-linecap="round" stroke-linejoin="round"/>
<path d="M119.872 143.785L130.814 149.677C130.814 149.677 136.571 134.281 140.857 125.796" stroke="#010101" stroke-width="1.5" stroke-linecap="round" stroke-linejoin="round"/>
<path d="M115.28 82.5727C115.125 82.1775 114.67 81.9933 114.284 82.1695C111.239 83.5593 94.7944 90.0302 94.4401 90.9086C94.1526 91.6228 98.1461 103.085 102.172 110.858C102.342 111.186 102.705 111.365 103.065 111.28C110.028 109.627 121.804 104.415 123.385 103.709C123.488 103.663 123.53 103.547 123.489 103.443L115.28 82.5714V82.5727Z" fill="#E3E3FF" stroke="#010101" stroke-width="1.5" stroke-linecap="round" stroke-linejoin="round"/>
<path d="M102.578 95.5212L113.52 101.413C113.52 101.413 119.277 86.0172 123.562 77.5317" stroke="#010101" stroke-width="1.5" stroke-linecap="round" stroke-linejoin="round"/>
</g>
</g>
<defs>
<clipPath id="clip0_591_1056">
<rect width="365" height="263" fill="white"/>
</clipPath>
</defs>
</svg>
