<svg width="280" height="280" viewBox="0 0 280 280" fill="none" xmlns="http://www.w3.org/2000/svg">
<path d="M96.124 49.1406C97.8443 50.8444 99.6569 52.448 101.673 53.7886C111.956 60.6284 142.553 77.086 191.08 70.36C251.712 61.9561 242.817 122.919 234.092 139.166C225.368 155.414 193.281 185.198 190.586 200.121C187.891 215.044 199.423 255.804 172.402 243.573C145.381 231.342 129.771 202.695 94.3037 206.025C58.8364 209.354 33.7743 193.638 49.4743 165.558C65.1743 137.478 83.9449 119.358 59.9865 88.0801C36.6931 57.6723 75.9284 29.1396 96.124 49.1406Z" fill="#5F6EF0"/>
<path d="M157.647 80.6433C157.197 80.1906 156.94 79.5816 156.929 78.9436C156.918 78.3056 157.154 77.6881 157.588 77.22L173.586 59.9524C173.813 59.7078 174.086 59.5116 174.391 59.3755C174.695 59.2394 175.024 59.1663 175.357 59.1605C175.691 59.1547 176.022 59.2164 176.331 59.3419C176.64 59.4673 176.92 59.654 177.155 59.8905L178.536 61.2813C178.771 61.5179 178.956 61.7996 179.079 62.1094C179.202 62.4192 179.261 62.7507 179.253 63.0841C179.245 63.4174 179.17 63.7457 179.032 64.0491C178.893 64.3525 178.695 64.6249 178.449 64.8498L161.07 80.7266C160.599 81.1571 159.98 81.3888 159.342 81.3732C158.704 81.3577 158.097 81.0962 157.647 80.6433Z" fill="#151C4D"/>
<path d="M147.521 74.7574C147.138 74.5879 146.836 74.2771 146.677 73.89C146.519 73.5029 146.516 73.0694 146.669 72.6802L152.331 58.3211C152.411 58.1178 152.532 57.9327 152.685 57.7771C152.839 57.6214 153.022 57.4985 153.225 57.4156C153.427 57.3327 153.644 57.2915 153.862 57.2946C154.081 57.2977 154.297 57.3449 154.497 57.4335L155.671 57.9543C155.871 58.0429 156.051 58.171 156.2 58.3309C156.349 58.4908 156.465 58.6792 156.539 58.8848C156.614 59.0903 156.646 59.3088 156.633 59.5271C156.621 59.7454 156.565 59.959 156.468 60.155L149.632 73.9933C149.447 74.3685 149.123 74.6575 148.73 74.7999C148.336 74.9423 147.903 74.9271 147.521 74.7574Z" fill="#151C4D"/>
<path d="M137.218 77.1041C135.913 77.339 134.604 76.2194 134.25 74.5662L127.971 45.2104C127.596 43.4561 128.436 41.7876 129.82 41.5381L131.749 41.1909C133.133 40.9417 134.503 42.2129 134.763 43.9874L139.114 73.6902C139.359 75.3636 138.523 76.8692 137.218 77.1041Z" fill="#151C4D"/>
<path d="M238.712 104.731L211.018 101.161C210.552 101.111 210.081 101.205 209.67 101.429C209.258 101.654 208.924 101.998 208.714 102.417L201.35 116.957L170.524 178.608C170.196 179.259 169.647 179.772 168.976 180.055C168.304 180.338 167.553 180.373 166.858 180.153L83.188 153.445C82.9572 153.372 82.7122 153.354 82.4732 153.393C82.2342 153.433 82.008 153.529 81.8132 153.673C81.6183 153.817 81.4605 154.005 81.3526 154.222C81.2447 154.439 81.1898 154.678 81.1925 154.92L81.2309 158.395C81.2356 158.878 81.3926 159.347 81.6795 159.736C81.9665 160.124 82.3687 160.413 82.829 160.559L171.354 188.815C172.341 189.13 173.227 189.7 173.923 190.468C174.618 191.236 175.098 192.174 175.315 193.187L175.344 193.325C176.114 197.555 171.946 201.027 167.838 199.781L70.7673 168.757C70.2694 168.598 69.8404 168.275 69.5515 167.839C69.2626 167.404 69.131 166.883 69.1784 166.363L76.7754 83.403C76.8136 82.9753 76.9413 82.5604 77.1503 82.1852C77.3592 81.81 77.6447 81.483 77.9883 81.2253C78.3318 80.9677 78.7257 80.7851 79.1444 80.6896C79.5631 80.594 79.9972 80.5876 80.4185 80.6707L196.708 103.42L204.198 88.5343C204.414 88.1136 204.754 87.7694 205.172 87.5482C205.59 87.3269 206.066 87.2392 206.536 87.297L240.449 91.6398C240.75 91.6776 241.04 91.7747 241.303 91.9255C241.566 92.0762 241.797 92.2777 241.981 92.5181C242.166 92.7586 242.301 93.0333 242.379 93.3263C242.457 93.6194 242.476 93.9249 242.434 94.2253L241.278 102.755C241.198 103.357 240.883 103.902 240.402 104.272C239.921 104.642 239.314 104.807 238.712 104.731Z" fill="#151C4D"/>
<path d="M81.4646 139.242L90.9404 142.266L100.03 96.1746L85.4827 93.9409L81.4646 139.242Z" fill="#DFE2FC"/>
<path d="M155.813 162.973L165.289 165.997L189.794 114.385L179.357 111.856L155.813 162.973Z" fill="#DFE2FC"/>
<path d="M119.368 151.34L128.115 154.132L146.851 105.497L132.536 102.534L119.368 151.34Z" fill="#DFE2FC"/>
<path d="M108.281 98.0049L122.595 100.967L109.892 148.315L100.416 145.291L108.281 98.0049Z" fill="#DFE2FC"/>
<path d="M170.377 109.793L156.063 106.831L138.319 157.388L147.066 160.18L170.377 109.793Z" fill="#DFE2FC"/>
<path d="M83.2932 198.708C89.4205 198.708 94.3876 193.741 94.3876 187.613C94.3876 181.486 89.4205 176.519 83.2932 176.519C77.1659 176.519 72.1987 181.486 72.1987 187.613C72.1987 193.741 77.1659 198.708 83.2932 198.708Z" fill="#BFC5F9"/>
<path d="M152.539 220.81C158.666 220.81 163.633 215.843 163.633 209.716C163.633 203.588 158.666 198.621 152.539 198.621C146.412 198.621 141.445 203.588 141.445 209.716C141.445 215.843 146.412 220.81 152.539 220.81Z" fill="#BFC5F9"/>
<path d="M243.694 91.1807L214.466 87.5216C214.304 87.5013 214.156 87.6162 214.136 87.7783L212.365 101.929C212.344 102.091 212.459 102.239 212.621 102.259L241.849 105.918C242.011 105.938 242.159 105.823 242.179 105.661L243.95 91.5108C243.971 91.3488 243.856 91.201 243.694 91.1807Z" fill="#BFC5F9"/>
</svg>
