<svg width="430" height="445" viewBox="0 0 430 445" fill="none" xmlns="http://www.w3.org/2000/svg">
<path d="M311.468 318.484C369.644 260.253 369.644 165.842 311.468 107.611C253.293 49.3796 158.973 49.3796 100.798 107.611C42.6226 165.842 42.6226 260.253 100.798 318.484C158.973 376.716 253.293 376.716 311.468 318.484Z" fill="white"/>
<path d="M351.967 213.049C351.967 293.674 286.676 359.028 206.129 359.028C125.582 359.028 60.2902 293.674 60.2902 213.049C60.2902 132.425 122.025 70.7019 199.472 67.2276C201.686 67.1275 203.9 67.0703 206.129 67.0703C208.628 67.0703 211.114 67.1275 213.599 67.2562C290.675 71.1451 351.967 134.927 351.967 213.049Z" fill="#5F6EF0"/>
<path d="M108.341 305.298L206.143 213.035L77.3879 251.696C83.4586 271.999 94.1858 290.271 108.341 305.298Z" fill="#151C4D"/>
<path d="M206.129 347.562C216.77 347.562 227.126 346.318 237.053 343.973L206.129 213.035L175.204 343.973C185.131 346.318 195.487 347.562 206.143 347.562H206.129Z" fill="#F0D060"/>
<path d="M334.884 251.696L206.129 213.035L303.916 305.298C318.071 290.271 328.799 271.999 334.869 251.696H334.884Z" fill="#151C4D"/>
<path d="M303.93 120.787L206.143 213.049L334.898 174.389C328.827 154.086 318.1 135.813 303.945 120.787H303.93Z" fill="#F0D060"/>
<path d="M77.3879 174.389L206.143 213.049L108.341 120.787C94.1858 135.813 83.4586 154.086 77.3879 174.389Z" fill="#F0D060"/>
<path d="M206.129 78.5227C195.487 78.5227 185.131 79.7666 175.19 82.1114L206.114 213.049L237.039 82.1114C227.112 79.7666 216.756 78.5227 206.114 78.5227H206.129Z" fill="#151C4D"/>
<path d="M340.526 212.549C340.526 198.523 338.455 184.983 334.598 172.201L199.472 212.549L334.598 252.897C338.44 240.115 340.526 226.575 340.526 212.549Z" fill="#151C4D"/>
<path d="M71.7458 213.049C71.7458 226.489 73.717 239.457 77.388 251.71L206.143 213.049L77.388 174.388C73.717 186.627 71.7458 199.609 71.7458 213.049Z" fill="#F0D060"/>
<path d="M224.683 79.981C228.569 80.5529 232.411 81.282 236.196 82.1685L204.272 216.223L305.216 121.773C284.333 99.7832 256.237 84.6134 224.683 79.9953V79.981Z" fill="#F0D060"/>
<path d="M186.346 346.103C182.575 345.546 178.861 344.831 175.204 343.973L206.129 213.035L108.327 305.298C128.553 326.773 155.764 341.585 186.331 346.103H186.346Z" fill="#151C4D"/>
<path d="M206.129 213.049L237.053 343.987C233.397 344.845 229.683 345.56 225.912 346.118C256.479 341.599 283.69 326.787 303.916 305.312L206.129 213.049Z" fill="#F0D060"/>
<path d="M186.345 79.981C154.492 84.6849 126.296 100.57 105.827 123.532C106.656 122.602 107.484 121.687 108.327 120.786L206.129 213.049L175.204 82.1113C178.861 81.2535 182.589 80.5386 186.36 79.981H186.345Z" fill="#151C4D"/>
<path d="M215.199 213.049C215.199 218.068 211.142 222.128 206.129 222.128C201.115 222.128 197.058 218.068 197.058 213.049C197.058 208.031 201.115 203.97 206.129 203.97C211.142 203.97 215.199 208.031 215.199 213.049Z" fill="white"/>
<path d="M213.599 67.2562V86.5866L206.529 92.706L199.472 86.5866V67.2276C201.686 67.1275 203.9 67.0703 206.129 67.0703C208.628 67.0703 211.114 67.1275 213.599 67.2562Z" fill="#F8B214"/>
<path d="M192.619 160.537C192.698 160.097 192.86 159.718 193.107 159.398C193.354 159.079 193.664 158.857 194.035 158.732L194.566 158.553C195.07 158.383 195.559 158.357 196.031 158.474C196.492 158.585 196.904 158.83 197.268 159.21C197.63 159.58 197.907 160.053 198.1 160.628L198.533 161.916C198.834 162.809 198.811 163.605 198.465 164.302C198.106 164.994 197.472 165.493 196.561 165.799L196.047 164.273C196.534 164.11 196.878 163.861 197.081 163.527C197.281 163.184 197.309 162.8 197.166 162.375L196.733 161.088C196.597 160.681 196.379 160.385 196.08 160.2C195.773 160.018 195.442 159.986 195.088 160.106L194.557 160.284C194.212 160.4 193.986 160.619 193.878 160.941C193.769 161.263 193.788 161.641 193.934 162.074L194.474 163.68L193.12 164.135L192.58 162.53C192.452 162.149 192.258 161.88 191.998 161.721C191.726 161.557 191.422 161.531 191.086 161.644L190.555 161.823C190.254 161.924 190.053 162.115 189.95 162.395C189.836 162.67 189.838 162.984 189.957 163.338L190.39 164.625C190.524 165.024 190.773 165.294 191.136 165.438C191.497 165.573 191.92 165.558 192.407 165.395L192.929 166.947C192.018 167.254 191.217 167.243 190.525 166.914C189.822 166.579 189.321 165.97 189.024 165.085L188.591 163.798C188.409 163.258 188.347 162.752 188.405 162.28C188.46 161.799 188.63 161.382 188.915 161.03C189.191 160.681 189.564 160.428 190.033 160.27L190.564 160.091C190.909 159.975 191.263 159.96 191.626 160.044C191.986 160.12 192.317 160.284 192.619 160.537ZM195.688 153.458C195.887 154.05 195.936 154.62 195.834 155.166C195.721 155.707 195.468 156.186 195.077 156.603C194.674 157.014 194.158 157.325 193.53 157.537L190.372 158.599C189.744 158.81 189.149 158.873 188.588 158.786C188.015 158.693 187.525 158.464 187.116 158.099C186.696 157.728 186.386 157.247 186.187 156.654L185.714 155.247C185.518 154.664 185.476 154.101 185.59 153.561C185.694 153.024 185.948 152.549 186.352 152.138C186.746 151.729 187.257 151.42 187.885 151.208L191.043 150.146C191.672 149.935 192.27 149.871 192.84 149.955C193.401 150.042 193.89 150.266 194.308 150.628C194.713 150.984 195.015 151.459 195.215 152.051L195.688 153.458ZM193.857 152.538C193.711 152.104 193.431 151.814 193.018 151.668C192.601 151.512 192.127 151.524 191.597 151.703L188.386 152.783C187.855 152.961 187.47 153.239 187.232 153.614C186.991 153.981 186.944 154.381 187.09 154.814L187.545 156.168C187.694 156.61 187.978 156.913 188.397 157.077C188.817 157.241 189.292 157.234 189.823 157.056L193.034 155.975C193.565 155.797 193.948 155.515 194.183 155.131C194.418 154.747 194.461 154.333 194.312 153.891L193.857 152.538ZM183.029 146.914L181.426 142.15C181.164 141.372 181.174 140.669 181.456 140.043C181.728 139.419 182.223 138.987 182.94 138.746L184.213 138.317C184.965 138.065 185.656 138.113 186.286 138.462C186.904 138.806 187.349 139.385 187.623 140.198L188.663 143.29L191.795 142.237L192.317 143.789L183.029 146.914ZM186.279 140.68C186.157 140.318 185.949 140.067 185.657 139.929C185.361 139.783 185.036 139.769 184.683 139.888L183.502 140.285C183.174 140.395 182.946 140.58 182.817 140.84C182.688 141.101 182.678 141.394 182.788 141.722L183.86 144.906L187.31 143.746L186.279 140.68ZM188.777 132.916C189.051 133.73 189.037 134.464 188.735 135.117C188.424 135.773 187.879 136.232 187.101 136.494L185.455 137.047C184.942 137.22 184.454 137.261 183.99 137.171C183.515 137.075 183.102 136.859 182.753 136.523C182.392 136.182 182.121 135.742 181.939 135.202L181.546 134.034C181.365 133.495 181.316 132.984 181.401 132.503C181.473 132.016 181.671 131.594 181.995 131.239C182.307 130.878 182.719 130.612 183.232 130.439L184.878 129.886C185.656 129.624 186.369 129.664 187.016 130.008C187.652 130.346 188.109 130.93 188.389 131.762L188.777 132.916ZM187.08 132.217C186.955 131.845 186.731 131.591 186.409 131.453C186.075 131.309 185.705 131.306 185.298 131.443L183.825 131.938C183.418 132.075 183.128 132.296 182.955 132.6C182.773 132.908 182.744 133.247 182.869 133.619L183.244 134.733C183.369 135.105 183.597 135.358 183.928 135.493C184.25 135.631 184.615 135.631 185.021 135.494L186.494 134.999C186.901 134.862 187.196 134.64 187.378 134.332C187.551 134.028 187.578 133.699 187.459 133.345L187.08 132.217ZM180.256 129.846L179.778 128.426L180.641 128.136C180.283 128.04 179.962 127.862 179.678 127.603C179.394 127.344 179.199 127.055 179.092 126.737L178.815 125.914C178.586 125.233 178.619 124.616 178.916 124.063C179.21 123.502 179.71 123.102 180.418 122.864L184.783 121.395L185.297 122.921L180.971 124.376C180.653 124.484 180.424 124.654 180.286 124.888C180.136 125.115 180.106 125.362 180.195 125.627L180.472 126.45C180.588 126.795 180.825 127.06 181.183 127.245C181.531 127.433 181.923 127.498 182.356 127.441L186.364 126.093L186.877 127.619L180.256 129.846ZM183.298 116.979C183.551 117.731 183.567 118.336 183.347 118.794C183.127 119.252 182.654 119.603 181.929 119.847L178.718 120.927L179.11 122.095L177.797 122.537L177.391 121.33L175.387 122.004L174.887 120.517L176.891 119.843L176.31 118.118L177.624 117.676L178.204 119.401L181.362 118.339C181.654 118.241 181.847 118.112 181.941 117.952C182.035 117.793 182.041 117.589 181.957 117.341L181.618 116.333L182.932 115.891L183.298 116.979ZM181.802 112.183C182.076 112.997 182.062 113.73 181.76 114.383C181.449 115.04 180.904 115.499 180.126 115.76L178.48 116.314C177.967 116.487 177.479 116.528 177.015 116.438C176.54 116.341 176.127 116.126 175.778 115.79C175.417 115.449 175.146 115.008 174.964 114.469L174.572 113.301C174.39 112.761 174.341 112.251 174.426 111.77C174.498 111.282 174.696 110.861 175.02 110.506C175.332 110.145 175.744 109.878 176.257 109.706L177.903 109.152C178.681 108.89 179.394 108.931 180.041 109.275C180.677 109.612 181.134 110.197 181.414 111.029L181.802 112.183ZM180.105 111.484C179.98 111.112 179.756 110.858 179.434 110.72C179.1 110.576 178.73 110.573 178.323 110.71L176.85 111.205C176.443 111.342 176.153 111.563 175.98 111.867C175.798 112.175 175.769 112.514 175.894 112.886L176.269 114C176.394 114.372 176.622 114.625 176.953 114.76C177.275 114.898 177.64 114.898 178.046 114.761L179.519 114.266C179.926 114.129 180.221 113.907 180.403 113.599C180.576 113.295 180.603 112.966 180.484 112.612L180.105 111.484ZM179.272 104.66C179.528 105.421 179.529 106.1 179.277 106.697C179.025 107.294 178.563 107.705 177.891 107.931L177.386 106.432C177.669 106.337 177.868 106.166 177.982 105.921C178.088 105.679 178.089 105.403 177.985 105.093L177.587 103.912C177.486 103.611 177.359 103.393 177.205 103.258C177.039 103.117 176.868 103.076 176.691 103.136L176.399 103.234C176.275 103.275 176.187 103.364 176.134 103.5C176.078 103.627 176.062 103.785 176.087 103.974L176.461 106.403C176.545 106.946 176.496 107.416 176.314 107.812C176.123 108.211 175.838 108.474 175.457 108.602L175.02 108.749C174.471 108.934 173.965 108.863 173.5 108.537C173.033 108.202 172.67 107.649 172.411 106.88L172.054 105.818C171.819 105.119 171.819 104.489 172.053 103.928C172.288 103.366 172.715 102.981 173.334 102.773L173.838 104.272C173.6 104.353 173.436 104.496 173.348 104.703C173.257 104.901 173.255 105.128 173.341 105.385L173.694 106.433C173.798 106.743 173.927 106.965 174.081 107.101C174.235 107.236 174.4 107.274 174.577 107.214L174.842 107.125C174.966 107.083 175.056 106.999 175.112 106.872C175.165 106.736 175.176 106.58 175.146 106.403L174.771 103.885C174.705 103.365 174.76 102.914 174.936 102.529C175.112 102.145 175.386 101.891 175.757 101.766L176.248 101.601C176.797 101.416 177.31 101.494 177.79 101.835C178.26 102.179 178.621 102.727 178.874 103.479L179.272 104.66Z" fill="#F8F9FA"/>
<path d="M236.637 179.474C235.951 180.161 235.212 180.504 234.42 180.504C233.628 180.504 232.889 180.161 232.202 179.474L233.341 178.336C233.71 178.706 234.1 178.904 234.509 178.93C234.918 178.943 235.294 178.778 235.637 178.435L236.736 177.336C237.06 177.013 237.251 176.683 237.31 176.346C237.363 176.003 237.274 175.716 237.043 175.485L236.608 175.049C236.429 174.871 236.212 174.792 235.954 174.812C235.697 174.832 235.416 174.947 235.113 175.158L233.004 176.653C232.351 177.122 231.734 177.369 231.153 177.396C230.579 177.415 230.077 177.211 229.648 176.782L229.104 176.237C228.767 175.901 228.559 175.515 228.48 175.079C228.407 174.637 228.467 174.181 228.658 173.713C228.843 173.238 229.153 172.782 229.589 172.347L230.707 171.228C231.117 170.819 231.562 170.545 232.044 170.406C232.526 170.255 233.007 170.248 233.489 170.387C233.971 170.525 234.413 170.796 234.816 171.198L233.687 172.327C233.384 172.023 233.05 171.868 232.687 171.862C232.324 171.842 232.004 171.971 231.727 172.248L230.608 173.366C230.298 173.677 230.117 173.997 230.064 174.327C230.011 174.643 230.1 174.917 230.331 175.148L230.688 175.505C230.872 175.689 231.094 175.779 231.351 175.772C231.602 175.759 231.872 175.647 232.163 175.435L234.281 173.95C234.948 173.482 235.568 173.231 236.142 173.198C236.716 173.152 237.211 173.337 237.627 173.752L238.271 174.396C238.607 174.733 238.815 175.125 238.894 175.574C238.967 176.016 238.908 176.478 238.716 176.96C238.525 177.442 238.211 177.9 237.776 178.336L236.637 179.474ZM242.849 173.263C242.446 173.665 242.014 173.946 241.552 174.104C241.097 174.256 240.645 174.279 240.196 174.173C239.754 174.061 239.351 173.824 238.988 173.461L237.662 172.134C237.279 171.751 237.025 171.332 236.899 170.877C236.774 170.408 236.784 169.943 236.929 169.481C237.074 169.006 237.348 168.567 237.751 168.164L238.543 167.372C239.143 166.772 239.8 166.465 240.513 166.452C241.226 166.439 241.872 166.722 242.453 167.303L243.443 168.293L239.77 171.966L240.127 172.322C240.391 172.586 240.681 172.718 240.998 172.718C241.321 172.712 241.618 172.573 241.889 172.302L242.651 171.54C242.915 171.276 243.064 171.002 243.097 170.718C243.13 170.421 243.04 170.167 242.829 169.956L243.948 168.838C244.449 169.339 244.667 169.926 244.601 170.6C244.535 171.273 244.202 171.91 243.601 172.51L242.849 173.263ZM241.473 168.56L241.334 168.422C241.044 168.131 240.731 167.976 240.394 167.956C240.057 167.937 239.76 168.055 239.503 168.313L238.701 169.115C238.431 169.385 238.305 169.702 238.325 170.065C238.345 170.415 238.506 170.742 238.81 171.045L238.899 171.134L241.473 168.56ZM247.119 158.796C247.601 158.314 248.139 158.087 248.733 158.113C249.333 158.133 249.894 158.403 250.416 158.925L253.722 162.231L252.584 163.37L249.267 160.053C249.049 159.836 248.828 159.713 248.604 159.687C248.373 159.654 248.175 159.72 248.01 159.885L247.535 160.36C247.317 160.578 247.211 160.842 247.218 161.152C247.218 161.456 247.327 161.763 247.545 162.073L250.713 165.241L249.584 166.369L246.297 163.083C246.073 162.858 245.845 162.73 245.614 162.697C245.377 162.657 245.175 162.72 245.01 162.885L244.565 163.33C244.347 163.548 244.255 163.838 244.288 164.201C244.321 164.551 244.469 164.904 244.733 165.26L247.713 168.24L246.575 169.379L241.635 164.439L242.694 163.38L243.318 164.003C243.225 163.66 243.212 163.33 243.278 163.013C243.344 162.697 243.476 162.439 243.674 162.241L244.238 161.677C244.489 161.426 244.779 161.268 245.109 161.202C245.433 161.129 245.766 161.152 246.109 161.271C246.024 160.895 246.02 160.542 246.099 160.212C246.172 159.875 246.324 159.591 246.555 159.36L247.119 158.796ZM252.752 153.321L253.812 152.262L254.396 152.846C254.336 152.509 254.356 152.173 254.455 151.836C254.554 151.487 254.709 151.206 254.92 150.995L255.574 150.341C256.148 149.767 256.785 149.48 257.484 149.48C258.184 149.467 258.817 149.744 259.385 150.312L260.533 151.46C261.154 152.081 261.477 152.754 261.503 153.48C261.53 154.206 261.253 154.859 260.672 155.44L260.009 156.103C259.817 156.294 259.573 156.446 259.276 156.558C258.973 156.664 258.676 156.704 258.385 156.677L260.811 159.103L259.672 160.241L252.752 153.321ZM259.573 154.578C259.844 154.308 259.956 153.985 259.91 153.608C259.87 153.226 259.679 152.863 259.336 152.519L258.326 151.51C258.035 151.219 257.719 151.067 257.375 151.054C257.026 151.034 256.715 151.16 256.445 151.43L255.811 152.064C255.587 152.288 255.468 152.585 255.455 152.955C255.442 153.311 255.534 153.668 255.732 154.024L256.88 155.172C257.224 155.45 257.587 155.595 257.969 155.608C258.352 155.608 258.676 155.476 258.94 155.212L259.573 154.578ZM258.64 147.434L259.699 146.375L260.372 147.048C260.3 146.711 260.323 146.358 260.442 145.988C260.56 145.606 260.752 145.282 261.016 145.018L261.61 144.424L262.6 145.414L262.006 146.008C261.629 146.384 261.441 146.803 261.441 147.265C261.441 147.727 261.626 148.143 261.996 148.513L264.718 151.235L263.58 152.374L258.64 147.434ZM269.038 147.073C268.636 147.476 268.203 147.756 267.741 147.915C267.286 148.067 266.834 148.09 266.385 147.984C265.943 147.872 265.54 147.634 265.177 147.271L263.851 145.945C263.468 145.562 263.214 145.143 263.089 144.688C262.963 144.219 262.973 143.754 263.118 143.292C263.264 142.817 263.537 142.378 263.94 141.975L264.732 141.183C265.333 140.583 265.989 140.276 266.702 140.263C267.415 140.249 268.061 140.533 268.642 141.114L269.632 142.104L265.96 145.777L266.316 146.133C266.58 146.397 266.87 146.529 267.187 146.529C267.51 146.522 267.807 146.384 268.078 146.113L268.84 145.351C269.104 145.087 269.253 144.813 269.286 144.529C269.319 144.232 269.23 143.978 269.018 143.767L270.137 142.648C270.639 143.15 270.856 143.737 270.79 144.41C270.724 145.084 270.391 145.72 269.791 146.321L269.038 147.073ZM267.662 142.371L267.524 142.233C267.233 141.942 266.92 141.787 266.583 141.767C266.247 141.747 265.95 141.866 265.692 142.124L264.89 142.926C264.62 143.196 264.494 143.513 264.514 143.876C264.534 144.226 264.696 144.552 264.999 144.856L265.088 144.945L267.662 142.371ZM262.356 138.887L263.613 137.629L264.207 140.421L263.128 141.5L262.356 138.887ZM273.308 132.607C273.79 132.125 274.328 131.897 274.922 131.924C275.522 131.944 276.083 132.214 276.605 132.736L279.911 136.042L278.773 137.181L275.456 133.864C275.239 133.646 275.018 133.524 274.793 133.498C274.562 133.465 274.364 133.531 274.199 133.696L273.724 134.171C273.506 134.389 273.401 134.653 273.407 134.963C273.407 135.267 273.516 135.573 273.734 135.884L276.902 139.052L275.773 140.18L272.487 136.893C272.262 136.669 272.035 136.54 271.804 136.507C271.566 136.468 271.365 136.53 271.2 136.695L270.754 137.141C270.536 137.359 270.444 137.649 270.477 138.012C270.51 138.362 270.658 138.715 270.922 139.071L273.902 142.051L272.764 143.189L267.824 138.25L268.883 137.19L269.507 137.814C269.414 137.471 269.401 137.141 269.467 136.824C269.533 136.507 269.665 136.25 269.863 136.052L270.428 135.488C270.678 135.237 270.969 135.079 271.299 135.013C271.622 134.94 271.955 134.963 272.299 135.082C272.213 134.706 272.209 134.353 272.289 134.023C272.361 133.686 272.513 133.402 272.744 133.171L273.308 132.607ZM276.365 128.6C276.14 128.825 275.893 128.94 275.622 128.947C275.352 128.94 275.111 128.831 274.9 128.62C274.688 128.409 274.583 128.171 274.583 127.907C274.583 127.63 274.695 127.379 274.919 127.155C275.144 126.93 275.395 126.818 275.672 126.818C275.942 126.812 276.183 126.914 276.394 127.125C276.606 127.336 276.711 127.58 276.711 127.858C276.705 128.128 276.589 128.376 276.365 128.6ZM276.355 129.719L277.493 128.58L282.433 133.52L281.295 134.659L276.355 129.719ZM285.782 130.33C285.175 130.937 284.512 131.25 283.792 131.27C283.066 131.283 282.413 130.999 281.832 130.419L280.605 129.191C280.222 128.808 279.968 128.389 279.842 127.934C279.717 127.465 279.727 127 279.872 126.538C280.017 126.063 280.291 125.624 280.694 125.221L281.565 124.35C281.967 123.948 282.403 123.677 282.872 123.539C283.34 123.387 283.805 123.377 284.267 123.509C284.729 123.628 285.152 123.878 285.535 124.261L286.762 125.489C287.343 126.07 287.623 126.726 287.604 127.459C287.584 128.178 287.264 128.848 286.643 129.468L285.782 130.33ZM285.653 128.498C285.931 128.221 286.059 127.908 286.039 127.558C286.02 127.195 285.858 126.861 285.554 126.558L284.456 125.459C284.152 125.155 283.825 124.994 283.475 124.974C283.119 124.948 282.802 125.073 282.525 125.35L281.694 126.182C281.416 126.459 281.291 126.776 281.317 127.132C281.337 127.482 281.499 127.809 281.802 128.112L282.901 129.211C283.205 129.515 283.535 129.68 283.891 129.706C284.241 129.726 284.548 129.604 284.812 129.34L285.653 128.498Z" fill="#212529"/>
<path d="M216.93 252.308C216.602 251.394 216.607 250.579 216.944 249.863C217.282 249.147 217.908 248.624 218.821 248.296L219.366 249.812C218.874 249.988 218.529 250.256 218.33 250.615C218.144 250.979 218.132 251.39 218.296 251.847L218.822 253.309C218.976 253.74 219.193 254.054 219.472 254.251C219.76 254.445 220.058 254.487 220.365 254.376L220.945 254.168C221.182 254.083 221.346 253.92 221.438 253.679C221.53 253.437 221.545 253.134 221.484 252.77L221.031 250.225C220.886 249.434 220.926 248.771 221.149 248.234C221.376 247.706 221.775 247.34 222.346 247.135L223.071 246.875C223.519 246.714 223.957 246.69 224.385 246.805C224.816 246.928 225.202 247.175 225.544 247.548C225.895 247.918 226.175 248.393 226.383 248.973L226.918 250.462C227.113 251.006 227.171 251.526 227.091 252.021C227.022 252.521 226.823 252.96 226.492 253.337C226.161 253.713 225.728 253.998 225.192 254.19L224.653 252.688C225.057 252.543 225.339 252.308 225.5 251.982C225.673 251.662 225.693 251.318 225.56 250.949L225.026 249.46C224.878 249.047 224.665 248.747 224.39 248.558C224.126 248.375 223.84 248.339 223.532 248.449L223.058 248.62C222.812 248.708 222.637 248.87 222.533 249.106C222.438 249.338 222.424 249.631 222.492 249.983L222.931 252.533C223.07 253.336 223.033 254.004 222.818 254.537C222.614 255.076 222.236 255.445 221.683 255.644L220.826 255.951C220.378 256.112 219.935 256.133 219.495 256.013C219.064 255.89 218.671 255.639 218.317 255.26C217.963 254.882 217.682 254.403 217.474 253.823L216.93 252.308ZM219.899 260.576C219.706 260.04 219.637 259.529 219.691 259.044C219.748 258.567 219.92 258.148 220.206 257.788C220.497 257.435 220.883 257.173 221.366 256.999L223.132 256.365C223.641 256.182 224.129 256.131 224.594 256.212C225.071 256.298 225.488 256.506 225.844 256.834C226.212 257.168 226.492 257.603 226.684 258.139L227.063 259.193C227.35 259.993 227.347 260.717 227.055 261.368C226.763 262.018 226.231 262.482 225.458 262.759L224.14 263.233L222.385 258.344L221.91 258.514C221.559 258.641 221.316 258.847 221.181 259.133C221.049 259.429 221.047 259.757 221.177 260.117L221.541 261.131C221.667 261.483 221.852 261.734 222.094 261.885C222.349 262.041 222.616 262.069 222.898 261.968L223.432 263.457C222.765 263.697 222.14 263.643 221.56 263.296C220.979 262.949 220.545 262.376 220.258 261.577L219.899 260.576ZM224.739 261.337L224.923 261.271C225.309 261.132 225.583 260.914 225.745 260.618C225.906 260.322 225.926 260.003 225.803 259.661L225.419 258.593C225.29 258.233 225.057 257.985 224.72 257.848C224.396 257.716 224.031 257.723 223.627 257.868L223.508 257.911L224.739 261.337ZM231.162 270.608C231.392 271.25 231.368 271.833 231.091 272.359C230.817 272.894 230.333 273.286 229.639 273.535L225.238 275.115L224.694 273.6L229.108 272.015C229.398 271.911 229.603 271.763 229.722 271.571C229.851 271.376 229.876 271.169 229.797 270.95L229.57 270.317C229.466 270.027 229.272 269.819 228.988 269.693C228.714 269.563 228.39 269.531 228.016 269.596L223.8 271.11L223.261 269.608L227.635 268.037C227.934 267.929 228.147 267.778 228.276 267.584C228.413 267.386 228.442 267.177 228.363 266.957L228.15 266.364C228.046 266.074 227.823 265.867 227.481 265.742C227.15 265.623 226.767 265.606 226.332 265.693L222.366 267.117L221.822 265.602L228.397 263.241L228.904 264.651L228.073 264.949C228.423 265.012 228.727 265.141 228.986 265.335C229.244 265.53 229.421 265.759 229.515 266.023L229.785 266.774C229.905 267.108 229.924 267.438 229.843 267.765C229.771 268.088 229.608 268.38 229.354 268.639C229.731 268.722 230.052 268.87 230.316 269.082C230.59 269.291 230.782 269.55 230.892 269.857L231.162 270.608ZM233.711 278.039L234.217 279.449L233.44 279.728C233.769 279.818 234.065 279.979 234.327 280.212C234.602 280.451 234.789 280.711 234.89 280.992L235.202 281.861C235.477 282.626 235.465 283.324 235.166 283.957C234.88 284.595 234.359 285.05 233.604 285.321L232.075 285.87C231.249 286.167 230.503 286.172 229.835 285.886C229.167 285.6 228.694 285.071 228.417 284.298L228.1 283.415C228.008 283.16 227.975 282.875 228 282.558C228.034 282.239 228.125 281.953 228.273 281.702L225.045 282.861L224.5 281.346L233.711 278.039ZM229.664 283.672C229.794 284.032 230.038 284.271 230.398 284.39C230.761 284.517 231.171 284.499 231.628 284.335L232.972 283.852C233.358 283.714 233.631 283.492 233.789 283.187C233.956 282.879 233.975 282.545 233.846 282.185L233.543 281.342C233.436 281.043 233.218 280.809 232.889 280.639C232.573 280.475 232.211 280.407 231.804 280.434L230.276 280.983C229.878 281.175 229.592 281.441 229.417 281.782C229.254 282.128 229.235 282.477 229.361 282.828L229.664 283.672ZM236.524 285.875L237.031 287.285L236.135 287.607C236.47 287.684 236.78 287.856 237.063 288.121C237.359 288.392 237.57 288.703 237.696 289.054L237.98 289.845L236.662 290.318L236.378 289.527C236.198 289.027 235.9 288.678 235.482 288.481C235.064 288.284 234.609 288.273 234.117 288.45L230.494 289.751L229.949 288.236L236.524 285.875ZM232.415 295.434C232.223 294.898 232.153 294.387 232.207 293.902C232.264 293.425 232.436 293.006 232.723 292.646C233.013 292.294 233.4 292.031 233.883 291.857L235.648 291.223C236.158 291.04 236.645 290.989 237.111 291.07C237.588 291.157 238.005 291.364 238.36 291.692C238.728 292.026 239.008 292.461 239.201 292.997L239.579 294.051C239.866 294.851 239.864 295.575 239.572 296.226C239.28 296.876 238.747 297.34 237.974 297.618L236.656 298.091L234.901 293.202L234.427 293.373C234.075 293.499 233.832 293.705 233.697 293.992C233.565 294.287 233.564 294.615 233.693 294.975L234.057 295.989C234.184 296.341 234.368 296.592 234.611 296.743C234.865 296.899 235.133 296.927 235.414 296.826L235.949 298.315C235.281 298.555 234.657 298.501 234.076 298.154C233.495 297.808 233.062 297.234 232.775 296.435L232.415 295.434ZM237.255 296.195L237.439 296.129C237.826 295.99 238.1 295.772 238.261 295.476C238.423 295.18 238.442 294.861 238.319 294.519L237.936 293.451C237.807 293.091 237.574 292.843 237.237 292.706C236.912 292.574 236.548 292.581 236.143 292.726L236.025 292.769L237.255 296.195ZM242.67 292.882L243.271 294.555L240.493 293.902L239.977 292.466L242.67 292.882ZM243.678 305.466C243.908 306.108 243.885 306.691 243.608 307.217C243.334 307.752 242.85 308.144 242.156 308.393L237.755 309.973L237.211 308.458L241.625 306.873C241.915 306.769 242.119 306.621 242.239 306.429C242.367 306.235 242.392 306.027 242.313 305.808L242.086 305.175C241.982 304.885 241.788 304.677 241.505 304.551C241.23 304.421 240.906 304.389 240.533 304.454L236.316 305.968L235.777 304.466L240.152 302.895C240.45 302.788 240.664 302.637 240.792 302.442C240.929 302.244 240.958 302.035 240.88 301.815L240.667 301.222C240.563 300.932 240.339 300.725 239.997 300.6C239.667 300.481 239.284 300.464 238.849 300.551L234.883 301.975L234.339 300.46L240.914 298.099L241.42 299.509L240.59 299.807C240.94 299.87 241.244 299.999 241.502 300.193C241.761 300.388 241.937 300.617 242.032 300.881L242.301 301.632C242.421 301.966 242.441 302.296 242.36 302.623C242.287 302.946 242.124 303.238 241.87 303.497C242.247 303.58 242.568 303.728 242.833 303.94C243.106 304.15 243.298 304.408 243.408 304.715L243.678 305.466ZM245.998 309.94C245.891 309.641 245.892 309.368 246.002 309.121C246.123 308.879 246.324 308.707 246.605 308.606C246.887 308.505 247.147 308.511 247.385 308.624C247.636 308.742 247.815 308.95 247.922 309.249C248.029 309.548 248.024 309.822 247.906 310.073C247.796 310.321 247.601 310.495 247.32 310.596C247.039 310.697 246.773 310.688 246.522 310.57C246.28 310.449 246.106 310.239 245.998 309.94ZM244.991 309.454L245.535 310.969L238.96 313.33L238.416 311.815L244.991 309.454ZM240.417 317.72C240.127 316.912 240.126 316.178 240.415 315.519C240.713 314.857 241.249 314.387 242.022 314.109L243.655 313.523C244.165 313.34 244.652 313.289 245.118 313.37C245.595 313.456 246.012 313.663 246.367 313.992C246.735 314.326 247.015 314.761 247.208 315.297L247.624 316.456C247.817 316.992 247.876 317.501 247.801 317.984C247.738 318.473 247.549 318.898 247.233 319.259C246.928 319.626 246.521 319.902 246.012 320.084L244.378 320.671C243.605 320.949 242.891 320.922 242.237 320.592C241.595 320.267 241.125 319.692 240.829 318.866L240.417 317.72ZM242.129 318.385C242.261 318.754 242.49 319.004 242.815 319.135C243.151 319.272 243.522 319.268 243.926 319.123L245.388 318.598C245.792 318.453 246.078 318.226 246.245 317.918C246.421 317.607 246.443 317.267 246.31 316.898L245.913 315.791C245.78 315.422 245.547 315.174 245.214 315.046C244.889 314.914 244.524 314.921 244.12 315.066L242.658 315.592C242.254 315.737 241.964 315.965 241.788 316.276C241.621 316.584 241.6 316.913 241.726 317.265L242.129 318.385Z" fill="#212529"/>
<path d="M166.176 199.985C167.122 200.203 167.805 200.648 168.225 201.32C168.645 201.991 168.745 202.8 168.527 203.746L166.958 203.384C167.076 202.875 167.037 202.439 166.843 202.078C166.637 201.724 166.298 201.493 165.825 201.384L164.311 201.035C163.865 200.932 163.484 200.945 163.167 201.073C162.848 201.21 162.652 201.437 162.578 201.756L162.44 202.356C162.383 202.602 162.431 202.828 162.585 203.036C162.738 203.244 162.985 203.42 163.325 203.566L165.71 204.561C166.454 204.867 166.99 205.259 167.321 205.737C167.642 206.214 167.734 206.748 167.598 207.339L167.425 208.089C167.318 208.553 167.101 208.934 166.773 209.232C166.437 209.528 166.019 209.719 165.521 209.805C165.02 209.9 164.469 209.879 163.869 209.74L162.327 209.385C161.764 209.255 161.295 209.022 160.922 208.687C160.538 208.359 160.277 207.954 160.139 207.472C160.001 206.99 159.996 206.472 160.124 205.917L161.68 206.275C161.583 206.694 161.628 207.059 161.815 207.37C161.991 207.688 162.269 207.891 162.651 207.979L164.193 208.335C164.62 208.434 164.988 208.418 165.296 208.288C165.592 208.164 165.777 207.944 165.851 207.625L165.964 207.134C166.023 206.88 165.981 206.645 165.839 206.43C165.695 206.225 165.456 206.055 165.123 205.92L162.741 204.911C161.991 204.594 161.449 204.201 161.117 203.732C160.773 203.27 160.667 202.752 160.8 202.179L161.004 201.292C161.111 200.828 161.334 200.444 161.672 200.139C162.009 199.843 162.432 199.648 162.942 199.555C163.452 199.462 164.007 199.485 164.607 199.623L166.176 199.985ZM157.616 198.011C158.171 198.139 158.638 198.357 159.017 198.664C159.387 198.97 159.646 199.341 159.795 199.778C159.934 200.212 159.946 200.679 159.831 201.18L159.409 203.008C159.287 203.535 159.067 203.973 158.747 204.32C158.416 204.675 158.016 204.913 157.548 205.035C157.068 205.164 156.551 205.164 155.996 205.036L154.904 204.785C154.077 204.594 153.469 204.2 153.079 203.602C152.69 203.005 152.588 202.306 152.773 201.506L153.087 200.142L158.149 201.309L158.262 200.818C158.346 200.454 158.304 200.138 158.136 199.869C157.959 199.599 157.684 199.42 157.311 199.334L156.26 199.092C155.897 199.008 155.586 199.027 155.328 199.15C155.058 199.279 154.89 199.489 154.823 199.78L153.281 199.425C153.441 198.734 153.823 198.238 154.429 197.937C155.035 197.636 155.752 197.581 156.579 197.772L157.616 198.011ZM154.358 201.67L154.314 201.861C154.222 202.262 154.257 202.61 154.418 202.905C154.58 203.201 154.838 203.39 155.193 203.472L156.298 203.727C156.671 203.813 157.006 203.751 157.303 203.542C157.589 203.34 157.78 203.03 157.877 202.611L157.905 202.488L154.358 201.67ZM143.086 202.059C142.422 201.906 141.944 201.571 141.651 201.053C141.35 200.533 141.282 199.914 141.448 199.196L142.498 194.639L144.067 195.001L143.013 199.571C142.944 199.871 142.958 200.123 143.054 200.328C143.149 200.541 143.31 200.674 143.537 200.726L144.192 200.877C144.492 200.947 144.772 200.896 145.031 200.726C145.289 200.565 145.491 200.31 145.639 199.961L146.646 195.596L148.201 195.954L147.156 200.483C147.085 200.793 147.096 201.054 147.191 201.267C147.283 201.49 147.443 201.627 147.671 201.68L148.284 201.821C148.585 201.89 148.88 201.815 149.17 201.594C149.449 201.381 149.67 201.068 149.832 200.655L150.779 196.549L152.348 196.911L150.778 203.718L149.318 203.381L149.516 202.522C149.274 202.782 149.002 202.968 148.698 203.08C148.394 203.192 148.106 203.217 147.833 203.154L147.056 202.975C146.71 202.895 146.422 202.733 146.191 202.488C145.958 202.252 145.801 201.957 145.72 201.603C145.446 201.876 145.149 202.065 144.827 202.173C144.503 202.29 144.182 202.312 143.864 202.238L143.086 202.059ZM135.457 200.185L133.998 199.848L134.183 199.043C133.929 199.272 133.634 199.434 133.296 199.528C132.947 199.63 132.627 199.647 132.336 199.58L131.435 199.372C130.644 199.19 130.063 198.802 129.692 198.209C129.31 197.622 129.209 196.938 129.39 196.156L129.755 194.574C129.952 193.719 130.351 193.088 130.953 192.681C131.554 192.273 132.255 192.162 133.055 192.347L133.969 192.557C134.233 192.618 134.491 192.745 134.744 192.937C134.994 193.139 135.185 193.369 135.317 193.63L136.088 190.287L137.657 190.649L135.457 200.185ZM132.908 193.735C132.535 193.649 132.201 193.725 131.907 193.964C131.603 194.2 131.397 194.555 131.288 195.028L130.967 196.419C130.874 196.819 130.914 197.169 131.084 197.467C131.253 197.774 131.524 197.97 131.897 198.056L132.77 198.258C133.079 198.329 133.394 198.272 133.714 198.087C134.023 197.91 134.277 197.642 134.474 197.286L134.839 195.703C134.892 195.265 134.823 194.88 134.631 194.549C134.428 194.224 134.145 194.02 133.781 193.936L132.908 193.735ZM127.344 198.314L125.885 197.977L126.098 197.049C125.852 197.289 125.54 197.457 125.164 197.552C124.776 197.654 124.4 197.663 124.037 197.58L123.218 197.391L123.533 196.027L124.351 196.215C124.87 196.335 125.325 196.272 125.716 196.027C126.108 195.782 126.363 195.405 126.48 194.896L127.345 191.145L128.914 191.506L127.344 198.314ZM121.526 189.688C122.081 189.816 122.548 190.033 122.927 190.341C123.297 190.647 123.557 191.018 123.705 191.454C123.844 191.889 123.856 192.356 123.741 192.856L123.319 194.684C123.198 195.212 122.977 195.649 122.657 195.997C122.326 196.352 121.927 196.59 121.458 196.712C120.978 196.841 120.461 196.841 119.906 196.713L118.815 196.461C117.987 196.271 117.379 195.876 116.99 195.279C116.601 194.682 116.498 193.983 116.683 193.183L116.998 191.818L122.059 192.986L122.172 192.495C122.256 192.131 122.214 191.815 122.046 191.546C121.869 191.275 121.594 191.097 121.221 191.011L120.171 190.769C119.807 190.685 119.496 190.704 119.238 190.826C118.969 190.956 118.8 191.166 118.733 191.457L117.192 191.102C117.351 190.41 117.734 189.914 118.339 189.614C118.945 189.313 119.662 189.258 120.49 189.448L121.526 189.688ZM118.269 193.347L118.225 193.538C118.132 193.938 118.167 194.286 118.329 194.582C118.49 194.878 118.748 195.067 119.103 195.149L120.208 195.404C120.581 195.49 120.916 195.428 121.213 195.219C121.499 195.017 121.691 194.706 121.787 194.288L121.816 194.165L118.269 193.347ZM118.127 199.694L116.394 199.294L118.447 197.31L119.933 197.653L118.127 199.694ZM106.996 193.736C106.332 193.583 105.854 193.247 105.562 192.73C105.26 192.21 105.192 191.591 105.358 190.872L106.409 186.316L107.977 186.678L106.923 191.248C106.854 191.548 106.868 191.8 106.965 192.004C107.059 192.218 107.22 192.351 107.447 192.403L108.102 192.554C108.402 192.623 108.682 192.573 108.942 192.403C109.199 192.242 109.401 191.987 109.549 191.638L110.556 187.272L112.111 187.631L111.066 192.16C110.995 192.469 111.007 192.731 111.101 192.944C111.194 193.167 111.353 193.304 111.581 193.356L112.195 193.498C112.495 193.567 112.79 193.492 113.08 193.271C113.359 193.058 113.58 192.745 113.742 192.332L114.689 188.226L116.258 188.588L114.688 195.395L113.228 195.058L113.427 194.199C113.185 194.459 112.912 194.645 112.608 194.757C112.305 194.869 112.016 194.894 111.744 194.831L110.966 194.651C110.62 194.572 110.332 194.409 110.101 194.165C109.868 193.929 109.711 193.634 109.63 193.28C109.357 193.552 109.059 193.742 108.737 193.85C108.413 193.967 108.092 193.989 107.774 193.915L106.996 193.736ZM101.978 193.268C102.288 193.34 102.517 193.488 102.666 193.714C102.804 193.947 102.839 194.209 102.772 194.5C102.705 194.791 102.559 195.007 102.336 195.146C102.1 195.293 101.828 195.331 101.519 195.26C101.21 195.189 100.982 195.035 100.835 194.8C100.686 194.574 100.645 194.316 100.712 194.025C100.779 193.734 100.93 193.515 101.165 193.368C101.398 193.23 101.669 193.197 101.978 193.268ZM102.932 192.684L101.363 192.322L102.933 185.514L104.502 185.876L102.932 192.684ZM98.4527 184.366C99.2894 184.559 99.9068 184.955 100.305 185.555C100.701 186.163 100.807 186.868 100.622 187.668L100.232 189.36C100.11 189.887 99.8897 190.325 99.57 190.673C99.2392 191.027 98.8394 191.266 98.3707 191.387C97.8908 191.516 97.3735 191.517 96.8187 191.389L95.6183 191.112C95.0635 190.984 94.6031 190.758 94.2372 190.434C93.8601 190.117 93.6051 189.728 93.4721 189.266C93.3279 188.812 93.3167 188.32 93.4383 187.793L93.8284 186.101C94.013 185.301 94.4211 184.715 95.0528 184.344C95.6733 183.979 96.4109 183.895 97.2658 184.092L98.4527 184.366ZM96.968 185.446C96.586 185.358 96.252 185.415 95.9659 185.617C95.6686 185.827 95.4717 186.14 95.3752 186.559L95.026 188.073C94.9295 188.491 94.9656 188.854 95.1342 189.161C95.3008 189.477 95.575 189.679 95.957 189.767L97.1029 190.032C97.4849 190.12 97.82 190.058 98.1082 189.847C98.3943 189.645 98.5856 189.334 98.682 188.916L99.0313 187.402C99.1278 186.983 99.0927 186.616 98.9262 186.3C98.7576 185.993 98.4913 185.797 98.1276 185.714L96.968 185.446Z" fill="#212529"/>
<path d="M171.551 249.094L167.839 252.482C167.232 253.036 166.585 253.311 165.898 253.306C165.218 253.308 164.623 253.03 164.113 252.471L163.207 251.479C162.672 250.893 162.438 250.241 162.503 249.524C162.568 248.82 162.918 248.179 163.552 247.6L165.961 245.401L163.734 242.96L164.943 241.856L171.551 249.094ZM164.536 248.636C164.253 248.894 164.108 249.184 164.099 249.508C164.084 249.837 164.203 250.14 164.454 250.416L165.295 251.336C165.527 251.591 165.789 251.725 166.079 251.738C166.369 251.751 166.642 251.642 166.897 251.409L169.378 249.144L166.924 246.455L164.536 248.636ZM156.804 249.134C157.328 248.656 157.872 248.4 158.435 248.366C158.997 248.346 159.48 248.556 159.883 248.997L160.223 249.369C160.619 249.804 160.771 250.303 160.68 250.867C160.581 251.437 160.259 251.971 159.715 252.468L159.074 253.053C158.881 253.229 158.649 253.39 158.378 253.537C158.107 253.683 157.844 253.79 157.59 253.857L158.175 254.499C158.37 254.712 158.597 254.822 158.854 254.827C159.112 254.832 159.351 254.734 159.571 254.532L160.44 253.739C160.667 253.532 160.799 253.31 160.837 253.074C160.88 252.845 160.823 252.644 160.666 252.471L161.824 251.414C162.258 251.89 162.432 252.433 162.344 253.043C162.257 253.654 161.927 254.22 161.355 254.742L160.487 255.535C159.908 256.064 159.298 256.33 158.657 256.334C158.022 256.345 157.469 256.092 156.997 255.575L153.778 252.049L154.884 251.039L155.479 251.69C155.443 251.319 155.486 250.951 155.609 250.586C155.737 250.229 155.922 249.94 156.163 249.72L156.804 249.134ZM156.94 250.716C156.665 250.968 156.486 251.27 156.404 251.623C156.328 251.983 156.362 252.332 156.505 252.668L156.731 252.917C156.937 252.906 157.171 252.831 157.435 252.691C157.706 252.558 157.958 252.384 158.192 252.17L158.844 251.576C159.05 251.387 159.172 251.181 159.209 250.958C159.238 250.742 159.178 250.551 159.027 250.385L158.762 250.096C158.605 249.923 158.414 249.845 158.188 249.861C157.963 249.878 157.744 249.983 157.53 250.178L156.94 250.716ZM157.225 258.362L156.118 259.372L155.505 258.699C155.561 259.065 155.528 259.431 155.405 259.795C155.283 260.159 155.098 260.455 154.85 260.681L154.209 261.267C153.678 261.751 153.1 261.969 152.474 261.921C151.842 261.879 151.274 261.582 150.771 261.031L147.665 257.629L148.854 256.543L151.931 259.914C152.158 260.162 152.406 260.302 152.675 260.335C152.944 260.38 153.182 260.308 153.389 260.119L154.03 259.534C154.299 259.289 154.445 258.965 154.47 258.563C154.502 258.168 154.403 257.784 154.176 257.41L151.326 254.288L152.515 253.202L157.225 258.362ZM150.869 265.225C151.103 265.011 151.356 264.907 151.626 264.913C151.896 264.932 152.132 265.051 152.333 265.272C152.535 265.493 152.629 265.735 152.617 265.999C152.605 266.275 152.481 266.521 152.247 266.735C152.013 266.949 151.757 267.049 151.48 267.037C151.209 267.031 150.973 266.918 150.772 266.697C150.571 266.477 150.476 266.228 150.489 265.951C150.508 265.681 150.634 265.439 150.869 265.225ZM150.93 264.108L149.741 265.194L145.031 260.034L146.22 258.949L150.93 264.108ZM139.982 264.643L143.73 265.24L143.782 264.093L142.329 262.5L143.518 261.415L150.125 268.653L148.936 269.738L145.019 265.447L144.836 269.67L143.441 270.945L143.653 266.713L138.617 265.889L139.982 264.643ZM136.218 267.927C136.639 267.543 137.083 267.283 137.552 267.145C138.014 267.014 138.467 267.012 138.91 267.138C139.347 267.27 139.738 267.526 140.084 267.905L141.349 269.29C141.714 269.69 141.949 270.12 142.053 270.581C142.157 271.055 142.126 271.519 141.96 271.974C141.793 272.442 141.5 272.868 141.079 273.252L140.252 274.007C139.625 274.58 138.955 274.856 138.242 274.837C137.53 274.818 136.897 274.505 136.343 273.898L135.399 272.864L139.235 269.363L138.895 268.99C138.643 268.715 138.359 268.569 138.043 268.555C137.72 268.547 137.417 268.672 137.134 268.93L136.338 269.657C136.062 269.908 135.901 270.175 135.855 270.457C135.809 270.752 135.886 271.01 136.088 271.231L134.919 272.297C134.441 271.774 134.25 271.177 134.347 270.507C134.443 269.838 134.805 269.217 135.433 268.644L136.218 267.927ZM137.379 272.687L137.511 272.832C137.788 273.135 138.094 273.304 138.429 273.339C138.765 273.374 139.067 273.269 139.336 273.024L140.173 272.259C140.456 272.001 140.596 271.691 140.592 271.327C140.588 270.977 140.442 270.643 140.152 270.326L140.067 270.233L137.379 272.687Z" fill="white"/>
<path d="M252.677 225.551C251.992 225.457 251.412 225.226 250.935 224.859C250.459 224.483 250.115 224.002 249.904 223.417C249.693 222.823 249.638 222.165 249.737 221.444L250.103 218.781C250.202 218.06 250.433 217.446 250.794 216.94C251.166 216.426 251.636 216.057 252.204 215.834C252.773 215.601 253.404 215.532 254.098 215.628L255.568 215.83C256.225 215.92 256.787 216.144 257.256 216.5C257.727 216.848 258.065 217.299 258.271 217.855C258.479 218.402 258.536 219.013 258.443 219.688L256.848 219.468C256.93 218.877 256.833 218.378 256.559 217.973C256.285 217.568 255.889 217.33 255.372 217.259L253.901 217.056C253.337 216.979 252.856 217.125 252.456 217.494C252.057 217.863 251.811 218.385 251.718 219.06L251.367 221.612C251.273 222.296 251.364 222.869 251.639 223.331C251.916 223.783 252.328 224.047 252.873 224.122L254.371 224.328C254.907 224.402 255.37 224.258 255.759 223.897C256.148 223.536 256.386 223.032 256.475 222.385L258.07 222.604C257.971 223.325 257.741 223.939 257.379 224.445C257.027 224.952 256.571 225.323 256.011 225.557C255.462 225.783 254.85 225.85 254.175 225.757L252.677 225.551ZM261.424 226.754C260.574 226.637 259.923 226.298 259.473 225.736C259.024 225.166 258.855 224.474 258.967 223.66L259.203 221.94C259.277 221.404 259.458 220.948 259.745 220.573C260.042 220.19 260.419 219.917 260.875 219.754C261.341 219.582 261.856 219.535 262.42 219.613L263.641 219.781C264.205 219.858 264.684 220.042 265.077 220.332C265.481 220.613 265.77 220.978 265.944 221.426C266.129 221.866 266.184 222.354 266.11 222.89L265.874 224.61C265.762 225.424 265.408 226.044 264.812 226.471C264.227 226.89 263.5 227.039 262.631 226.92L261.424 226.754ZM262.806 225.545C263.194 225.598 263.522 225.511 263.789 225.284C264.066 225.049 264.234 224.719 264.292 224.294L264.504 222.754C264.562 222.329 264.494 221.971 264.298 221.68C264.104 221.38 263.813 221.203 263.424 221.15L262.259 220.99C261.871 220.936 261.543 221.028 261.275 221.264C261.008 221.491 260.845 221.818 260.787 222.243L260.575 223.782C260.517 224.208 260.585 224.57 260.779 224.87C260.974 225.161 261.257 225.332 261.627 225.383L262.806 225.545ZM275.776 221.45C276.451 221.542 276.957 221.833 277.295 222.323C277.642 222.813 277.765 223.424 277.665 224.154L277.028 228.787L275.433 228.567L276.072 223.921C276.114 223.616 276.078 223.366 275.963 223.171C275.85 222.967 275.678 222.849 275.446 222.817L274.781 222.726C274.476 222.684 274.201 222.759 273.958 222.952C273.716 223.135 273.538 223.408 273.422 223.769L272.812 228.207L271.231 227.989L271.864 223.385C271.907 223.07 271.872 222.811 271.759 222.607C271.647 222.394 271.475 222.271 271.244 222.24L270.62 222.154C270.315 222.112 270.028 222.214 269.758 222.459C269.499 222.697 269.308 223.028 269.183 223.454L268.609 227.629L267.014 227.409L267.966 220.489L269.45 220.693L269.33 221.566C269.548 221.285 269.802 221.076 270.095 220.937C270.387 220.798 270.672 220.748 270.949 220.786L271.74 220.895C272.091 220.943 272.393 221.079 272.645 221.302C272.898 221.515 273.081 221.795 273.194 222.14C273.442 221.845 273.721 221.629 274.032 221.492C274.344 221.347 274.662 221.296 274.985 221.341L275.776 221.45ZM279.668 222.098L281.152 222.302L281.04 223.12C281.272 222.87 281.552 222.682 281.88 222.558C282.219 222.425 282.536 222.379 282.832 222.42L283.747 222.546C284.552 222.657 285.165 222.991 285.588 223.548C286.021 224.097 286.183 224.77 286.074 225.565L285.852 227.174C285.733 228.043 285.392 228.707 284.829 229.167C284.267 229.627 283.579 229.801 282.765 229.689L281.836 229.561C281.568 229.524 281.299 229.421 281.03 229.252C280.763 229.074 280.552 228.861 280.397 228.614L279.93 232.012L278.335 231.793L279.668 222.098ZM282.787 228.293C283.167 228.345 283.492 228.239 283.764 227.975C284.045 227.712 284.219 227.34 284.285 226.859L284.479 225.445C284.535 225.038 284.465 224.694 284.268 224.412C284.072 224.122 283.785 223.95 283.406 223.898L282.518 223.776C282.204 223.733 281.896 223.817 281.593 224.03C281.301 224.235 281.073 224.524 280.909 224.897L280.687 226.506C280.674 226.947 280.777 227.324 280.998 227.637C281.229 227.942 281.53 228.12 281.9 228.171L282.787 228.293ZM289.072 230.556C288.369 230.459 287.825 230.205 287.438 229.794C287.063 229.375 286.915 228.87 286.997 228.278L287.066 227.779C287.146 227.196 287.432 226.76 287.924 226.469C288.425 226.18 289.041 226.086 289.772 226.187L290.632 226.305C290.891 226.34 291.163 226.416 291.449 226.53C291.734 226.645 291.984 226.778 292.199 226.93L292.317 226.07C292.357 225.784 292.296 225.54 292.135 225.339C291.974 225.138 291.746 225.017 291.45 224.976L290.285 224.816C289.98 224.774 289.725 224.814 289.52 224.937C289.316 225.05 289.198 225.222 289.166 225.453L287.613 225.24C287.7 224.602 288.007 224.121 288.532 223.797C289.057 223.474 289.703 223.365 290.47 223.47L291.635 223.631C292.412 223.737 293.007 224.036 293.42 224.526C293.834 225.007 293.994 225.594 293.898 226.288L293.248 231.017L291.764 230.813L291.884 229.939C291.621 230.205 291.311 230.407 290.953 230.546C290.596 230.676 290.255 230.719 289.932 230.674L289.072 230.556ZM290.201 229.439C290.57 229.49 290.917 229.434 291.241 229.272C291.566 229.1 291.812 228.851 291.98 228.525L292.025 228.192C291.886 228.041 291.678 227.909 291.402 227.796C291.126 227.673 290.832 227.59 290.517 227.547L289.644 227.427C289.366 227.389 289.13 227.427 288.935 227.541C288.75 227.657 288.642 227.826 288.611 228.048L288.558 228.436C288.526 228.667 288.589 228.864 288.745 229.027C288.902 229.19 289.123 229.291 289.41 229.331L290.201 229.439ZM297.176 231.557C296.399 231.451 295.853 231.211 295.537 230.837C295.231 230.456 295.127 229.91 295.225 229.198L296.278 221.542L297.873 221.761L296.83 229.348C296.793 229.616 296.821 229.818 296.916 229.953C297.012 230.079 297.189 230.16 297.448 230.196L298.114 230.287L297.925 231.66L297.176 231.557Z" fill="white"/>
</svg>
