<svg width="292" height="293" viewBox="0 0 292 293" fill="none" xmlns="http://www.w3.org/2000/svg">
<path d="M291.967 146.049C291.967 226.674 226.676 292.028 146.129 292.028C65.5818 292.028 0.290161 226.674 0.290161 146.049C0.290161 65.4248 62.0251 3.70192 139.472 0.227588C141.686 0.127504 143.9 0.0703125 146.129 0.0703125C148.628 0.0703125 151.114 0.127505 153.599 0.256183C230.675 4.14514 291.967 67.9269 291.967 146.049Z" fill="#5F6EF0"/>
<path d="M48.3411 238.298L146.143 146.035L17.3879 184.696C23.4586 204.999 34.1858 223.271 48.3411 238.298Z" fill="#151C4D"/>
<path d="M146.129 280.562C156.77 280.562 167.126 279.318 177.053 276.973L146.129 146.035L115.204 276.973C125.131 279.318 135.487 280.562 146.143 280.562H146.129Z" fill="#F0D060"/>
<path d="M274.884 184.696L146.129 146.035L243.916 238.298C258.071 223.271 268.799 204.999 274.869 184.696H274.884Z" fill="#151C4D"/>
<path d="M243.93 53.7866L146.143 146.049L274.898 107.389C268.827 87.0858 258.1 68.8135 243.945 53.7866H243.93Z" fill="#F0D060"/>
<path d="M17.3879 107.389L146.143 146.049L48.3411 53.7866C34.1858 68.8135 23.4586 87.0858 17.3879 107.389Z" fill="#F0D060"/>
<path d="M146.129 11.5227C135.487 11.5227 125.131 12.7666 115.19 15.1114L146.114 146.049L177.039 15.1114C167.112 12.7666 156.756 11.5227 146.114 11.5227H146.129Z" fill="#151C4D"/>
<path d="M280.526 145.549C280.526 131.523 278.455 117.983 274.598 105.201L139.472 145.549L274.598 185.897C278.44 173.115 280.526 159.575 280.526 145.549Z" fill="#151C4D"/>
<path d="M11.7458 146.049C11.7458 159.489 13.717 172.457 17.388 184.71L146.143 146.049L17.388 107.388C13.717 119.627 11.7458 132.609 11.7458 146.049Z" fill="#F0D060"/>
<path d="M164.683 12.981C168.569 13.5529 172.411 14.282 176.196 15.1685L144.272 149.223L245.216 54.773C224.333 32.7832 196.237 17.6134 164.683 12.9953V12.981Z" fill="#F0D060"/>
<path d="M126.346 279.103C122.575 278.546 118.861 277.831 115.204 276.973L146.129 146.035L48.3269 238.298C68.5529 259.773 95.7637 274.585 126.331 279.103H126.346Z" fill="#151C4D"/>
<path d="M146.129 146.049L177.053 276.987C173.397 277.845 169.683 278.56 165.912 279.118C196.479 274.599 223.69 259.787 243.916 238.312L146.129 146.049Z" fill="#F0D060"/>
<path d="M126.345 12.981C94.4924 17.6849 66.296 33.5696 45.8271 56.5316C46.6556 55.6023 47.4841 54.6872 48.3268 53.7865L146.129 146.049L115.204 15.1113C118.861 14.2535 122.589 13.5386 126.36 12.981H126.345Z" fill="#151C4D"/>
<path d="M132.619 93.5374C132.698 93.0974 132.86 92.7177 133.107 92.3982C133.354 92.0788 133.664 91.8566 134.035 91.7316L134.566 91.553C135.07 91.3834 135.559 91.3569 136.031 91.4737C136.492 91.5846 136.904 91.8299 137.268 92.2096C137.63 92.5805 137.907 93.0534 138.1 93.6284L138.533 94.9156C138.834 95.809 138.811 96.6045 138.465 97.302C138.106 97.9936 137.472 98.4927 136.561 98.7993L136.047 97.2733C136.534 97.1096 136.878 96.8607 137.081 96.5267C137.281 96.1837 137.309 95.8 137.166 95.3753L136.733 94.0882C136.597 93.6813 136.379 93.3853 136.08 93.2002C135.773 93.018 135.442 92.9865 135.088 93.1055L134.557 93.2841C134.212 93.4001 133.986 93.6192 133.878 93.9412C133.769 94.2632 133.788 94.6409 133.934 95.0744L134.474 96.68L133.12 97.1353L132.58 95.5297C132.452 95.1493 132.258 94.8798 131.998 94.7212C131.726 94.5566 131.422 94.5309 131.086 94.644L130.555 94.8226C130.254 94.9237 130.053 95.1147 129.95 95.3953C129.836 95.6701 129.838 95.9845 129.957 96.3383L130.39 97.6254C130.524 98.0235 130.773 98.2944 131.136 98.438C131.497 98.5727 131.92 98.5583 132.407 98.3946L132.929 99.9471C132.018 100.254 131.217 100.243 130.525 99.9139C129.822 99.5794 129.321 98.9698 129.024 98.0852L128.591 96.7981C128.409 96.2585 128.347 95.7525 128.405 95.2801C128.46 94.7988 128.63 94.3822 128.915 94.0302C129.191 93.6812 129.564 93.4278 130.033 93.2701L130.564 93.0915C130.909 92.9754 131.263 92.9597 131.626 93.0443C131.986 93.12 132.317 93.2844 132.619 93.5374ZM135.688 86.4578C135.887 87.0505 135.936 87.62 135.834 88.1663C135.721 88.7067 135.468 89.1855 135.077 89.6028C134.674 90.0141 134.158 90.3255 133.53 90.5368L130.372 91.5992C129.744 91.8105 129.149 91.8726 128.588 91.7857C128.015 91.6928 127.525 91.4639 127.116 91.0991C126.696 90.7284 126.386 90.2467 126.187 89.654L125.714 88.2474C125.518 87.6636 125.476 87.1014 125.59 86.561C125.694 86.0235 125.948 85.5491 126.352 85.1378C126.746 84.7294 127.257 84.4195 127.885 84.2082L131.043 83.1458C131.672 82.9345 132.27 82.8709 132.84 82.9549C133.401 83.0419 133.89 83.2663 134.308 83.6282C134.713 83.9842 135.015 84.4585 135.215 85.0512L135.688 86.4578ZM133.857 85.5375C133.711 85.1041 133.431 84.8141 133.018 84.6677C132.601 84.5124 132.127 84.5241 131.597 84.7026L128.386 85.7829C127.855 85.9615 127.47 86.2385 127.232 86.614C126.991 86.9807 126.944 87.3807 127.09 87.8142L127.545 89.1676C127.694 89.6099 127.978 89.9132 128.397 90.0773C128.817 90.2414 129.292 90.2342 129.823 90.0556L133.034 88.9753C133.565 88.7968 133.948 88.5153 134.183 88.131C134.418 87.7466 134.461 87.3333 134.312 86.891L133.857 85.5375ZM123.029 79.914L121.426 75.1503C121.164 74.3719 121.174 73.6694 121.456 73.0429C121.728 72.4194 122.223 71.9871 122.94 71.746L124.213 71.3175C124.965 71.0645 125.656 71.1128 126.286 71.4623C126.904 71.8059 127.349 72.3846 127.623 73.1985L128.663 76.2902L131.795 75.2367L132.317 76.7892L123.029 79.914ZM126.279 73.6803C126.157 73.3176 125.949 73.0673 125.657 72.9294C125.361 72.7827 125.036 72.7688 124.683 72.8878L123.502 73.2851C123.174 73.3952 122.946 73.5803 122.817 73.8404C122.688 74.1005 122.678 74.3942 122.788 74.7215L123.86 77.9061L127.31 76.7455L126.279 73.6803ZM128.777 65.9162C129.051 66.7301 129.037 67.4636 128.735 68.1167C128.424 68.7728 127.879 69.2318 127.101 69.4936L125.455 70.0472C124.942 70.2198 124.454 70.261 123.99 70.1708C123.515 70.0747 123.102 69.8589 122.753 69.5234C122.392 69.182 122.121 68.7415 121.939 68.2019L121.546 67.0342C121.365 66.4946 121.316 65.9841 121.401 65.5028C121.473 65.0156 121.671 64.5945 121.995 64.2394C122.307 63.8785 122.719 63.6117 123.232 63.4391L124.878 62.8856C125.656 62.6237 126.369 62.6645 127.016 63.008C127.652 63.3457 128.109 63.9303 128.389 64.7618L128.777 65.9162ZM127.08 65.217C126.955 64.8455 126.731 64.5908 126.409 64.453C126.075 64.3093 125.705 64.3059 125.298 64.4428L123.825 64.9383C123.418 65.0752 123.128 65.2958 122.955 65.6003C122.773 65.9078 122.744 66.2473 122.869 66.6188L123.244 67.7334C123.369 68.105 123.597 68.3582 123.928 68.493C124.25 68.6309 124.615 68.6313 125.021 68.4944L126.494 67.9989C126.901 67.862 127.196 67.6399 127.378 67.3324C127.551 67.0279 127.578 66.6987 127.459 66.3449L127.08 65.217ZM120.256 62.8461L119.778 61.4263L120.641 61.1361C120.283 61.0397 119.962 60.862 119.678 60.6031C119.394 60.3441 119.199 60.0554 119.092 59.737L118.815 58.9143C118.586 58.2331 118.619 57.6162 118.916 57.0634C119.21 56.5018 119.71 56.102 120.418 55.8639L124.783 54.3953L125.297 55.9212L120.971 57.3765C120.653 57.4836 120.424 57.654 120.286 57.8875C120.136 58.1152 120.106 58.3617 120.195 58.6271L120.472 59.4498C120.588 59.7948 120.825 60.0598 121.183 60.2447C121.531 60.4327 121.923 60.498 122.356 60.4407L126.364 59.0926L126.877 60.6185L120.256 62.8461ZM123.298 49.979C123.551 50.7309 123.567 51.3359 123.347 51.794C123.127 52.2521 122.654 52.6032 121.929 52.8472L118.718 53.9275L119.11 55.0952L117.797 55.5371L117.391 54.3296L115.387 55.0036L114.887 53.5175L116.891 52.8434L116.31 51.1184L117.624 50.6765L118.204 52.4015L121.362 51.3391C121.654 51.2409 121.847 51.1119 121.941 50.9523C122.035 50.7927 122.041 50.589 121.957 50.3413L121.618 49.3328L122.932 48.8909L123.298 49.979ZM121.802 45.183C122.076 45.9969 122.062 46.7304 121.76 47.3835C121.449 48.0396 120.904 48.4986 120.126 48.7604L118.48 49.314C117.967 49.4866 117.479 49.5278 117.015 49.4376C116.54 49.3415 116.127 49.1257 115.778 48.7902C115.417 48.4488 115.146 48.0083 114.964 47.4687L114.572 46.301C114.39 45.7614 114.341 45.2509 114.426 44.7696C114.498 44.2824 114.696 43.8613 115.02 43.5062C115.332 43.1453 115.744 42.8785 116.257 42.7059L117.903 42.1524C118.681 41.8905 119.394 41.9313 120.041 42.2748C120.677 42.6125 121.134 43.1971 121.414 44.0286L121.802 45.183ZM120.105 44.4838C119.98 44.1123 119.756 43.8576 119.434 43.7198C119.1 43.5761 118.73 43.5727 118.323 43.7096L116.85 44.2051C116.443 44.342 116.153 44.5626 115.98 44.8671C115.798 45.1746 115.769 45.5141 115.894 45.8856L116.269 47.0002C116.394 47.3718 116.622 47.625 116.953 47.7598C117.275 47.8977 117.64 47.8981 118.046 47.7612L119.519 47.2657C119.926 47.1288 120.221 46.9066 120.403 46.5992C120.576 46.2947 120.603 45.9655 120.484 45.6117L120.105 44.4838ZM119.272 37.6602C119.528 38.421 119.529 39.0998 119.277 39.6967C119.025 40.2936 118.563 40.7051 117.891 40.9313L117.386 39.4319C117.669 39.3366 117.868 39.1664 117.982 38.9211C118.088 38.6788 118.089 38.4028 117.985 38.0932L117.587 36.9122C117.486 36.6115 117.359 36.3934 117.205 36.2581C117.039 36.1169 116.868 36.076 116.691 36.1355L116.399 36.2337C116.275 36.2754 116.187 36.3642 116.134 36.5001C116.078 36.6272 116.062 36.7851 116.087 36.974L116.461 39.4035C116.545 39.9463 116.496 40.4157 116.314 40.8117C116.123 41.2107 115.838 41.4742 115.457 41.6021L115.02 41.7494C114.471 41.934 113.965 41.863 113.5 41.5367C113.033 41.2015 112.67 40.6491 112.411 39.8795L112.054 38.818C111.819 38.1191 111.819 37.489 112.053 36.9276C112.288 36.3661 112.715 35.9813 113.334 35.773L113.838 37.2724C113.6 37.3527 113.436 37.4963 113.348 37.7032C113.257 37.9012 113.255 38.1284 113.341 38.385L113.694 39.4333C113.798 39.7429 113.927 39.9654 114.081 40.1007C114.235 40.236 114.4 40.2739 114.577 40.2144L114.842 40.1251C114.966 40.0835 115.056 39.9991 115.112 39.872C115.165 39.7361 115.176 39.5797 115.146 39.4027L114.771 36.8846C114.705 36.3654 114.76 35.9136 114.936 35.5294C115.112 35.1453 115.386 34.8907 115.757 34.7657L116.248 34.6005C116.797 34.416 117.31 34.4943 117.79 34.8353C118.26 35.1793 118.621 35.7273 118.874 36.4792L119.272 37.6602Z" fill="#F8F9FA"/>
<path d="M176.637 112.474C175.951 113.161 175.212 113.504 174.42 113.504C173.628 113.504 172.889 113.161 172.202 112.474L173.341 111.336C173.71 111.706 174.1 111.904 174.509 111.93C174.918 111.943 175.294 111.778 175.637 111.435L176.736 110.336C177.06 110.013 177.251 109.683 177.31 109.346C177.363 109.003 177.274 108.716 177.043 108.485L176.608 108.049C176.429 107.871 176.212 107.792 175.954 107.812C175.697 107.832 175.416 107.947 175.113 108.158L173.004 109.653C172.351 110.122 171.734 110.369 171.153 110.396C170.579 110.415 170.077 110.211 169.648 109.782L169.104 109.237C168.767 108.901 168.559 108.515 168.48 108.079C168.407 107.637 168.467 107.181 168.658 106.713C168.843 106.238 169.153 105.782 169.589 105.347L170.707 104.228C171.117 103.819 171.562 103.545 172.044 103.406C172.526 103.255 173.007 103.248 173.489 103.387C173.971 103.525 174.413 103.796 174.816 104.198L173.687 105.327C173.384 105.023 173.05 104.868 172.687 104.862C172.324 104.842 172.004 104.971 171.727 105.248L170.608 106.366C170.298 106.677 170.117 106.997 170.064 107.327C170.011 107.643 170.1 107.917 170.331 108.148L170.688 108.505C170.872 108.689 171.094 108.779 171.351 108.772C171.602 108.759 171.872 108.647 172.163 108.435L174.281 106.95C174.948 106.482 175.568 106.231 176.142 106.198C176.716 106.152 177.211 106.337 177.627 106.752L178.271 107.396C178.607 107.733 178.815 108.125 178.894 108.574C178.967 109.016 178.908 109.478 178.716 109.96C178.525 110.442 178.211 110.9 177.776 111.336L176.637 112.474ZM182.849 106.263C182.446 106.665 182.014 106.946 181.552 107.104C181.097 107.256 180.645 107.279 180.196 107.173C179.754 107.061 179.351 106.824 178.988 106.461L177.662 105.134C177.279 104.751 177.025 104.332 176.899 103.877C176.774 103.408 176.784 102.943 176.929 102.481C177.074 102.006 177.348 101.567 177.751 101.164L178.543 100.372C179.143 99.7718 179.8 99.465 180.513 99.4518C181.226 99.4386 181.872 99.7224 182.453 100.303L183.443 101.293L179.77 104.966L180.127 105.322C180.391 105.586 180.681 105.718 180.998 105.718C181.321 105.712 181.618 105.573 181.889 105.302L182.651 104.54C182.915 104.276 183.064 104.002 183.097 103.718C183.13 103.421 183.04 103.167 182.829 102.956L183.948 101.838C184.449 102.339 184.667 102.926 184.601 103.6C184.535 104.273 184.202 104.91 183.601 105.51L182.849 106.263ZM181.473 101.56L181.334 101.422C181.044 101.131 180.731 100.976 180.394 100.956C180.057 100.937 179.76 101.055 179.503 101.313L178.701 102.115C178.431 102.385 178.305 102.702 178.325 103.065C178.345 103.415 178.506 103.742 178.81 104.045L178.899 104.134L181.473 101.56ZM187.119 91.7961C187.601 91.3144 188.139 91.0867 188.733 91.1131C189.333 91.1329 189.894 91.4034 190.416 91.9248L193.722 95.2313L192.584 96.3697L189.267 93.0534C189.049 92.8356 188.828 92.7135 188.604 92.6871C188.373 92.6541 188.175 92.7201 188.01 92.8851L187.535 93.3602C187.317 93.578 187.211 93.842 187.218 94.1522C187.218 94.4558 187.327 94.7627 187.545 95.0729L190.713 98.2407L189.584 99.3692L186.297 96.0826C186.073 95.8582 185.845 95.7295 185.614 95.6965C185.377 95.6569 185.175 95.7196 185.01 95.8846L184.565 96.3301C184.347 96.5479 184.255 96.8383 184.288 97.2013C184.321 97.551 184.469 97.9041 184.733 98.2605L187.713 101.24L186.575 102.379L181.635 97.4388L182.694 96.3796L183.318 97.0033C183.225 96.6601 183.212 96.3301 183.278 96.0133C183.344 95.6965 183.476 95.4391 183.674 95.2412L184.238 94.6769C184.489 94.4261 184.779 94.2677 185.109 94.2017C185.433 94.1291 185.766 94.1522 186.109 94.271C186.024 93.8948 186.02 93.5417 186.099 93.2118C186.172 92.8752 186.324 92.5914 186.555 92.3604L187.119 91.7961ZM192.752 86.3212L193.812 85.262L194.396 85.8461C194.336 85.5095 194.356 85.1729 194.455 84.8363C194.554 84.4865 194.709 84.2061 194.92 83.9949L195.574 83.3415C196.148 82.7673 196.785 82.4802 197.484 82.4802C198.184 82.467 198.817 82.7442 199.385 83.3118L200.533 84.4601C201.154 85.0805 201.477 85.7537 201.503 86.4796C201.53 87.2056 201.253 87.859 200.672 88.4397L200.009 89.103C199.817 89.2944 199.573 89.4462 199.276 89.5584C198.973 89.664 198.676 89.7036 198.385 89.6772L200.811 92.1025L199.672 93.241L192.752 86.3212ZM199.573 87.5785C199.844 87.3079 199.956 86.9845 199.91 86.6083C199.87 86.2255 199.679 85.8626 199.336 85.5194L198.326 84.5096C198.035 84.2193 197.719 84.0675 197.375 84.0543C197.026 84.0345 196.715 84.1599 196.445 84.4304L195.811 85.064C195.587 85.2884 195.468 85.5854 195.455 85.955C195.442 86.3113 195.534 86.6677 195.732 87.0241L196.88 88.1724C197.224 88.4496 197.587 88.5948 197.969 88.608C198.352 88.608 198.676 88.476 198.94 88.212L199.573 87.5785ZM198.64 80.4338L199.699 79.3745L200.372 80.0477C200.3 79.7111 200.323 79.358 200.442 78.9884C200.56 78.6056 200.752 78.2823 201.016 78.0183L201.61 77.4243L202.6 78.4143L202.006 79.0082C201.629 79.3844 201.441 79.8035 201.441 80.2655C201.441 80.7274 201.626 81.1432 201.996 81.5128L204.718 84.2352L203.58 85.3736L198.64 80.4338ZM209.038 80.0734C208.636 80.476 208.203 80.7565 207.741 80.9149C207.286 81.0667 206.834 81.0898 206.385 80.9842C205.943 80.872 205.54 80.6344 205.177 80.2714L203.851 78.9449C203.468 78.5621 203.214 78.143 203.089 77.6876C202.963 77.2191 202.973 76.7538 203.118 76.2918C203.264 75.8166 203.537 75.3778 203.94 74.9752L204.732 74.1832C205.333 73.5827 205.989 73.2758 206.702 73.2626C207.415 73.2494 208.061 73.5332 208.642 74.1139L209.632 75.1039L205.96 78.7766L206.316 79.133C206.58 79.397 206.87 79.529 207.187 79.529C207.51 79.5224 207.807 79.3838 208.078 79.1132L208.84 78.3509C209.104 78.0869 209.253 77.813 209.286 77.5293C209.319 77.2323 209.23 76.9782 209.018 76.767L210.137 75.6483C210.639 76.1499 210.856 76.7373 210.79 77.4105C210.724 78.0836 210.391 78.7205 209.791 79.3211L209.038 80.0734ZM207.662 75.3712L207.524 75.2326C207.233 74.9422 206.92 74.7871 206.583 74.7673C206.247 74.7475 205.95 74.8663 205.692 75.1237L204.89 75.9255C204.62 76.1961 204.494 76.5129 204.514 76.8759C204.534 77.2257 204.696 77.5524 204.999 77.8559L205.088 77.945L207.662 75.3712ZM202.356 71.8865L203.613 70.6293L204.207 73.421L203.128 74.5L202.356 71.8865ZM213.308 65.6069C213.79 65.1252 214.328 64.8975 214.922 64.9239C215.522 64.9437 216.083 65.2143 216.605 65.7356L219.911 69.0421L218.773 70.1805L215.456 66.8642C215.239 66.6464 215.018 66.5243 214.793 66.4979C214.562 66.4649 214.364 66.5309 214.199 66.6959L213.724 67.1711C213.506 67.3888 213.401 67.6528 213.407 67.963C213.407 68.2666 213.516 68.5735 213.734 68.8837L216.902 72.0515L215.773 73.18L212.487 69.8934C212.262 69.669 212.035 69.5403 211.804 69.5073C211.566 69.4677 211.365 69.5304 211.2 69.6954L210.754 70.1409C210.536 70.3587 210.444 70.6491 210.477 71.0121C210.51 71.3618 210.658 71.7149 210.922 72.0713L213.902 75.0511L212.764 76.1895L207.824 71.2496L208.883 70.1904L209.507 70.8141C209.414 70.4709 209.401 70.1409 209.467 69.8241C209.533 69.5073 209.665 69.2499 209.863 69.052L210.428 68.4877C210.678 68.2369 210.969 68.0785 211.299 68.0125C211.622 67.9399 211.955 67.963 212.299 68.0818C212.213 67.7056 212.209 67.3525 212.289 67.0226C212.361 66.686 212.513 66.4022 212.744 66.1712L213.308 65.6069ZM216.365 61.6001C216.14 61.8245 215.893 61.94 215.622 61.9466C215.352 61.94 215.111 61.8311 214.9 61.6199C214.688 61.4087 214.583 61.1711 214.583 60.9071C214.583 60.63 214.695 60.3792 214.919 60.1548C215.144 59.9304 215.395 59.8182 215.672 59.8182C215.942 59.8116 216.183 59.9139 216.394 60.1251C216.606 60.3363 216.711 60.5805 216.711 60.8577C216.705 61.1282 216.589 61.3757 216.365 61.6001ZM216.355 62.7188L217.493 61.5803L222.433 66.5202L221.295 67.6586L216.355 62.7188ZM225.782 63.3296C225.175 63.9368 224.512 64.2502 223.792 64.27C223.066 64.2832 222.413 63.9995 221.832 63.4187L220.605 62.1911C220.222 61.8084 219.968 61.3893 219.842 60.9339C219.717 60.4653 219.727 60.0001 219.872 59.5381C220.017 59.0629 220.291 58.624 220.694 58.2214L221.565 57.3503C221.967 56.9477 222.403 56.6771 222.872 56.5385C223.34 56.3867 223.805 56.3768 224.267 56.5088C224.729 56.6276 225.152 56.8784 225.535 57.2612L226.762 58.4887C227.343 59.0695 227.623 59.7262 227.604 60.4587C227.584 61.1781 227.264 61.848 226.643 62.4683L225.782 63.3296ZM225.653 61.4982C225.931 61.221 226.059 60.9075 226.039 60.5577C226.02 60.1947 225.858 59.8615 225.554 59.5579L224.456 58.459C224.152 58.1554 223.825 57.9938 223.475 57.974C223.119 57.9476 222.802 58.073 222.525 58.3501L221.694 59.1817C221.416 59.4589 221.291 59.7757 221.317 60.132C221.337 60.4818 221.499 60.8085 221.802 61.1121L222.901 62.2109C223.205 62.5145 223.535 62.6795 223.891 62.7059C224.241 62.7257 224.548 62.6036 224.812 62.3396L225.653 61.4982Z" fill="#212529"/>
<path d="M156.93 185.308C156.602 184.394 156.607 183.579 156.944 182.863C157.282 182.147 157.908 181.624 158.821 181.296L159.366 182.812C158.874 182.988 158.529 183.256 158.33 183.615C158.144 183.979 158.132 184.39 158.296 184.847L158.822 186.309C158.976 186.74 159.193 187.054 159.472 187.251C159.76 187.445 160.058 187.487 160.365 187.376L160.945 187.168C161.182 187.083 161.346 186.92 161.438 186.679C161.53 186.437 161.545 186.134 161.484 185.77L161.031 183.225C160.886 182.434 160.926 181.771 161.149 181.234C161.376 180.706 161.775 180.34 162.346 180.135L163.071 179.875C163.519 179.714 163.957 179.69 164.385 179.805C164.816 179.928 165.202 180.175 165.544 180.548C165.895 180.918 166.175 181.393 166.383 181.973L166.918 183.462C167.113 184.006 167.171 184.526 167.091 185.021C167.022 185.521 166.823 185.96 166.492 186.337C166.161 186.713 165.728 186.998 165.192 187.19L164.653 185.688C165.057 185.543 165.339 185.308 165.5 184.982C165.673 184.662 165.693 184.318 165.56 183.949L165.026 182.46C164.878 182.047 164.665 181.747 164.39 181.558C164.126 181.375 163.84 181.339 163.532 181.449L163.058 181.62C162.812 181.708 162.637 181.87 162.533 182.106C162.438 182.338 162.424 182.631 162.492 182.983L162.931 185.533C163.07 186.336 163.033 187.004 162.818 187.537C162.614 188.076 162.236 188.445 161.683 188.644L160.826 188.951C160.378 189.112 159.935 189.133 159.495 189.013C159.064 188.89 158.671 188.639 158.317 188.26C157.963 187.882 157.682 187.403 157.474 186.823L156.93 185.308ZM159.899 193.576C159.706 193.04 159.637 192.529 159.691 192.044C159.748 191.567 159.92 191.148 160.206 190.788C160.497 190.435 160.883 190.173 161.366 189.999L163.132 189.365C163.641 189.182 164.129 189.131 164.594 189.212C165.071 189.298 165.488 189.506 165.844 189.834C166.212 190.168 166.492 190.603 166.684 191.139L167.063 192.193C167.35 192.993 167.347 193.717 167.055 194.368C166.763 195.018 166.231 195.482 165.458 195.759L164.14 196.233L162.385 191.344L161.91 191.514C161.559 191.641 161.316 191.847 161.181 192.133C161.049 192.429 161.047 192.757 161.177 193.117L161.541 194.131C161.667 194.483 161.852 194.734 162.094 194.885C162.349 195.041 162.616 195.069 162.898 194.968L163.432 196.457C162.765 196.697 162.14 196.643 161.56 196.296C160.979 195.949 160.545 195.376 160.258 194.577L159.899 193.576ZM164.739 194.337L164.923 194.271C165.309 194.132 165.583 193.914 165.745 193.618C165.906 193.322 165.926 193.003 165.803 192.661L165.419 191.593C165.29 191.233 165.057 190.985 164.72 190.848C164.396 190.716 164.031 190.723 163.627 190.868L163.508 190.911L164.739 194.337ZM171.162 203.608C171.392 204.25 171.368 204.833 171.091 205.359C170.817 205.894 170.333 206.286 169.639 206.535L165.238 208.115L164.694 206.6L169.108 205.015C169.398 204.911 169.603 204.763 169.722 204.571C169.851 204.376 169.876 204.169 169.797 203.95L169.57 203.317C169.466 203.027 169.272 202.819 168.988 202.693C168.714 202.563 168.39 202.531 168.016 202.596L163.8 204.11L163.261 202.608L167.635 201.037C167.934 200.929 168.147 200.778 168.276 200.584C168.413 200.386 168.442 200.177 168.363 199.957L168.15 199.364C168.046 199.074 167.823 198.867 167.481 198.742C167.15 198.623 166.767 198.606 166.332 198.693L162.366 200.117L161.822 198.602L168.397 196.241L168.904 197.651L168.073 197.949C168.423 198.012 168.727 198.141 168.986 198.335C169.244 198.53 169.421 198.759 169.515 199.023L169.785 199.774C169.905 200.108 169.924 200.438 169.843 200.765C169.771 201.088 169.608 201.38 169.354 201.639C169.731 201.722 170.052 201.87 170.316 202.082C170.59 202.291 170.782 202.55 170.892 202.857L171.162 203.608ZM173.711 211.039L174.217 212.449L173.44 212.728C173.769 212.818 174.065 212.979 174.327 213.212C174.602 213.451 174.789 213.711 174.89 213.992L175.202 214.861C175.477 215.626 175.465 216.324 175.166 216.957C174.88 217.595 174.359 218.05 173.604 218.321L172.075 218.87C171.249 219.167 170.503 219.172 169.835 218.886C169.167 218.6 168.694 218.071 168.417 217.298L168.1 216.415C168.008 216.16 167.975 215.875 168 215.558C168.034 215.239 168.125 214.953 168.273 214.702L165.045 215.861L164.5 214.346L173.711 211.039ZM169.664 216.672C169.794 217.032 170.038 217.271 170.398 217.39C170.761 217.517 171.171 217.499 171.628 217.335L172.972 216.852C173.358 216.714 173.631 216.492 173.789 216.187C173.956 215.879 173.975 215.545 173.846 215.185L173.543 214.342C173.436 214.043 173.218 213.809 172.889 213.639C172.573 213.475 172.211 213.407 171.804 213.434L170.276 213.983C169.878 214.175 169.592 214.441 169.417 214.782C169.254 215.128 169.235 215.477 169.361 215.828L169.664 216.672ZM176.524 218.875L177.031 220.285L176.135 220.607C176.47 220.684 176.78 220.856 177.063 221.121C177.359 221.392 177.57 221.703 177.696 222.054L177.98 222.845L176.662 223.318L176.378 222.527C176.198 222.027 175.9 221.678 175.482 221.481C175.064 221.284 174.609 221.273 174.117 221.45L170.494 222.751L169.949 221.236L176.524 218.875ZM172.415 228.434C172.223 227.898 172.153 227.387 172.207 226.902C172.264 226.425 172.436 226.006 172.723 225.646C173.013 225.294 173.4 225.031 173.883 224.857L175.648 224.223C176.158 224.04 176.645 223.989 177.111 224.07C177.588 224.157 178.005 224.364 178.36 224.692C178.728 225.026 179.008 225.461 179.201 225.997L179.579 227.051C179.866 227.851 179.864 228.575 179.572 229.226C179.28 229.876 178.747 230.34 177.974 230.618L176.656 231.091L174.901 226.202L174.427 226.373C174.075 226.499 173.832 226.705 173.697 226.992C173.565 227.287 173.564 227.615 173.693 227.975L174.057 228.989C174.184 229.341 174.368 229.592 174.611 229.743C174.865 229.899 175.133 229.927 175.414 229.826L175.949 231.315C175.281 231.555 174.657 231.501 174.076 231.154C173.495 230.808 173.062 230.234 172.775 229.435L172.415 228.434ZM177.255 229.195L177.439 229.129C177.826 228.99 178.1 228.772 178.261 228.476C178.423 228.18 178.442 227.861 178.319 227.519L177.936 226.451C177.807 226.091 177.574 225.843 177.237 225.706C176.912 225.574 176.548 225.581 176.143 225.726L176.025 225.769L177.255 229.195ZM182.67 225.882L183.271 227.555L180.493 226.902L179.977 225.466L182.67 225.882ZM183.678 238.466C183.908 239.108 183.885 239.691 183.608 240.217C183.334 240.752 182.85 241.144 182.156 241.393L177.755 242.973L177.211 241.458L181.625 239.873C181.915 239.769 182.119 239.621 182.239 239.429C182.367 239.235 182.392 239.027 182.313 238.808L182.086 238.175C181.982 237.885 181.788 237.677 181.505 237.551C181.23 237.421 180.906 237.389 180.533 237.454L176.316 238.968L175.777 237.466L180.152 235.895C180.45 235.788 180.664 235.637 180.792 235.442C180.929 235.244 180.958 235.035 180.88 234.815L180.667 234.222C180.563 233.932 180.339 233.725 179.997 233.6C179.667 233.481 179.284 233.464 178.849 233.551L174.883 234.975L174.339 233.46L180.914 231.099L181.42 232.509L180.59 232.807C180.94 232.87 181.244 232.999 181.502 233.193C181.761 233.388 181.937 233.617 182.032 233.881L182.301 234.632C182.421 234.966 182.441 235.296 182.36 235.623C182.287 235.946 182.124 236.238 181.87 236.497C182.247 236.58 182.568 236.728 182.833 236.94C183.106 237.15 183.298 237.408 183.408 237.715L183.678 238.466ZM185.998 242.94C185.891 242.641 185.892 242.368 186.002 242.121C186.123 241.879 186.324 241.707 186.605 241.606C186.887 241.505 187.147 241.511 187.385 241.624C187.636 241.742 187.815 241.95 187.922 242.249C188.029 242.548 188.024 242.822 187.906 243.073C187.796 243.321 187.601 243.495 187.32 243.596C187.039 243.697 186.773 243.688 186.522 243.57C186.28 243.449 186.106 243.239 185.998 242.94ZM184.991 242.454L185.535 243.969L178.96 246.33L178.416 244.815L184.991 242.454ZM180.417 250.72C180.127 249.912 180.126 249.178 180.415 248.519C180.713 247.857 181.249 247.387 182.022 247.109L183.655 246.523C184.165 246.34 184.652 246.289 185.118 246.37C185.595 246.456 186.012 246.663 186.367 246.992C186.735 247.326 187.015 247.761 187.208 248.297L187.624 249.456C187.817 249.992 187.876 250.501 187.801 250.984C187.738 251.473 187.549 251.898 187.233 252.259C186.928 252.626 186.521 252.902 186.012 253.084L184.378 253.671C183.605 253.949 182.891 253.922 182.237 253.592C181.595 253.267 181.125 252.692 180.829 251.866L180.417 250.72ZM182.129 251.385C182.261 251.754 182.49 252.004 182.815 252.135C183.151 252.272 183.522 252.268 183.926 252.123L185.388 251.598C185.792 251.453 186.078 251.226 186.245 250.918C186.421 250.607 186.443 250.267 186.31 249.898L185.913 248.791C185.78 248.422 185.547 248.174 185.214 248.046C184.889 247.914 184.524 247.921 184.12 248.066L182.658 248.592C182.254 248.737 181.964 248.965 181.788 249.276C181.621 249.584 181.6 249.913 181.726 250.265L182.129 251.385Z" fill="#212529"/>
<path d="M106.176 132.985C107.122 133.203 107.805 133.648 108.225 134.32C108.645 134.991 108.745 135.8 108.527 136.746L106.958 136.384C107.076 135.875 107.037 135.439 106.843 135.078C106.637 134.724 106.298 134.493 105.825 134.384L104.311 134.035C103.865 133.932 103.484 133.945 103.167 134.073C102.848 134.21 102.652 134.437 102.578 134.756L102.44 135.356C102.383 135.602 102.431 135.828 102.585 136.036C102.738 136.244 102.985 136.42 103.325 136.566L105.71 137.561C106.454 137.867 106.99 138.259 107.321 138.737C107.642 139.214 107.734 139.748 107.598 140.339L107.425 141.089C107.318 141.553 107.101 141.934 106.773 142.232C106.437 142.528 106.019 142.719 105.521 142.805C105.02 142.9 104.469 142.879 103.869 142.74L102.327 142.385C101.764 142.255 101.295 142.022 100.922 141.687C100.538 141.359 100.277 140.954 100.139 140.472C100.001 139.99 99.9964 139.472 100.124 138.917L101.68 139.275C101.583 139.694 101.628 140.059 101.815 140.37C101.991 140.688 102.269 140.891 102.651 140.979L104.193 141.335C104.62 141.434 104.988 141.418 105.296 141.288C105.592 141.164 105.777 140.944 105.851 140.625L105.964 140.134C106.023 139.88 105.981 139.645 105.839 139.43C105.695 139.225 105.456 139.055 105.123 138.92L102.741 137.911C101.991 137.594 101.449 137.201 101.117 136.732C100.773 136.27 100.667 135.752 100.8 135.179L101.004 134.292C101.111 133.828 101.334 133.444 101.672 133.139C102.009 132.843 102.432 132.648 102.942 132.555C103.452 132.462 104.007 132.485 104.607 132.623L106.176 132.985ZM97.6161 131.011C98.1709 131.139 98.6379 131.357 99.0171 131.664C99.3872 131.97 99.6464 132.341 99.7948 132.778C99.9341 133.212 99.946 133.679 99.8306 134.18L99.4091 136.008C99.2874 136.535 99.0668 136.973 98.7471 137.32C98.4163 137.675 98.0165 137.913 97.5478 138.035C97.0679 138.164 96.5506 138.164 95.9958 138.036L94.9045 137.785C94.0769 137.594 93.4685 137.2 93.0795 136.602C92.6905 136.005 92.5882 135.306 92.7728 134.506L93.0874 133.142L98.1486 134.309L98.2618 133.818C98.3457 133.454 98.3037 133.138 98.1358 132.869C97.9588 132.599 97.6838 132.42 97.3109 132.334L96.2605 132.092C95.8967 132.008 95.5858 132.027 95.3276 132.15C95.0583 132.279 94.8901 132.489 94.823 132.78L93.2815 132.425C93.4409 131.734 93.8235 131.238 94.4292 130.937C95.035 130.636 95.7517 130.581 96.5793 130.772L97.6161 131.011ZM94.3584 134.67L94.3143 134.861C94.222 135.262 94.2567 135.61 94.4184 135.905C94.58 136.201 94.8382 136.39 95.1929 136.472L96.2978 136.727C96.6707 136.813 97.0058 136.751 97.3031 136.542C97.5892 136.34 97.7805 136.03 97.877 135.611L97.9053 135.488L94.3584 134.67ZM83.086 135.059C82.4221 134.906 81.9439 134.571 81.6514 134.053C81.3498 133.533 81.2819 132.914 81.4476 132.196L82.4984 127.639L84.0672 128.001L83.0133 132.571C82.944 132.871 82.9577 133.123 83.0543 133.328C83.1487 133.541 83.3097 133.674 83.537 133.726L84.1918 133.877C84.492 133.947 84.7718 133.896 85.0313 133.726C85.2887 133.565 85.4912 133.31 85.6388 132.961L86.6455 128.596L88.2007 128.954L87.1562 133.483C87.0849 133.793 87.0965 134.054 87.1909 134.267C87.2833 134.49 87.4432 134.627 87.6705 134.68L88.2844 134.821C88.5845 134.89 88.8797 134.815 89.17 134.594C89.4491 134.381 89.6698 134.068 89.832 133.655L90.779 129.549L92.3479 129.911L90.7779 136.718L89.3182 136.381L89.5164 135.522C89.2744 135.782 89.0016 135.968 88.698 136.08C88.3944 136.192 88.1062 136.217 87.8334 136.154L87.0558 135.975C86.7102 135.895 86.4219 135.733 86.1911 135.488C85.9581 135.252 85.801 134.957 85.7198 134.603C85.4463 134.876 85.1487 135.065 84.8269 135.173C84.503 135.29 84.1819 135.312 83.8636 135.238L83.086 135.059ZM75.4574 133.185L73.9977 132.848L74.1834 132.043C73.9294 132.272 73.6336 132.434 73.2957 132.528C72.9466 132.63 72.6266 132.647 72.3355 132.58L71.4352 132.372C70.6439 132.19 70.0629 131.802 69.6921 131.209C69.31 130.622 69.2092 129.938 69.3896 129.156L69.7545 127.574C69.9517 126.719 70.3511 126.088 70.9526 125.681C71.5542 125.273 72.2551 125.162 73.0555 125.347L73.9695 125.557C74.2332 125.618 74.4914 125.745 74.7439 125.937C74.9944 126.139 75.1854 126.369 75.317 126.63L76.0878 123.287L77.6566 123.649L75.4574 133.185ZM72.9077 126.735C72.5348 126.649 72.2011 126.725 71.9066 126.964C71.6031 127.2 71.3967 127.555 71.2877 128.028L70.9668 129.419C70.8745 129.819 70.9137 130.169 71.0844 130.467C71.2531 130.774 71.5238 130.97 71.8967 131.056L72.7698 131.258C73.079 131.329 73.3938 131.272 73.7142 131.087C74.0234 130.91 74.2766 130.642 74.4738 130.286L74.8387 128.703C74.8919 128.265 74.8225 127.88 74.6308 127.549C74.4279 127.224 74.1446 127.02 73.7808 126.936L72.9077 126.735ZM67.3442 131.314L65.8845 130.977L66.0985 130.049C65.8516 130.289 65.5399 130.457 65.1636 130.552C64.776 130.654 64.4004 130.663 64.0366 130.58L63.2181 130.391L63.5327 129.027L64.3512 129.215C64.8696 129.335 65.3247 129.272 65.7164 129.027C66.1081 128.782 66.3627 128.405 66.4801 127.896L67.3454 124.145L68.9142 124.506L67.3442 131.314ZM61.5264 122.688C62.0811 122.816 62.5481 123.033 62.9273 123.341C63.2974 123.647 63.5567 124.018 63.705 124.454C63.8443 124.889 63.8563 125.356 63.7409 125.856L63.3193 127.684C63.1977 128.212 62.977 128.649 62.6573 128.997C62.3265 129.352 61.9267 129.59 61.458 129.712C60.9782 129.841 60.4608 129.841 59.9061 129.713L58.8147 129.461C57.9871 129.271 57.3788 128.876 56.9897 128.279C56.6007 127.682 56.4985 126.983 56.683 126.183L56.9977 124.818L62.0588 125.986L62.1721 125.495C62.256 125.131 62.214 124.815 62.046 124.546C61.869 124.275 61.594 124.097 61.2212 124.011L60.1707 123.769C59.807 123.685 59.496 123.704 59.2379 123.826C58.9686 123.956 58.8004 124.166 58.7332 124.457L57.1917 124.102C57.3511 123.41 57.7337 122.914 58.3395 122.614C58.9453 122.313 59.662 122.258 60.4896 122.448L61.5264 122.688ZM58.2686 126.347L58.2246 126.538C58.1323 126.938 58.167 127.286 58.3286 127.582C58.4902 127.878 58.7484 128.067 59.1031 128.149L60.2081 128.404C60.581 128.49 60.9161 128.428 61.2133 128.219C61.4994 128.017 61.6907 127.706 61.7872 127.288L61.8155 127.165L58.2686 126.347ZM58.1268 132.694L56.3942 132.294L58.4465 130.31L59.9335 130.653L58.1268 132.694ZM46.9962 126.736C46.3323 126.583 45.8541 126.247 45.5616 125.73C45.2601 125.21 45.1921 124.591 45.3578 123.872L46.4087 119.316L47.9775 119.678L46.9235 124.248C46.8543 124.548 46.868 124.8 46.9645 125.004C47.059 125.218 47.2199 125.351 47.4473 125.403L48.1021 125.554C48.4022 125.623 48.682 125.573 48.9415 125.403C49.199 125.242 49.4015 124.987 49.549 124.638L50.5558 120.272L52.111 120.631L51.0664 125.16C50.9951 125.469 51.0067 125.731 51.1012 125.944C51.1935 126.167 51.3534 126.304 51.5808 126.356L52.1947 126.498C52.4948 126.567 52.79 126.492 53.0803 126.271C53.3594 126.058 53.58 125.745 53.7423 125.332L54.6893 121.226L56.2581 121.588L54.6882 128.395L53.2285 128.058L53.4267 127.199C53.1847 127.459 52.9119 127.645 52.6083 127.757C52.3047 127.869 52.0165 127.894 51.7436 127.831L50.966 127.651C50.6204 127.572 50.3322 127.409 50.1013 127.165C49.8683 126.929 49.7112 126.634 49.63 126.28C49.3565 126.552 49.0589 126.742 48.7371 126.85C48.4132 126.967 48.0921 126.989 47.7738 126.915L46.9962 126.736ZM41.9785 126.268C42.2877 126.34 42.5168 126.488 42.6659 126.714C42.8037 126.947 42.8391 127.209 42.7719 127.5C42.7048 127.791 42.5593 128.007 42.3355 128.146C42.1005 128.293 41.8283 128.331 41.5191 128.26C41.2099 128.189 40.9818 128.035 40.8349 127.8C40.6859 127.574 40.6449 127.316 40.712 127.025C40.7791 126.734 40.9302 126.515 41.1652 126.368C41.3982 126.23 41.6693 126.197 41.9785 126.268ZM42.9322 125.684L41.3634 125.322L42.9334 118.514L44.5022 118.876L42.9322 125.684ZM38.4527 117.366C39.2894 117.559 39.9068 117.955 40.3049 118.555C40.701 119.163 40.8067 119.868 40.6221 120.668L40.232 122.36C40.1103 122.887 39.8897 123.325 39.57 123.673C39.2392 124.027 38.8394 124.266 38.3707 124.387C37.8908 124.516 37.3735 124.517 36.8187 124.389L35.6183 124.112C35.0635 123.984 34.6031 123.758 34.2372 123.434C33.8601 123.117 33.6051 122.728 33.4721 122.266C33.3279 121.812 33.3167 121.32 33.4383 120.793L33.8284 119.101C34.013 118.301 34.4211 117.715 35.0528 117.344C35.6733 116.979 36.4109 116.895 37.2658 117.092L38.4527 117.366ZM36.968 118.446C36.586 118.358 36.252 118.415 35.9659 118.617C35.6686 118.827 35.4717 119.14 35.3752 119.559L35.026 121.073C34.9295 121.491 34.9656 121.854 35.1342 122.161C35.3008 122.477 35.575 122.679 35.957 122.767L37.1029 123.032C37.4849 123.12 37.82 123.058 38.1082 122.847C38.3943 122.645 38.5856 122.334 38.682 121.916L39.0313 120.402C39.1278 119.983 39.0927 119.616 38.9262 119.3C38.7576 118.993 38.4913 118.797 38.1276 118.714L36.968 118.446Z" fill="#212529"/>
<path d="M111.551 182.094L107.839 185.482C107.232 186.036 106.585 186.311 105.898 186.306C105.218 186.308 104.623 186.03 104.113 185.471L103.207 184.479C102.672 183.893 102.438 183.241 102.503 182.524C102.568 181.82 102.918 181.179 103.552 180.6L105.961 178.401L103.734 175.96L104.943 174.856L111.551 182.094ZM104.536 181.636C104.253 181.894 104.108 182.184 104.099 182.508C104.084 182.837 104.203 183.14 104.454 183.416L105.295 184.336C105.527 184.591 105.789 184.725 106.079 184.738C106.369 184.751 106.642 184.642 106.897 184.409L109.378 182.144L106.924 179.455L104.536 181.636ZM96.8044 182.134C97.3283 181.656 97.8718 181.4 98.4349 181.366C98.9974 181.346 99.48 181.556 99.8827 181.997L100.223 182.369C100.619 182.804 100.771 183.303 100.68 183.867C100.581 184.437 100.259 184.971 99.7147 185.468L99.0737 186.053C98.8807 186.229 98.6487 186.39 98.3778 186.537C98.1069 186.683 97.8443 186.79 97.5902 186.857L98.1754 187.499C98.3705 187.712 98.5967 187.822 98.8542 187.827C99.1116 187.832 99.3506 187.734 99.5712 187.532L100.44 186.739C100.667 186.532 100.799 186.31 100.837 186.074C100.88 185.845 100.823 185.644 100.666 185.471L101.824 184.414C102.258 184.89 102.432 185.433 102.344 186.043C102.257 186.654 101.927 187.22 101.355 187.742L100.487 188.535C99.9077 189.064 99.2977 189.33 98.6567 189.334C98.022 189.345 97.4686 189.092 96.9967 188.575L93.7781 185.049L94.8844 184.039L95.479 184.69C95.4431 184.319 95.4863 183.951 95.6086 183.586C95.7372 183.229 95.9221 182.94 96.1634 182.72L96.8044 182.134ZM96.9405 183.716C96.6648 183.968 96.4858 184.27 96.4037 184.623C96.3278 184.983 96.3615 185.332 96.5047 185.668L96.7313 185.917C96.9366 185.906 97.1712 185.831 97.4352 185.691C97.7055 185.558 97.9579 185.384 98.1923 185.17L98.8437 184.576C99.0504 184.387 99.1721 184.181 99.2087 183.958C99.2384 183.742 99.1777 183.551 99.0267 183.385L98.7624 183.096C98.6051 182.923 98.4138 182.845 98.1884 182.861C97.9631 182.878 97.7435 182.983 97.5299 183.178L96.9405 183.716ZM97.2246 191.362L96.1182 192.372L95.5047 191.699C95.5607 192.065 95.5276 192.431 95.4053 192.795C95.283 193.159 95.0977 193.455 94.8496 193.681L94.2085 194.267C93.6778 194.751 93.0997 194.969 92.4743 194.921C91.8419 194.879 91.2741 194.582 90.7707 194.031L87.6653 190.629L88.8544 189.543L91.9314 192.914C92.158 193.162 92.4059 193.302 92.6753 193.335C92.9441 193.38 93.1819 193.308 93.3887 193.119L94.0298 192.534C94.2986 192.289 94.4455 191.965 94.4704 191.563C94.5016 191.168 94.4035 190.784 94.1761 190.41L91.3255 187.288L92.5146 186.202L97.2246 191.362ZM90.8688 198.225C91.1032 198.011 91.3557 197.907 91.6263 197.913C91.8963 197.932 92.132 198.051 92.3333 198.272C92.5347 198.493 92.6294 198.735 92.6174 198.999C92.6047 199.275 92.4813 199.521 92.2469 199.735C92.0125 199.949 91.7569 200.049 91.48 200.037C91.2094 200.031 90.9734 199.918 90.772 199.697C90.5707 199.477 90.4763 199.228 90.4889 198.951C90.5078 198.681 90.6344 198.439 90.8688 198.225ZM90.9296 197.108L89.7405 198.194L85.0306 193.034L86.2196 191.949L90.9296 197.108ZM79.9817 197.643L83.7302 198.24L83.7824 197.093L82.3288 195.5L83.5179 194.415L90.1251 201.653L88.936 202.738L85.0189 198.447L84.8365 202.67L83.4406 203.945L83.6532 199.713L78.6169 198.889L79.9817 197.643ZM76.2184 200.927C76.6389 200.543 77.0834 200.283 77.5521 200.145C78.014 200.014 78.4666 200.012 78.9101 200.138C79.3467 200.27 79.7381 200.526 80.0842 200.905L81.349 202.29C81.714 202.69 81.9487 203.12 82.0533 203.581C82.1572 204.055 82.1261 204.519 81.9601 204.974C81.7934 205.442 81.4999 205.868 81.0794 206.252L80.2522 207.007C79.6249 207.58 78.955 207.856 78.2424 207.837C77.5297 207.818 76.8965 207.505 76.3428 206.898L75.3989 205.864L79.2349 202.363L78.8951 201.99C78.6434 201.715 78.3593 201.569 78.0429 201.555C77.7195 201.547 77.4166 201.672 77.1339 201.93L76.3378 202.657C76.0621 202.908 75.9013 203.175 75.8554 203.457C75.8089 203.752 75.8864 204.01 76.0877 204.231L74.9193 205.297C74.4411 204.774 74.2503 204.177 74.3468 203.507C74.4434 202.838 74.8053 202.217 75.4326 201.644L76.2184 200.927ZM77.379 205.687L77.5112 205.832C77.7881 206.135 78.0942 206.304 78.4295 206.339C78.7648 206.374 79.0669 206.269 79.3357 206.024L80.1732 205.259C80.4559 205.001 80.5955 204.691 80.5923 204.327C80.5884 203.977 80.4418 203.643 80.1523 203.326L80.0673 203.233L77.379 205.687Z" fill="white"/>
<path d="M192.677 158.551C191.992 158.457 191.412 158.226 190.935 157.859C190.459 157.483 190.115 157.002 189.904 156.417C189.693 155.823 189.638 155.165 189.737 154.444L190.103 151.781C190.202 151.06 190.433 150.446 190.794 149.94C191.166 149.426 191.636 149.057 192.204 148.834C192.773 148.601 193.404 148.532 194.098 148.628L195.568 148.83C196.225 148.92 196.787 149.144 197.256 149.5C197.727 149.848 198.065 150.299 198.271 150.855C198.479 151.402 198.536 152.013 198.443 152.688L196.848 152.468C196.93 151.877 196.833 151.378 196.559 150.973C196.285 150.568 195.889 150.33 195.372 150.259L193.901 150.056C193.337 149.979 192.856 150.125 192.456 150.494C192.057 150.863 191.811 151.385 191.718 152.06L191.367 154.612C191.273 155.296 191.364 155.869 191.639 156.331C191.916 156.783 192.328 157.047 192.873 157.122L194.371 157.328C194.907 157.402 195.37 157.258 195.759 156.897C196.148 156.536 196.386 156.032 196.475 155.385L198.07 155.604C197.971 156.325 197.741 156.939 197.379 157.445C197.027 157.952 196.571 158.323 196.011 158.557C195.462 158.783 194.85 158.85 194.175 158.757L192.677 158.551ZM201.424 159.754C200.574 159.637 199.923 159.298 199.473 158.736C199.024 158.166 198.855 157.474 198.967 156.66L199.203 154.94C199.277 154.404 199.458 153.948 199.745 153.573C200.042 153.19 200.419 152.917 200.875 152.754C201.341 152.582 201.856 152.535 202.42 152.613L203.641 152.781C204.205 152.858 204.684 153.042 205.077 153.332C205.481 153.613 205.77 153.978 205.944 154.426C206.129 154.866 206.184 155.354 206.11 155.89L205.874 157.61C205.762 158.424 205.408 159.044 204.812 159.471C204.227 159.89 203.5 160.039 202.631 159.92L201.424 159.754ZM202.806 158.545C203.194 158.598 203.522 158.511 203.789 158.284C204.066 158.049 204.234 157.719 204.292 157.294L204.504 155.754C204.562 155.329 204.494 154.971 204.298 154.68C204.104 154.38 203.813 154.203 203.424 154.15L202.259 153.99C201.871 153.936 201.543 154.028 201.275 154.264C201.008 154.491 200.845 154.818 200.787 155.243L200.575 156.782C200.517 157.208 200.585 157.57 200.779 157.87C200.974 158.161 201.257 158.332 201.627 158.383L202.806 158.545ZM215.776 154.45C216.451 154.542 216.957 154.833 217.295 155.323C217.642 155.813 217.765 156.424 217.665 157.154L217.028 161.787L215.433 161.567L216.072 156.921C216.114 156.616 216.078 156.366 215.963 156.171C215.85 155.967 215.678 155.849 215.446 155.817L214.781 155.726C214.476 155.684 214.201 155.759 213.958 155.952C213.716 156.135 213.538 156.408 213.422 156.769L212.812 161.207L211.231 160.989L211.864 156.385C211.907 156.07 211.872 155.811 211.759 155.607C211.647 155.394 211.475 155.271 211.244 155.24L210.62 155.154C210.315 155.112 210.028 155.214 209.758 155.459C209.499 155.697 209.308 156.028 209.183 156.454L208.609 160.629L207.014 160.409L207.966 153.489L209.45 153.693L209.33 154.566C209.548 154.285 209.802 154.076 210.095 153.937C210.387 153.798 210.672 153.748 210.949 153.786L211.74 153.895C212.091 153.943 212.393 154.079 212.645 154.302C212.898 154.515 213.081 154.795 213.194 155.14C213.442 154.845 213.721 154.629 214.032 154.492C214.344 154.347 214.662 154.296 214.985 154.341L215.776 154.45ZM219.668 155.098L221.152 155.302L221.04 156.12C221.272 155.87 221.552 155.682 221.88 155.558C222.219 155.425 222.536 155.379 222.832 155.42L223.747 155.546C224.552 155.657 225.165 155.991 225.588 156.548C226.021 157.097 226.183 157.77 226.074 158.565L225.852 160.174C225.733 161.043 225.392 161.707 224.829 162.167C224.267 162.627 223.579 162.801 222.765 162.689L221.836 162.561C221.568 162.524 221.299 162.421 221.03 162.252C220.763 162.074 220.552 161.861 220.397 161.614L219.93 165.012L218.335 164.793L219.668 155.098ZM222.787 161.293C223.167 161.345 223.492 161.239 223.764 160.975C224.045 160.712 224.219 160.34 224.285 159.859L224.479 158.445C224.535 158.038 224.465 157.694 224.268 157.412C224.072 157.122 223.785 156.95 223.406 156.898L222.518 156.776C222.204 156.733 221.896 156.817 221.593 157.03C221.301 157.235 221.073 157.524 220.909 157.897L220.687 159.506C220.674 159.947 220.777 160.324 220.998 160.637C221.229 160.942 221.53 161.12 221.9 161.171L222.787 161.293ZM229.072 163.556C228.369 163.459 227.825 163.205 227.438 162.794C227.063 162.375 226.915 161.87 226.997 161.278L227.066 160.779C227.146 160.196 227.432 159.76 227.924 159.469C228.425 159.18 229.041 159.086 229.772 159.187L230.632 159.305C230.891 159.34 231.163 159.416 231.449 159.53C231.734 159.645 231.984 159.778 232.199 159.93L232.317 159.07C232.357 158.784 232.296 158.54 232.135 158.339C231.974 158.138 231.746 158.017 231.45 157.976L230.285 157.816C229.98 157.774 229.725 157.814 229.52 157.937C229.316 158.05 229.198 158.222 229.166 158.453L227.613 158.24C227.7 157.602 228.007 157.121 228.532 156.797C229.057 156.474 229.703 156.365 230.47 156.47L231.635 156.631C232.412 156.737 233.007 157.036 233.42 157.526C233.834 158.007 233.994 158.594 233.898 159.288L233.248 164.017L231.764 163.813L231.884 162.939C231.621 163.205 231.311 163.407 230.953 163.546C230.596 163.676 230.255 163.719 229.932 163.674L229.072 163.556ZM230.201 162.439C230.57 162.49 230.917 162.434 231.241 162.272C231.566 162.1 231.812 161.851 231.98 161.525L232.025 161.192C231.886 161.041 231.678 160.909 231.402 160.796C231.126 160.673 230.832 160.59 230.517 160.547L229.644 160.427C229.366 160.389 229.13 160.427 228.935 160.541C228.75 160.657 228.642 160.826 228.611 161.048L228.558 161.436C228.526 161.667 228.589 161.864 228.745 162.027C228.902 162.19 229.123 162.291 229.41 162.331L230.201 162.439ZM237.176 164.557C236.399 164.451 235.853 164.211 235.537 163.837C235.231 163.456 235.127 162.91 235.225 162.198L236.278 154.542L237.873 154.761L236.83 162.348C236.793 162.616 236.821 162.818 236.916 162.953C237.012 163.079 237.189 163.16 237.448 163.196L238.114 163.287L237.925 164.66L237.176 164.557Z" fill="white"/>
<path d="M155.199 146.049C155.199 151.068 151.142 155.128 146.129 155.128C141.115 155.128 137.058 151.068 137.058 146.049C137.058 141.031 141.115 136.97 146.129 136.97C151.142 136.97 155.199 141.031 155.199 146.049Z" fill="white"/>
</svg>
