<svg width="334" height="260" viewBox="0 0 334 260" fill="none" xmlns="http://www.w3.org/2000/svg">
<mask id="mask0_591_1013" style="mask-type:luminance" maskUnits="userSpaceOnUse" x="0" y="0" width="334" height="259">
<path d="M333.143 0H0V258.719H333.143V0Z" fill="white"/>
</mask>
<g mask="url(#mask0_591_1013)">
<path d="M120.923 215.279C112.75 196.75 104.576 178.22 96.4037 159.691C90.6825 146.719 84.3126 132.978 72.2961 125.486C65.8129 121.444 56.7845 119.832 50.8664 124.666C46.7063 128.064 45.1824 133.694 44.2729 138.994C39.7356 165.433 44.9797 193.445 60.3198 216.904C80.7877 217.823 102.572 216.144 120.923 215.279Z" fill="#55D087" stroke="#212529" stroke-width="1.5" stroke-linecap="round" stroke-linejoin="round"/>
<path d="M59.8471 130.921C66.3184 159.069 74.4358 186.839 84.1427 214.039" stroke="#212529" stroke-width="1.5" stroke-linecap="round" stroke-linejoin="round"/>
<path d="M71.8771 217.317C64.216 202.277 56.5355 187.203 47.2908 173.087C40.6362 162.926 32.5993 152.834 21.2821 148.463C17.2815 146.918 12.6428 146.196 8.79285 148.087C4.43892 150.225 2.15907 155.198 1.44336 160.003C-0.11034 170.451 4.12729 180.85 8.95239 190.242C13.5151 199.12 18.6891 207.682 26.38 216.552C44.844 216.788 57.9102 217.139 71.8756 217.318L71.8771 217.317Z" fill="#55D087" stroke="#212529" stroke-width="1.5" stroke-linecap="round" stroke-linejoin="round"/>
<path d="M13.6865 151.181C23.4053 173.265 34.6808 194.661 47.3997 215.158L13.6865 151.181Z" fill="#55D087"/>
<path d="M13.6865 151.181C23.4053 173.265 34.6808 194.661 47.3997 215.158" stroke="#212529" stroke-width="1.5" stroke-linecap="round" stroke-linejoin="round"/>
<path d="M225.213 102.222C226.294 83.8023 228.757 72.6014 228.197 54.1578C227.408 28.1802 217.71 3.03194 186.667 1.21643C174.703 0.517119 162.011 3.67447 153.097 11.7031C142.585 21.1707 139.585 36.2761 137.809 50.328C135.687 67.113 134.465 84.013 135.965 100.261C139.854 100.429 144.861 100.968 149.979 100.054C149.68 83.2106 149.821 65.9669 152.62 49.3568C154.096 40.59 156.315 31.3182 162.789 25.241C169.462 18.9786 179.267 17.4634 188.409 17.4933C197.947 17.5247 210.077 25.7595 213.344 45.4194C217.291 69.1765 211.327 101.3 213.026 102.504C213.41 102.775 221.903 103.725 225.214 102.223L225.213 102.222Z" fill="#5F6EF0" stroke="#212529" stroke-width="1.5" stroke-linecap="round" stroke-linejoin="round"/>
<path d="M96.9897 123.1C95.7641 147.979 95.4629 172.905 96.0861 197.806C96.2472 204.275 96.6691 211.283 100.846 216.219C105.537 221.762 113.471 222.979 120.69 223.675C160.59 227.52 203.907 230.535 243.644 225.269C249.277 224.522 255.195 223.56 259.621 219.989C267.561 213.58 266.499 201.714 267.055 191.513C268.165 171.133 268.18 128.791 266.173 117.114C265.274 111.878 263.996 106.5 260.72 102.322C253.904 93.6286 241.202 92.995 230.175 93.3432C195.822 94.428 150.261 92.8695 117.929 94.9196C106.464 95.6473 97.3923 107.252 96.9897 123.1Z" fill="#5F6EF0" stroke="#212529" stroke-width="1.5" stroke-linecap="round" stroke-linejoin="round"/>
<path d="M176.972 179.174C171.652 177.395 167.91 171.981 167.613 166.369C167.316 160.756 170.228 155.199 174.706 151.816C179.184 148.433 185.054 147.142 190.626 147.78C193.216 148.076 195.797 148.784 198.008 150.168C200.13 151.495 201.854 153.415 203.102 155.588C205.598 159.931 206.153 165.411 204.308 170.07C202.742 174.024 199.413 177.265 195.347 178.783C194.012 179.28 193.165 180.607 193.216 182.033C193.45 188.617 192.942 200.615 192.754 204.678C192.718 205.451 192.075 206.053 191.303 206.038L181.393 205.847C180.64 205.832 180.029 205.234 179.998 204.48L179.102 183.39C179.039 181.91 179.081 179.883 176.974 179.177L176.972 179.174Z" fill="white" stroke="#212529" stroke-width="1.5" stroke-linecap="round" stroke-linejoin="round"/>
<path d="M5.80623 102.107L36.664 100.949" stroke="#212529" stroke-width="1.5" stroke-linecap="round" stroke-linejoin="round"/>
<path d="M28.6271 29.9448C33.3061 35.3062 37.9865 40.6676 42.6655 46.029" stroke="#212529" stroke-width="1.5" stroke-linecap="round" stroke-linejoin="round"/>
<path d="M94.5026 8.91455C94.3475 16.5501 94.191 24.1843 94.0359 31.8199" stroke="#212529" stroke-width="1.5" stroke-linecap="round" stroke-linejoin="round"/>
<path d="M329.373 160.602C325.505 151.556 317.221 144.407 307.601 142.434C293.681 139.577 269.217 146.109 281.049 178.781C259.712 201.945 235.633 219.277 217.71 238.734C222.474 245.093 228.047 251.988 232.251 257.599C234.068 256.273 237.358 253.691 239.177 252.366C236.414 248.418 233.652 244.47 230.889 240.522C233.466 238.23 236.043 235.94 238.619 233.649C241.132 236.185 243.31 239.052 245.08 242.153C246.119 240.877 250.416 237.91 251.928 237.265C250.045 234.333 247.6 231.711 245.988 228.101C262.247 213.811 276.354 201.011 290.315 191.469C293.904 195.021 297.864 198.314 302.492 200.324C307.122 202.332 312.517 202.949 317.225 201.137C322.474 199.117 326.255 194.362 328.629 189.255C332.777 180.335 333.241 169.647 329.373 160.602ZM318.363 182.275C316.571 185.84 312.886 188.66 308.905 188.479C307.004 188.392 305.19 187.653 303.527 186.725C297.185 183.188 292.593 176.658 291.403 169.483C290.901 166.457 290.541 162.18 292.982 159.283C298.213 153.073 310.642 153.488 317.452 162.497C320.218 166.156 321.432 176.171 318.363 182.275Z" fill="#FF8B37" stroke="#212529" stroke-width="1.5" stroke-linecap="round" stroke-linejoin="round"/>
</g>
</svg>
