<svg width="402" height="212" viewBox="0 0 402 212" fill="none" xmlns="http://www.w3.org/2000/svg">
<path d="M138.969 160.662C136.931 159.521 135.348 157.91 134.22 155.846C133.091 153.782 132.527 151.373 132.527 148.652V123.789H140.066V148.434C140.066 150.607 140.615 152.374 141.728 153.719C142.84 155.064 144.282 155.736 146.069 155.736H151.869C153.687 155.736 155.16 155.064 156.289 153.719C157.418 152.374 157.982 150.607 157.982 148.434V123.789H165.521V148.652C165.521 151.373 164.957 153.782 163.828 155.846C162.7 157.91 161.101 159.521 159.016 160.662C156.932 161.804 154.549 162.382 151.853 162.382H146.054C143.358 162.382 140.991 161.804 138.953 160.662H138.969Z" fill="#212529"/>
<path d="M181.587 161.288C180.428 160.553 179.471 159.615 178.75 158.457V161.945H171.869V123.773H179.299V136.862C180.02 136.095 180.929 135.47 181.995 135.001C183.077 134.532 184.095 134.297 185.083 134.297H188.907C191.023 134.297 192.889 134.735 194.503 135.626C196.118 136.518 197.387 137.784 198.281 139.411C199.174 141.053 199.613 142.945 199.613 145.087V151.295C199.613 153.469 199.158 155.408 198.249 157.066C197.34 158.739 196.071 160.037 194.425 160.959C192.779 161.882 190.914 162.351 188.798 162.351H185.02C183.892 162.351 182.747 161.991 181.572 161.256L181.587 161.288ZM187.92 155.893C189.19 155.893 190.224 155.424 191.008 154.47C191.791 153.516 192.183 152.28 192.183 150.764V145.634C192.183 144.18 191.807 143.007 191.039 142.116C190.271 141.225 189.268 140.787 188.03 140.787H184.644C183.186 140.787 181.964 141.303 180.992 142.319C180.004 143.336 179.44 144.681 179.299 146.354V151.045C179.55 152.499 180.145 153.672 181.07 154.564C181.995 155.455 183.108 155.893 184.378 155.893H187.936H187.92Z" fill="#212529"/>
<path d="M209.378 161.1C207.607 160.24 206.243 159.051 205.256 157.503C204.268 155.955 203.782 154.188 203.782 152.186V145.149C203.782 143.007 204.268 141.115 205.256 139.473C206.243 137.847 207.622 136.564 209.378 135.657C211.149 134.75 213.171 134.297 215.475 134.297H219.848C223.344 134.297 226.15 135.282 228.266 137.237C230.382 139.191 231.432 141.819 231.432 145.087V150.873H211.212V152.171C211.212 153.375 211.588 154.329 212.356 155.064C213.124 155.799 214.159 156.158 215.475 156.158H219.739C221.008 156.158 222.043 155.877 222.827 155.314C223.61 154.751 224.002 154.016 224.002 153.109H231.322C231.322 154.923 230.836 156.549 229.849 157.957C228.861 159.38 227.482 160.459 225.726 161.225C223.971 161.991 221.933 162.367 219.629 162.367H215.475C213.187 162.367 211.149 161.944 209.378 161.084V161.1ZM224.112 145.525V145.087C224.112 143.664 223.736 142.538 222.968 141.678C222.2 140.833 221.181 140.396 219.911 140.396H215.491C214.174 140.396 213.124 140.849 212.325 141.756C211.525 142.663 211.118 143.867 211.118 145.353V145.509H224.128L224.112 145.525Z" fill="#212529"/>
<path d="M236.448 134.735H243.329V138.222C244.018 137.159 245.022 136.299 246.307 135.626C247.608 134.954 248.956 134.625 250.382 134.625H254.097V141.053H250.382C248.454 141.053 246.887 141.631 245.68 142.788C244.473 143.946 243.877 145.447 243.877 147.261V161.929H236.448V134.719V134.735Z" fill="#212529"/>
<path d="M259.081 159.755C257.075 158.019 256.072 155.72 256.072 152.89H263.392C263.392 153.875 263.721 154.657 264.395 155.267C265.069 155.877 265.947 156.158 267.044 156.158H271.966C274.144 156.158 275.242 155.564 275.242 154.36V153.437C275.242 153.078 275.054 152.734 274.693 152.437C274.333 152.124 273.831 151.921 273.22 151.811L263.768 150.185C261.542 149.825 259.787 149.028 258.501 147.808C257.2 146.588 256.558 145.165 256.558 143.523V141.725C256.558 139.395 257.514 137.581 259.426 136.267C261.338 134.954 264.003 134.312 267.436 134.312H271.699C274.756 134.312 277.232 135.126 279.098 136.736C280.978 138.347 281.919 140.489 281.919 143.148H274.599C274.599 142.35 274.333 141.709 273.8 141.24C273.267 140.771 272.577 140.536 271.699 140.536H267.546C265.179 140.536 263.987 141.084 263.987 142.163V143.038C263.987 143.445 264.144 143.773 264.458 144.039C264.771 144.321 265.21 144.508 265.79 144.618L275.743 146.416C277.812 146.776 279.489 147.558 280.775 148.73C282.044 149.903 282.687 151.248 282.687 152.734V154.704C282.687 157.065 281.715 158.942 279.756 160.318C277.812 161.71 275.21 162.382 271.966 162.382H267.044C263.721 162.382 261.072 161.506 259.066 159.771L259.081 159.755Z" fill="#212529"/>
<path d="M288.659 130.951C287.797 130.137 287.374 129.058 287.374 127.714C287.374 126.369 287.797 125.29 288.659 124.477C289.521 123.663 290.649 123.257 292.076 123.257C293.502 123.257 294.631 123.663 295.493 124.477C296.355 125.29 296.778 126.369 296.778 127.714C296.778 129.058 296.355 130.137 295.493 130.951C294.631 131.764 293.502 132.186 292.076 132.186C290.649 132.186 289.521 131.779 288.659 130.951ZM288.361 134.735H295.791V161.944H288.361V134.735Z" fill="#212529"/>
<path d="M307.985 159.755C306.496 158.301 305.744 156.049 305.744 153V141.068H300.932V134.735H305.963V126.509H313.174V134.735H320.274V141.068H313.174V152.671C313.174 153.688 313.362 154.438 313.754 154.907C314.13 155.376 314.741 155.611 315.587 155.611H320.29V161.929H315.039C311.826 161.929 309.474 161.194 307.985 159.739V159.755Z" fill="#212529"/>
<path d="M328.503 170.53C326.591 168.872 325.525 166.698 325.305 164.024H332.625C332.704 164.822 333.033 165.463 333.613 165.963C334.193 166.448 334.93 166.698 335.792 166.698H340.274C341.403 166.698 342.328 166.229 343.033 165.307C343.738 164.384 344.099 163.164 344.099 161.679V158.129C343.268 159.255 342.312 160.146 341.231 160.772C340.149 161.413 339.099 161.726 338.033 161.726H334.428C331.544 161.726 329.24 160.772 327.484 158.864C325.729 156.956 324.867 154.423 324.867 151.264V134.735H332.296V151.358C332.296 152.562 332.594 153.531 333.205 154.282C333.801 155.033 334.6 155.392 335.588 155.392H338.754C339.961 155.392 341.042 154.892 342.03 153.891C343.017 152.89 343.707 151.577 344.099 149.935V134.719H351.529V161.647C351.529 163.899 351.058 165.885 350.134 167.59C349.209 169.294 347.892 170.623 346.168 171.562C344.459 172.5 342.485 172.985 340.259 172.985H335.776C332.829 172.985 330.4 172.156 328.487 170.498L328.503 170.53Z" fill="#212529"/>
<path d="M148.64 74.2325C148.64 74.2325 149.33 76.2654 149.267 78.4391C149.267 78.4391 149.408 82.8958 149.267 83.3337C149.267 83.3337 144.721 85.0851 146.022 89.4636C146.022 89.4636 147.12 93.7014 151.822 92.6224C151.822 92.6224 156.038 91.8406 154.816 86.4456C154.816 86.4456 154.455 84.7567 151.305 83.1929C151.305 83.1929 151.367 77.407 150.286 73.4819L148.656 74.2169L148.64 74.2325Z" fill="#212529"/>
<path d="M148.64 112.794C148.64 112.794 147.402 96.1559 151.32 94.7172C151.32 94.7172 152.684 93.4193 153.703 96.2341C153.703 96.2341 156.132 102.317 156.712 105.101C156.712 105.101 158.154 112.075 161.336 114.186C161.336 114.186 152.276 114.859 151.602 109.401C151.602 109.401 150.035 112.044 148.64 112.794Z" fill="#212529"/>
<path d="M126.523 105.241L113.279 111.966V132.842L100.018 139.785L86.0993 131.904V111.966L72.3843 104.319V159.27L86.789 166.213V145.821L100.018 152.78L113.279 146.056L113.733 165.916L126.523 159.723V105.241Z" fill="#212529"/>
<path d="M72.682 104.179L86.2246 98.0959C86.4284 98.002 86.6792 98.002 86.883 98.1115L99.6889 104.898L86.303 111.857C86.1776 111.92 86.0209 111.92 85.8955 111.857L72.682 104.492C72.5566 104.429 72.5723 104.241 72.682 104.195V104.179Z" stroke="#212529" stroke-width="0.25" stroke-miterlimit="10"/>
<path d="M126.147 104.523L113.482 98.1584C113.216 98.0176 112.902 98.0333 112.636 98.1584L100.018 104.726C99.8771 104.804 99.8771 104.992 100.018 105.055L113.2 111.92C113.2 111.92 113.326 111.951 113.373 111.92L126.147 105.383C126.508 105.195 126.492 104.695 126.147 104.523Z" stroke="#212529" stroke-width="0.25" stroke-miterlimit="10"/>
<path d="M86.0994 131.904L99.689 125.289V104.882L86.3502 111.825C86.1934 111.904 86.0994 112.06 86.0994 112.232V131.889V131.904Z" stroke="#212529" stroke-width="0.25" stroke-miterlimit="10"/>
<path d="M113.279 132.843L99.6888 125.306V104.898L113.279 111.967V132.843Z" stroke="#212529" stroke-width="0.25" stroke-miterlimit="10"/>
<path d="M86.7889 166.026L100.018 159.489L113.812 165.635" stroke="#212529" stroke-width="0.25" stroke-miterlimit="10" stroke-linecap="round"/>
<path d="M100.018 151.67V159.489" stroke="#212529" stroke-width="0.25" stroke-miterlimit="10"/>
<path d="M99.9084 39.0942L45.158 67.1795L99.9084 95.1866L154.894 67.1326L99.9084 39.0942Z" fill="#212529"/>
<path d="M45.158 68.7437V75.5774L100.018 102.975L154.894 74.9831V68.6968L99.9084 96.7508L45.158 68.7437Z" fill="#212529"/>
</svg>
