<svg width="390" height="131" viewBox="0 0 390 131" fill="none" xmlns="http://www.w3.org/2000/svg">
<path d="M0 111V20C0 8.9543 8.9543 0 20 0H311C322.046 0 331 8.9543 331 20V25C331 36.0457 339.954 45 351 45H370C381.046 45 390 53.9543 390 65V111C390 122.046 381.046 131 370 131H20C8.95431 131 0 122.046 0 111Z" fill="#3A459E"/>
<g clip-path="url(#clip0_1254_1529)">
<g filter="url(#filter0_d_1254_1529)">
<path d="M153 0L152 3.2C151 6.3 149 12.7 143.8 18.8C138.7 25 130.3 31 131.3 37.2C132.3 43.3 142.7 49.7 149.5 56C156.3 62.3 159.7 68.7 155.3 75C151 81.3 139 87.7 131.2 93.8C123.3 100 119.7 106 119.7 112.2C119.7 118.3 123.3 124.7 125.2 127.8L127 131H0V127.8C0 124.7 0 118.3 0 112.2C0 106 0 100 0 93.8C0 87.7 0 81.3 0 75C0 68.7 0 62.3 0 56C0 49.7 0 43.3 0 37.2C0 31 0 25 0 18.8C0 12.7 0 6.3 0 3.2V0H153Z" fill="#7F8BF3"/>
</g>
<path d="M80 0L81.7 3.2C83.3 6.3 86.7 12.7 95.3 18.8C104 25 118 31 124.7 37.2C131.3 43.3 130.7 49.7 129.7 56C128.7 62.3 127.3 68.7 118.8 75C110.3 81.3 94.7 87.7 94 93.8C93.3 100 107.7 106 109 112.2C110.3 118.3 98.7 124.7 92.8 127.8L87 131H0V127.8C0 124.7 0 118.3 0 112.2C0 106 0 100 0 93.8C0 87.7 0 81.3 0 75C0 68.7 0 62.3 0 56C0 49.7 0 43.3 0 37.2C0 31 0 25 0 18.8C0 12.7 0 6.3 0 3.2V0H80Z" fill="#97A0F6"/>
<path d="M62 0L64.7 3.2C67.3 6.3 72.7 12.7 74.8 18.8C77 25 76 31 76.7 37.2C77.3 43.3 79.7 49.7 79.3 56C79 62.3 76 68.7 78.3 75C80.7 81.3 88.3 87.7 91.8 93.8C95.3 100 94.7 106 91.3 112.2C88 118.3 82 124.7 79 127.8L76 131H0V127.8C0 124.7 0 118.3 0 112.2C0 106 0 100 0 93.8C0 87.7 0 81.3 0 75C0 68.7 0 62.3 0 56C0 49.7 0 43.3 0 37.2C0 31 0 25 0 18.8C0 12.7 0 6.3 0 3.2V0H62Z" fill="#AFB6F9"/>
<path d="M53 0L54.7 3.2C56.3 6.3 59.7 12.7 58 18.8C56.3 25 49.7 31 46.7 37.2C43.7 43.3 44.3 49.7 44.8 56C45.3 62.3 45.7 68.7 49.7 75C53.7 81.3 61.3 87.7 65.2 93.8C69 100 69 106 65.7 112.2C62.3 118.3 55.7 124.7 52.3 127.8L49 131H0V127.8C0 124.7 0 118.3 0 112.2C0 106 0 100 0 93.8C0 87.7 0 81.3 0 75C0 68.7 0 62.3 0 56C0 49.7 0 43.3 0 37.2C0 31 0 25 0 18.8C0 12.7 0 6.3 0 3.2V0H53Z" fill="#C7CCFB"/>
<path d="M45 0L43.3 3.2C41.7 6.3 38.3 12.7 35.8 18.8C33.3 25 31.7 31 33.2 37.2C34.7 43.3 39.3 49.7 38.5 56C37.7 62.3 31.3 68.7 27 75C22.7 81.3 20.3 87.7 24.2 93.8C28 100 38 106 39.8 112.2C41.7 118.3 35.3 124.7 32.2 127.8L29 131H0V127.8C0 124.7 0 118.3 0 112.2C0 106 0 100 0 93.8C0 87.7 0 81.3 0 75C0 68.7 0 62.3 0 56C0 49.7 0 43.3 0 37.2C0 31 0 25 0 18.8C0 12.7 0 6.3 0 3.2V0H45Z" fill="#DFE2FC"/>
</g>
<defs>
<filter id="filter0_d_1254_1529" x="-4" y="0" width="165.274" height="139" filterUnits="userSpaceOnUse" color-interpolation-filters="sRGB">
<feFlood flood-opacity="0" result="BackgroundImageFix"/>
<feColorMatrix in="SourceAlpha" type="matrix" values="0 0 0 0 0 0 0 0 0 0 0 0 0 0 0 0 0 0 127 0" result="hardAlpha"/>
<feOffset dy="4"/>
<feGaussianBlur stdDeviation="2"/>
<feComposite in2="hardAlpha" operator="out"/>
<feColorMatrix type="matrix" values="0 0 0 0 0 0 0 0 0 0 0 0 0 0 0 0 0 0 0.25 0"/>
<feBlend mode="normal" in2="BackgroundImageFix" result="effect1_dropShadow_1254_1529"/>
<feBlend mode="normal" in="SourceGraphic" in2="effect1_dropShadow_1254_1529" result="shape"/>
</filter>
<clipPath id="clip0_1254_1529">
<rect width="390" height="131" rx="20" fill="white"/>
</clipPath>
</defs>
</svg>
