<svg width="390" height="131" viewBox="0 0 390 131" fill="none" xmlns="http://www.w3.org/2000/svg">
<path d="M390 111V20C390 8.9543 381.046 0 370 0H79C67.9543 0 59 8.9543 59 20V25C59 36.0457 50.0457 45 39 45H20C8.95432 45 0 53.9543 0 65V111C0 122.046 8.95432 131 20 131H370C381.046 131 390 122.046 390 111Z" fill="#3A459E"/>
<g clip-path="url(#clip0_1254_1612)">
<g filter="url(#filter0_d_1254_1612)">
<path d="M239 131L240 127.8C241 124.7 243 118.3 248.2 112.2C253.3 106 261.7 100 260.7 93.8C259.7 87.7 249.3 81.3 242.5 75C235.7 68.7 232.3 62.3 236.7 56C241 49.7 253 43.3 260.8 37.2C268.7 31 272.3 25 272.3 18.8C272.3 12.7 268.7 6.3 266.8 3.2L265 0H390V3.2C390 6.3 390 12.7 390 18.8C390 25 390 31 390 37.2C390 43.3 390 49.7 390 56C390 62.3 390 68.7 390 75C390 81.3 390 87.7 390 93.8C390 100 390 106 390 112.2C390 118.3 390 124.7 390 127.8V131H239Z" fill="#7F8BF3"/>
</g>
<path d="M312 131L310.3 127.8C308.7 124.7 305.3 118.3 296.7 112.2C288 106 274 100 267.3 93.8C260.7 87.7 261.3 81.3 262.3 75C263.3 68.7 264.7 62.3 273.2 56C281.7 49.7 297.3 43.3 298 37.2C298.7 31 284.3 25 283 18.8C281.7 12.7 293.3 6.3 299.2 3.2L305 0H390V3.2C390 6.3 390 12.7 390 18.8C390 25 390 31 390 37.2C390 43.3 390 49.7 390 56C390 62.3 390 68.7 390 75C390 81.3 390 87.7 390 93.8C390 100 390 106 390 112.2C390 118.3 390 124.7 390 127.8V131H312Z" fill="#97A0F6"/>
<path d="M330 131L327.3 127.8C324.7 124.7 319.3 118.3 317.2 112.2C315 106 316 100 315.3 93.8C314.7 87.7 312.3 81.3 312.7 75C313 68.7 316 62.3 313.7 56C311.3 49.7 303.7 43.3 300.2 37.2C296.7 31 297.3 25 300.7 18.8C304 12.7 310 6.3 313 3.2L316 0H390V3.2C390 6.3 390 12.7 390 18.8C390 25 390 31 390 37.2C390 43.3 390 49.7 390 56C390 62.3 390 68.7 390 75C390 81.3 390 87.7 390 93.8C390 100 390 106 390 112.2C390 118.3 390 124.7 390 127.8V131H330Z" fill="#AFB6F9"/>
<path d="M339 131L337.3 127.8C335.7 124.7 332.3 118.3 334 112.2C335.7 106 342.3 100 345.3 93.8C348.3 87.7 347.7 81.3 347.2 75C346.7 68.7 346.3 62.3 342.3 56C338.3 49.7 330.7 43.3 326.8 37.2C323 31 323 25 326.3 18.8C329.7 12.7 336.3 6.3 339.7 3.2L343 0H390V3.2C390 6.3 390 12.7 390 18.8C390 25 390 31 390 37.2C390 43.3 390 49.7 390 56C390 62.3 390 68.7 390 75C390 81.3 390 87.7 390 93.8C390 100 390 106 390 112.2C390 118.3 390 124.7 390 127.8V131H339Z" fill="#C7CCFB"/>
<path d="M347 131L348.7 127.8C350.3 124.7 353.7 118.3 356.2 112.2C358.7 106 360.3 100 358.8 93.8C357.3 87.7 352.7 81.3 353.5 75C354.3 68.7 360.7 62.3 365 56C369.3 49.7 371.7 43.3 367.8 37.2C364 31 354 25 352.2 18.8C350.3 12.7 356.7 6.3 359.8 3.2L363 0H390V3.2C390 6.3 390 12.7 390 18.8C390 25 390 31 390 37.2C390 43.3 390 49.7 390 56C390 62.3 390 68.7 390 75C390 81.3 390 87.7 390 93.8C390 100 390 106 390 112.2C390 118.3 390 124.7 390 127.8V131H347Z" fill="#DFE2FC"/>
</g>
<defs>
<filter id="filter0_d_1254_1612" x="230.726" y="0" width="163.274" height="139" filterUnits="userSpaceOnUse" color-interpolation-filters="sRGB">
<feFlood flood-opacity="0" result="BackgroundImageFix"/>
<feColorMatrix in="SourceAlpha" type="matrix" values="0 0 0 0 0 0 0 0 0 0 0 0 0 0 0 0 0 0 127 0" result="hardAlpha"/>
<feOffset dy="4"/>
<feGaussianBlur stdDeviation="2"/>
<feComposite in2="hardAlpha" operator="out"/>
<feColorMatrix type="matrix" values="0 0 0 0 0 0 0 0 0 0 0 0 0 0 0 0 0 0 0.25 0"/>
<feBlend mode="normal" in2="BackgroundImageFix" result="effect1_dropShadow_1254_1612"/>
<feBlend mode="normal" in="SourceGraphic" in2="effect1_dropShadow_1254_1612" result="shape"/>
</filter>
<clipPath id="clip0_1254_1612">
<rect width="390" height="131" rx="20" fill="white"/>
</clipPath>
</defs>
</svg>
